<?xml version="1.0" standalone="no"?>
<!DOCTYPE svg PUBLIC "-//W3C//DTD SVG 20010904//EN"
 "http://www.w3.org/TR/2001/REC-SVG-20010904/DTD/svg10.dtd">
<svg version="1.0" xmlns="http://www.w3.org/2000/svg"
 width="1280.000000pt" height="731.000000pt" viewBox="0 0 1280.000000 731.000000"
 preserveAspectRatio="xMidYMid meet">
<metadata>
Created by potrace 1.15, written by Peter Selinger 2001-2017
</metadata>
<g transform="translate(0.000000,731.000000) scale(0.100000,-0.100000)"
fill="#000000" stroke="none">
<path d="M3186 7300 c-37 -12 -66 -38 -82 -77 -11 -26 -11 -39 1 -80 23 -79
58 -105 175 -133 30 -7 107 -35 170 -63 114 -50 116 -51 215 -51 75 1 123 7
193 26 65 18 95 22 98 14 2 -6 42 -141 89 -301 47 -159 108 -364 135 -455 195
-660 251 -852 248 -854 -2 -1 -22 -8 -46 -15 -42 -12 -43 -13 -37 -44 14 -63
34 -100 51 -93 60 23 61 22 83 -51 11 -37 25 -88 31 -111 l11 -44 -48 -51
c-27 -29 -163 -175 -302 -324 -157 -170 -261 -273 -272 -273 -11 0 -29 12 -42
27 -44 53 -70 73 -104 79 -22 4 -51 22 -78 49 -31 32 -53 45 -86 50 -28 5 -50
16 -63 32 -23 30 -74 53 -115 53 -18 0 -41 10 -58 26 -34 32 -64 44 -109 44
-21 0 -51 11 -76 28 -30 20 -55 27 -93 28 -32 1 -64 10 -86 23 -36 22 -50 25
-117 21 -23 -1 -49 4 -57 10 -24 20 -87 30 -126 20 -28 -8 -43 -7 -65 5 -31
16 -105 19 -139 6 -11 -5 -39 -1 -68 8 -44 14 -52 14 -95 -1 -34 -13 -57 -15
-84 -9 -39 9 -90 2 -123 -16 -10 -6 -44 -8 -76 -6 -45 5 -65 1 -95 -15 -23
-12 -64 -22 -100 -24 -42 -3 -70 -11 -91 -26 -21 -15 -46 -22 -75 -22 -31 0
-57 -8 -90 -29 -25 -16 -65 -32 -89 -36 -43 -7 -119 -49 -119 -66 0 -5 -12 -9
-27 -9 -41 -1 -109 -34 -128 -63 -11 -17 -29 -28 -57 -32 -29 -5 -53 -19 -84
-50 -23 -24 -58 -48 -77 -54 -37 -12 -93 -62 -102 -91 -3 -9 -18 -20 -34 -23
-37 -8 -85 -49 -101 -86 -6 -16 -25 -35 -41 -41 -35 -15 -86 -71 -95 -105 -3
-14 -11 -25 -16 -25 -24 0 -72 -47 -92 -89 -12 -26 -40 -63 -62 -84 -25 -22
-45 -52 -53 -78 -7 -23 -25 -52 -41 -65 -32 -28 -60 -81 -60 -118 0 -15 -8
-30 -19 -36 -29 -15 -60 -71 -63 -115 -1 -25 -12 -49 -30 -69 -26 -28 -52
-111 -41 -129 2 -4 -8 -24 -23 -44 -20 -27 -29 -51 -32 -92 -2 -31 -15 -79
-29 -108 -21 -43 -24 -61 -19 -97 5 -32 3 -52 -7 -68 -23 -35 -29 -83 -18
-124 6 -23 7 -42 1 -49 -20 -24 -29 -98 -17 -134 10 -28 10 -44 0 -71 -16 -48
-16 -86 2 -119 12 -24 12 -38 3 -83 -10 -49 -9 -60 9 -96 15 -31 19 -54 15
-95 -3 -41 1 -63 18 -96 12 -24 21 -57 20 -74 -3 -59 0 -74 24 -109 15 -23 25
-54 28 -91 3 -40 12 -65 31 -91 15 -19 27 -47 27 -63 1 -36 31 -103 59 -127
11 -11 21 -30 21 -43 0 -37 25 -87 57 -114 20 -16 33 -39 37 -65 6 -28 21 -51
52 -81 24 -24 44 -46 44 -50 0 -25 47 -96 76 -114 20 -12 41 -37 50 -57 19
-46 47 -77 84 -92 16 -7 34 -25 41 -42 15 -36 52 -73 90 -89 15 -6 39 -29 54
-51 18 -27 43 -47 81 -65 30 -13 54 -28 54 -33 0 -20 64 -70 102 -80 24 -7 51
-24 66 -42 28 -32 77 -58 113 -58 11 0 30 -11 41 -25 26 -33 67 -54 113 -57
25 -1 49 -12 69 -30 28 -25 111 -52 128 -42 4 3 24 -7 44 -22 26 -20 50 -29
92 -32 32 -2 80 -15 110 -29 40 -19 61 -24 90 -19 26 4 52 -1 89 -16 46 -19
59 -20 100 -11 27 7 52 8 58 3 24 -20 98 -29 134 -17 28 10 44 10 71 0 48 -16
86 -16 119 2 24 12 39 12 82 3 46 -9 60 -8 94 7 28 13 58 18 102 16 50 -2 69
1 98 19 27 17 46 21 75 17 38 -5 110 19 124 42 4 6 30 11 57 11 51 0 95 17
118 44 8 9 28 16 46 16 43 0 94 22 124 54 14 14 35 26 48 26 38 0 87 25 115
59 15 17 35 31 44 31 32 0 99 39 119 70 11 16 26 30 33 30 29 0 93 43 115 75
12 19 38 41 58 49 37 15 99 80 99 103 0 7 6 13 13 13 29 0 94 59 110 99 9 23
21 41 27 41 21 0 80 64 91 99 7 24 22 44 39 55 32 18 65 66 76 110 4 17 20 41
36 54 35 29 58 72 58 107 0 14 5 25 12 25 25 0 1005 90 1038 95 303 49 533
228 610 475 21 64 15 62 204 86 101 13 174 15 316 11 167 -5 190 -4 227 13 41
18 73 60 73 95 0 32 -31 75 -68 94 -32 16 -69 19 -252 24 -151 4 -256 12 -352
27 l-137 22 -7 32 c-10 41 -8 35 -28 81 -9 22 -21 47 -26 55 -5 8 -21 35 -34
59 l-26 43 169 207 c92 113 590 724 1105 1356 l937 1150 141 108 c77 60 144
105 148 100 5 -4 22 -55 40 -113 17 -58 37 -110 43 -116 7 -5 64 -23 128 -38
l115 -27 58 -110 c32 -60 64 -109 71 -109 8 0 43 -75 89 -191 73 -186 75 -192
58 -214 -10 -14 -32 -26 -57 -30 -29 -4 -51 -18 -82 -50 -23 -25 -46 -45 -50
-45 -25 0 -96 -47 -114 -76 -12 -20 -37 -41 -57 -50 -45 -19 -77 -47 -92 -84
-7 -16 -27 -34 -49 -45 -24 -10 -47 -32 -62 -57 -28 -46 -42 -62 -92 -101 -23
-17 -41 -42 -48 -67 -8 -27 -23 -47 -45 -61 -30 -18 -74 -88 -74 -118 0 -7
-14 -24 -30 -38 -37 -31 -60 -73 -60 -109 0 -16 -10 -34 -25 -46 -31 -24 -51
-61 -61 -113 -4 -21 -21 -58 -38 -82 -21 -30 -31 -57 -32 -87 -1 -28 -11 -57
-29 -84 -22 -33 -27 -53 -26 -93 0 -38 -5 -59 -22 -83 -17 -24 -22 -46 -23
-96 0 -42 -7 -77 -19 -99 -13 -27 -16 -48 -12 -90 5 -40 2 -69 -10 -99 -13
-36 -14 -51 -5 -93 9 -38 9 -60 0 -94 -10 -36 -9 -54 1 -87 14 -49 15 -56 6
-119 -6 -35 -3 -55 12 -85 15 -29 18 -48 12 -74 -9 -39 3 -95 25 -125 10 -13
13 -31 10 -51 -7 -40 11 -106 35 -128 13 -12 19 -32 20 -67 1 -51 18 -96 45
-118 9 -8 16 -29 16 -48 0 -44 21 -92 54 -122 16 -16 26 -35 26 -53 0 -37 20
-75 59 -112 17 -17 31 -38 31 -49 0 -34 31 -85 65 -108 20 -14 36 -35 39 -52
8 -39 42 -84 76 -102 17 -9 33 -28 40 -49 11 -35 63 -89 97 -100 10 -4 27 -26
38 -49 15 -31 33 -49 68 -68 27 -14 57 -39 67 -56 23 -39 63 -70 100 -78 17
-4 30 -11 30 -15 0 -21 73 -80 111 -90 25 -7 52 -24 67 -42 28 -32 77 -58 113
-58 11 0 30 -11 41 -25 25 -32 63 -52 108 -56 20 -2 54 -18 78 -36 26 -19 57
-34 75 -34 18 -1 39 -2 47 -3 8 -1 30 -12 49 -25 23 -17 52 -26 90 -29 31 -2
79 -15 109 -29 40 -19 61 -24 90 -19 26 4 52 -1 89 -16 45 -18 59 -20 97 -11
30 7 50 7 62 0 35 -20 98 -26 134 -13 28 10 42 10 65 0 40 -17 78 -17 120 0
28 12 45 13 87 4 45 -9 59 -8 93 7 26 12 59 17 96 16 42 -2 68 3 99 19 23 12
56 21 73 20 59 -3 74 0 109 24 23 15 54 25 91 28 40 3 65 12 91 31 19 15 47
27 63 27 38 1 109 34 125 59 8 13 23 21 41 21 39 0 92 27 120 60 15 17 38 30
63 34 27 6 51 20 80 51 23 23 58 48 78 55 35 11 96 62 96 81 0 5 22 20 49 34
49 24 85 60 96 94 3 10 23 26 44 35 24 11 47 33 62 58 27 46 42 62 91 99 21
16 39 43 48 68 8 27 24 48 44 61 34 20 59 59 70 104 4 15 21 40 38 54 32 28
58 77 58 113 0 11 11 30 25 41 32 25 52 63 56 108 2 19 16 51 31 70 26 34 52
115 42 132 -3 4 7 24 22 44 20 26 29 50 32 92 2 32 15 80 29 110 19 40 24 61
19 90 -4 26 1 52 16 89 18 45 20 59 11 97 -7 30 -7 50 0 62 20 35 26 98 13
134 -10 28 -10 42 0 65 17 40 17 78 0 120 -12 28 -13 45 -4 89 10 47 9 58 -9
94 -15 31 -19 54 -15 96 4 44 0 63 -17 92 -13 22 -22 52 -21 73 3 64 0 78 -24
113 -15 23 -25 54 -28 91 -3 40 -12 65 -31 91 -15 19 -27 47 -27 62 0 35 -37
112 -61 127 -11 7 -19 23 -19 40 0 37 -34 103 -64 122 -16 11 -26 29 -30 58
-5 31 -18 52 -50 83 -24 23 -49 57 -55 75 -14 40 -36 69 -74 93 -15 10 -36 38
-47 62 -13 31 -32 52 -64 72 -25 15 -50 39 -57 55 -14 34 -71 85 -104 93 -14
3 -25 11 -25 16 0 24 -44 68 -88 89 -26 12 -60 37 -75 56 -31 36 -75 63 -105
63 -10 0 -29 14 -41 31 -24 33 -91 68 -128 69 -12 0 -26 6 -30 14 -17 29 -86
66 -123 66 -25 0 -43 7 -56 21 -28 31 -68 49 -109 49 -22 0 -51 10 -77 28 -31
20 -55 27 -95 29 -35 1 -65 9 -89 23 -26 17 -54 23 -102 25 -37 1 -87 10 -112
19 -35 14 -52 15 -84 7 -30 -7 -46 -6 -67 5 -32 16 -96 18 -132 5 -17 -7 -38
-5 -71 7 -43 16 -49 16 -93 0 -36 -13 -58 -15 -88 -8 -40 9 -120 -3 -130 -20
-3 -5 -31 -6 -63 -3 -45 4 -66 1 -93 -13 -19 -10 -65 -21 -102 -25 -44 -4 -78
-13 -95 -26 -17 -12 -49 -22 -84 -25 -42 -3 -66 -12 -93 -32 -20 -16 -39 -25
-43 -21 -16 16 -149 371 -142 380 6 9 -93 301 -114 334 -7 11 -30 12 -110 8
l-101 -7 -36 43 c-28 34 -66 125 -193 461 -89 237 -170 438 -187 463 -17 24
-36 63 -43 87 l-14 44 186 87 c230 108 209 101 231 80 16 -14 26 -15 57 -6 37
10 41 9 103 -39 36 -28 72 -50 80 -51 9 0 41 -4 71 -8 l55 -8 52 56 c36 38 51
62 47 74 -7 21 -6 21 56 -3 44 -17 51 -18 56 -5 4 8 12 15 18 15 33 0 118 -34
180 -71 l68 -41 29 28 c16 15 29 33 29 40 0 16 -75 81 -120 104 -19 9 -59 25
-87 34 -31 11 -53 23 -53 32 0 8 -16 39 -36 68 l-36 54 22 22 c26 26 50 80 50
112 0 34 -38 105 -67 124 -15 9 -42 20 -61 25 -56 12 -67 7 -291 -137 -49 -31
-708 -324 -730 -324 -6 0 -11 5 -11 11 0 17 -128 6 -165 -14 -17 -9 -41 -25
-54 -35 l-23 -19 57 -179 c49 -154 57 -191 59 -264 1 -47 5 -99 10 -116 l8
-32 -433 -107 c-865 -213 -3124 -775 -3137 -780 -12 -4 -20 9 -36 61 -6 18 1
23 53 37 l59 17 4 62 c2 35 2 66 -1 69 -4 4 -42 -4 -85 -17 -44 -13 -83 -21
-86 -17 -4 5 -12 26 -18 48 -16 60 -239 825 -383 1316 -39 132 -69 242 -67
244 6 6 214 35 328 45 160 14 263 12 345 -6 236 -51 269 -52 285 -8 20 53 -31
119 -133 171 -119 60 -413 77 -760 44 -199 -19 -246 -21 -365 -11 -164 13
-278 26 -391 45 -90 16 -288 19 -335 5z m4958 -1612 c-7 -11 -2366 -2912
-2385 -2932 -4 -5 -37 -1 -76 8 -42 11 -107 18 -170 18 -57 0 -103 2 -103 4 0
2 -126 466 -280 1031 -154 564 -280 1032 -280 1040 0 7 3 13 6 13 11 0 3279
822 3283 826 9 8 12 3 5 -8z m-3531 -1038 c14 -52 75 -270 136 -485 60 -214
148 -529 196 -700 48 -170 111 -395 141 -499 29 -104 53 -190 51 -191 -1 -1
-77 -5 -169 -8 l-166 -6 1 52 c0 33 -6 65 -18 87 -11 21 -19 57 -20 91 -1 44
-6 64 -26 90 -18 24 -26 48 -28 82 -1 50 -19 94 -45 116 -9 8 -16 28 -16 46 0
43 -22 94 -54 124 -16 15 -26 35 -26 53 0 38 -22 80 -60 111 -17 15 -30 35
-30 49 0 31 -32 81 -69 108 -18 14 -32 35 -35 55 -6 32 -67 105 -87 105 -6 0
-19 20 -30 44 -19 44 -63 89 -96 100 -10 4 -26 23 -35 44 -10 20 -31 46 -47
57 l-29 20 261 281 c144 155 265 279 268 275 3 -3 18 -49 32 -101z m-2012
-365 c197 -13 449 -84 649 -184 126 -62 293 -168 288 -182 -2 -4 -226 -247
-498 -539 l-494 -530 -22 21 c-18 17 -26 19 -44 9 -17 -9 -26 -8 -44 4 -21 13
-26 13 -46 -1 -17 -12 -27 -13 -45 -5 -19 9 -26 7 -41 -9 -12 -13 -28 -19 -48
-17 -24 2 -33 -2 -41 -20 -6 -14 -18 -22 -30 -21 -36 2 -43 -1 -49 -25 -4 -18
-14 -26 -34 -28 -21 -2 -28 -9 -30 -31 -2 -19 -11 -31 -28 -37 -18 -7 -24 -17
-24 -39 0 -21 -7 -34 -21 -42 -16 -8 -20 -17 -16 -37 4 -18 -1 -34 -14 -48
-17 -18 -18 -25 -8 -48 10 -22 9 -29 -6 -46 -17 -19 -17 -21 0 -40 16 -17 16
-24 6 -47 -11 -24 -10 -29 10 -44 17 -12 20 -22 15 -42 -5 -21 -1 -30 20 -43
17 -12 24 -24 21 -36 -6 -20 17 -48 38 -48 8 0 15 -12 17 -27 2 -22 9 -29 31
-33 16 -3 33 -15 40 -30 10 -19 19 -24 39 -22 l27 3 -15 -53 c-16 -61 -18
-136 -4 -158 7 -11 34 -16 112 -18 130 -4 355 13 374 29 19 16 28 5 15 -19 -7
-14 -7 -24 3 -37 7 -10 11 -28 8 -41 -3 -17 0 -24 12 -24 51 0 -20 -65 -169
-153 -103 -62 -141 -78 -243 -106 -80 -22 -131 -41 -149 -58 -27 -23 -43 -25
-103 -11 -22 5 -15 -21 31 -116 22 -46 54 -94 74 -112 35 -31 115 -60 185 -66
30 -3 35 0 38 19 3 17 10 23 29 23 32 0 1400 109 1431 114 12 2 22 0 22 -5 0
-15 -183 -200 -259 -261 -443 -358 -1018 -500 -1566 -387 -1101 225 -1761
1369 -1403 2434 219 655 778 1132 1468 1256 82 14 278 27 350 23 30 -2 94 -6
141 -9z m8019 -6 c115 -13 326 -66 435 -109 626 -248 1056 -775 1177 -1440 30
-166 30 -457 -1 -624 -35 -195 -82 -340 -165 -511 -373 -765 -1223 -1184
-2059 -1015 -689 140 -1242 654 -1435 1335 -118 412 -84 863 93 1267 109 249
293 494 497 664 86 71 208 159 212 152 1 -1 166 -414 366 -915 200 -502 366
-913 369 -913 3 0 51 16 106 36 70 25 119 36 165 37 57 2 72 6 104 32 21 17
48 37 61 45 21 13 23 20 18 70 -12 144 -90 223 -207 207 l-42 -6 -109 287
c-60 158 -193 509 -297 781 -103 272 -188 500 -188 507 0 8 39 25 98 43 259
80 512 102 802 70z m-6859 -546 c234 -240 399 -532 479 -849 16 -65 30 -124
30 -130 0 -12 -61 -15 -575 -34 -626 -23 -877 -28 -906 -18 -21 7 -29 16 -29
33 0 13 -7 28 -16 33 -13 7 73 105 461 521 263 281 481 511 484 511 4 0 36
-30 72 -67z m1394 -1015 c10 -31 9 -53 -2 -54 -7 -1 -17 -2 -21 -3 -5 0 -14
-12 -20 -26 -7 -15 -20 -25 -32 -25 -14 0 -24 -10 -31 -30 -7 -20 -18 -30 -30
-30 -13 0 -24 -10 -30 -29 -6 -16 -21 -37 -35 -46 -14 -9 -24 -25 -24 -40 0
-14 -8 -29 -20 -35 -13 -7 -20 -21 -20 -39 0 -16 -7 -34 -16 -42 -11 -9 -14
-22 -10 -41 4 -23 2 -28 -13 -28 -14 0 -17 6 -14 24 3 12 0 40 -5 60 -8 26 -7
53 1 92 9 46 9 63 -4 98 -10 29 -12 51 -7 72 5 16 7 50 4 76 l-5 47 147 4 c81
1 155 4 165 5 10 1 20 -4 22 -10z m-871 -55 c10 -47 18 -357 9 -369 -6 -8
-196 8 -699 59 -678 70 -691 71 -708 95 -16 21 -17 27 -5 49 12 22 11 26 -10
42 -17 13 -21 23 -16 43 5 21 2 30 -14 40 -12 7 -21 16 -21 20 0 5 64 8 143 8
131 0 393 9 882 29 105 4 245 9 311 9 l122 2 6 -27z m-824 -498 c294 -31 545
-58 558 -61 12 -2 22 -11 22 -18 0 -47 102 -110 169 -104 33 2 36 1 33 -22
-21 -160 -272 -661 -337 -674 -11 -3 -356 -31 -766 -63 l-747 -58 2 36 c1 21
8 44 16 54 11 14 11 18 -2 31 -31 31 -11 58 70 94 41 19 119 62 171 95 53 34
132 84 175 110 44 27 99 68 124 92 44 41 45 44 46 105 1 89 -23 118 -169 199
-118 66 -143 94 -87 101 21 2 28 9 30 30 2 20 10 30 28 34 24 6 28 13 24 48
-3 27 19 37 65 32 22 -3 281 -30 575 -61z m1389 -241 c17 -12 21 -22 16 -41
-4 -19 0 -32 15 -48 15 -16 20 -30 15 -44 -4 -15 1 -24 20 -37 15 -10 25 -26
25 -40 0 -16 8 -28 24 -35 14 -7 26 -23 30 -40 4 -21 11 -29 26 -29 14 0 24
-10 31 -30 8 -22 17 -30 35 -30 16 0 28 -8 36 -25 8 -18 19 -25 38 -25 18 0
31 -8 40 -26 12 -21 19 -25 42 -20 20 4 31 0 42 -15 11 -17 21 -20 45 -14 20
4 31 3 31 -4 0 -6 -6 -11 -12 -11 -7 0 -179 -16 -383 -34 -203 -19 -371 -33
-372 -32 -1 1 4 20 12 41 8 22 14 49 15 61 0 11 9 29 20 39 26 24 54 98 48
130 -3 15 1 30 9 37 27 22 46 72 44 121 0 35 5 56 19 74 11 14 22 40 26 59 7
38 26 44 63 18z"/>
</g>
</svg>
