<?xml version="1.0" standalone="no"?>
<!DOCTYPE svg PUBLIC "-//W3C//DTD SVG 20010904//EN"
 "http://www.w3.org/TR/2001/REC-SVG-20010904/DTD/svg10.dtd">
<svg version="1.0" xmlns="http://www.w3.org/2000/svg"
 width="1280.000000pt" height="961.000000pt" viewBox="0 0 1280.000000 961.000000"
 preserveAspectRatio="xMidYMid meet">
<metadata>
Created by potrace 1.15, written by Peter Selinger 2001-2017
</metadata>
<g transform="translate(0.000000,961.000000) scale(0.100000,-0.100000)"
fill="#4caf50" stroke="none">
<path d="M6305 9600 c-44 -5 -159 -13 -255 -19 -96 -6 -204 -17 -240 -25 -36
-8 -130 -19 -210 -25 -80 -6 -183 -18 -230 -26 -174 -32 -267 -45 -339 -45
-56 0 -95 -7 -165 -31 -61 -21 -115 -33 -163 -35 -40 -1 -81 -8 -93 -14 -11
-6 -65 -15 -119 -19 -108 -10 -122 -15 -165 -60 -25 -26 -35 -30 -62 -25 -25
4 -41 1 -63 -15 -18 -13 -44 -21 -69 -21 -31 0 -51 -8 -89 -38 -52 -41 -110
-65 -213 -88 -36 -8 -117 -39 -180 -68 -63 -30 -129 -59 -147 -66 -18 -7 -38
-18 -44 -26 -6 -8 -33 -26 -60 -40 -26 -15 -59 -44 -73 -64 -22 -33 -31 -39
-76 -45 -29 -4 -62 -16 -78 -29 -15 -13 -54 -40 -87 -61 -76 -48 -230 -205
-289 -295 -25 -38 -59 -84 -74 -102 -42 -49 -72 -102 -96 -172 -12 -34 -34
-78 -48 -97 -103 -137 -267 -663 -298 -956 -6 -54 -17 -125 -25 -158 -36 -152
-52 -488 -70 -1480 -8 -451 -19 -1016 -25 -1255 -5 -239 -13 -600 -16 -802 -5
-266 -10 -372 -19 -384 -20 -28 -53 -11 -158 79 -93 81 -197 147 -231 147 -8
0 -58 29 -111 65 -52 36 -98 65 -103 65 -4 0 -32 18 -61 40 -29 22 -78 47
-110 56 -32 9 -79 34 -111 58 -77 59 -76 59 -154 67 -39 4 -102 17 -141 29
-62 19 -88 21 -220 17 -130 -3 -160 -7 -225 -30 -41 -14 -106 -33 -145 -42
-38 -9 -86 -26 -105 -39 -20 -13 -59 -35 -88 -50 -109 -55 -161 -127 -162
-222 0 -148 75 -408 161 -549 19 -31 64 -92 100 -135 37 -43 81 -100 98 -126
77 -114 300 -331 539 -525 57 -46 158 -128 225 -183 67 -54 149 -117 182 -139
33 -22 78 -56 100 -77 22 -20 65 -52 95 -70 30 -19 91 -62 135 -96 44 -34 112
-82 150 -106 109 -71 335 -185 390 -199 73 -18 381 -150 466 -200 40 -23 91
-48 113 -55 23 -6 114 -39 203 -73 89 -34 166 -61 170 -61 4 0 46 -23 93 -50
47 -28 96 -53 110 -56 14 -3 77 -31 140 -61 111 -54 240 -102 385 -145 133
-39 180 -56 265 -94 84 -37 86 -38 200 -36 89 2 120 -1 135 -13 11 -8 32 -15
46 -15 15 0 78 -13 140 -29 63 -16 161 -36 219 -45 58 -8 132 -24 165 -34 139
-44 197 -52 500 -63 373 -14 1130 -12 1410 3 284 16 530 15 578 -1 33 -11 49
-10 120 7 54 14 135 23 237 27 200 9 237 16 345 69 105 51 182 76 239 76 23 0
82 11 131 24 50 13 113 27 140 31 28 3 73 17 100 30 28 13 98 35 155 50 58 14
141 39 185 55 44 16 118 39 164 50 46 12 113 33 148 47 57 23 70 25 97 15 70
-25 127 -8 209 62 64 54 154 96 225 103 41 5 57 11 70 30 42 60 49 65 97 74
28 5 75 26 109 49 83 53 127 70 183 70 43 0 51 4 75 34 32 39 157 106 199 106
17 0 40 12 61 31 40 37 178 129 193 129 6 0 26 11 45 25 19 14 59 34 89 46 31
11 88 41 126 66 39 24 140 90 225 145 85 55 174 115 196 134 23 18 81 57 128
87 95 58 229 181 566 518 223 224 211 207 356 495 60 120 66 137 71 210 14
207 -65 345 -251 438 -105 53 -181 67 -412 73 -241 7 -377 -6 -445 -41 -46
-24 -47 -24 -75 -5 l-28 18 -41 -44 c-28 -32 -68 -59 -135 -91 -52 -25 -120
-61 -150 -79 -30 -18 -67 -36 -81 -40 -14 -3 -55 -32 -90 -62 -80 -71 -176
-133 -203 -133 -20 0 -21 5 -21 138 0 108 -4 148 -19 191 -25 73 -90 138 -146
147 l-40 7 0 1011 c-1 556 -5 1085 -10 1176 -5 91 -17 311 -25 490 -17 358
-38 656 -60 855 -8 72 -21 211 -30 310 -9 99 -22 200 -30 225 -7 25 -16 83
-20 130 -4 46 -11 93 -16 103 -6 10 -16 60 -24 112 -9 57 -24 114 -39 144 -25
49 -67 91 -92 91 -7 0 -20 10 -28 23 -9 12 -52 76 -96 142 -93 141 -164 218
-257 280 -37 25 -97 70 -133 101 -134 115 -165 139 -247 190 -45 29 -126 76
-179 105 -53 28 -110 64 -128 79 -17 15 -49 33 -71 40 -22 7 -75 32 -117 56
-42 23 -144 65 -225 94 -489 172 -561 192 -913 255 -113 20 -227 42 -255 50
-27 8 -104 17 -170 20 -66 4 -181 15 -255 25 -74 11 -252 24 -395 30 -143 6
-287 16 -320 21 -96 16 -135 18 -220 9z m-337 -154 c11 -10 10 -15 -3 -26 -22
-18 -98 -24 -125 -10 -20 11 -21 14 -7 27 31 31 106 36 135 9z m448 -31 c38
-40 42 -41 106 -18 45 16 49 16 82 -2 l34 -19 36 32 c59 51 95 51 158 0 l28
-22 49 24 c27 12 56 20 65 17 8 -3 20 -24 26 -45 12 -46 50 -68 102 -59 49 8
635 -72 833 -114 155 -32 342 -88 407 -120 21 -11 49 -19 63 -19 14 0 47 -11
73 -24 26 -13 72 -31 102 -41 167 -53 447 -189 660 -320 47 -29 117 -70 155
-93 105 -60 189 -125 295 -228 111 -108 223 -241 280 -334 84 -136 172 -417
219 -700 41 -249 77 -907 101 -1860 12 -482 13 -2122 1 -2173 -14 -58 -70 -90
-86 -49 -7 17 -7 400 0 411 6 11 -14 1799 -25 2206 -27 999 -67 1453 -155
1765 -19 68 -35 128 -35 133 0 5 -15 34 -33 65 -18 31 -43 81 -55 110 -64 157
-375 488 -552 589 -25 14 -97 56 -160 93 -173 101 -312 173 -443 230 -65 27
-143 63 -175 79 -74 37 -205 84 -362 127 -184 52 -186 52 -295 69 -55 9 -133
26 -174 37 -76 22 -93 20 -115 -15 -17 -26 4 -49 55 -63 24 -6 62 -19 84 -28
22 -10 90 -28 150 -40 153 -32 378 -94 450 -123 33 -14 84 -31 113 -39 29 -8
134 -50 233 -94 99 -44 183 -80 185 -80 12 0 266 -132 329 -170 209 -128 391
-300 533 -503 52 -75 154 -314 186 -440 75 -289 108 -749 136 -1912 13 -514
12 -1397 0 -1830 -7 -220 -6 -373 0 -458 13 -162 7 -182 -60 -182 l-45 0 1
140 c3 340 -18 2623 -26 2930 -12 416 -35 872 -50 974 -34 238 -90 445 -153
566 -66 126 -229 364 -293 428 -136 135 -352 286 -519 364 -129 61 -165 72
-165 51 0 -20 35 -50 100 -84 68 -36 298 -208 403 -301 158 -141 293 -312 376
-480 61 -123 95 -220 136 -397 42 -183 48 -287 20 -381 -16 -58 -16 -59 5 -75
26 -19 33 -82 51 -450 14 -271 18 -1691 7 -2763 -6 -625 -4 -606 -64 -593
l-29 6 3 988 c4 951 -9 2179 -28 2637 -16 404 -53 639 -132 842 -25 66 -37 84
-59 94 -16 6 -35 9 -44 5 -19 -7 -20 -65 -1 -103 75 -150 152 -631 163 -1018
11 -366 14 -2423 5 -2921 -10 -541 -9 -534 -74 -569 -36 -19 -37 -19 -58 0
-21 19 -21 19 -58 -23 -38 -43 -104 -78 -124 -66 -13 8 -5 931 13 1509 12 382
8 810 -12 1254 -12 279 -21 325 -61 319 -22 -3 -23 -8 -28 -113 -5 -109 -4
-147 20 -550 9 -163 9 -356 1 -865 -7 -360 -16 -727 -22 -815 -6 -88 -12 -297
-14 -465 -4 -347 3 -320 -98 -339 -34 -7 -111 -25 -172 -41 -60 -16 -146 -34
-190 -40 -44 -6 -119 -20 -168 -31 -108 -24 -478 -82 -652 -103 -471 -56
-1516 -83 -2160 -56 -132 5 -350 14 -485 20 -147 6 -295 18 -370 30 -69 11
-219 33 -335 50 -115 16 -262 41 -325 55 -63 14 -149 32 -190 39 -112 22 -158
35 -230 67 -36 16 -110 38 -165 50 -92 19 -184 45 -194 55 -17 16 -18 2095 -1
2668 10 366 16 448 45 661 8 61 17 155 21 210 6 91 5 105 -15 143 l-22 43 27
47 c25 42 26 49 16 89 -17 64 -14 132 8 182 26 57 26 107 1 121 -45 24 -109
-35 -97 -88 18 -73 18 -83 -13 -157 -18 -42 -32 -88 -32 -103 0 -15 3 -139 5
-277 2 -137 0 -329 -5 -425 -5 -96 -16 -809 -24 -1585 -10 -928 -18 -1423 -26
-1448 -12 -44 -26 -52 -74 -43 l-35 7 0 502 c0 729 18 2126 30 2382 14 286 38
642 50 727 5 36 17 87 25 112 13 37 13 53 4 92 -9 35 -9 55 -1 78 6 17 16 90
21 161 6 72 15 146 21 165 6 19 13 90 17 158 5 109 4 122 -10 122 -19 0 -64
-84 -90 -165 -9 -27 -21 -93 -27 -145 -5 -52 -16 -144 -24 -205 -8 -60 -17
-202 -20 -315 -4 -113 -13 -351 -21 -530 -21 -478 -33 -992 -45 -1950 -11
-875 -20 -1110 -41 -1136 -16 -20 -42 -17 -68 8 -22 20 -23 26 -16 87 4 36 9
314 10 616 2 303 8 658 14 790 6 132 16 434 21 670 5 237 12 464 15 505 3 41
10 201 15 355 14 376 27 554 56 780 13 105 24 216 24 247 0 32 12 118 26 190
22 113 36 155 92 278 37 80 88 177 115 217 51 75 58 115 24 121 -23 5 -89 -64
-135 -141 -72 -119 -143 -338 -186 -567 -34 -182 -33 -174 -61 -685 -34 -607
-40 -673 -67 -703 -27 -28 -50 -25 -59 8 -12 43 -9 179 6 315 7 72 19 195 24
275 6 80 17 186 25 235 8 50 20 173 26 275 18 309 46 466 120 664 97 263 165
363 399 585 155 147 188 192 136 183 -28 -5 -145 -96 -245 -189 -174 -164
-274 -328 -388 -638 -72 -198 -128 -547 -142 -900 -6 -132 -17 -305 -25 -385
-8 -80 -20 -233 -25 -340 -5 -107 -14 -265 -20 -350 -5 -85 -17 -487 -25 -895
-24 -1192 -33 -1437 -50 -1455 -27 -26 -49 -1 -56 66 -8 77 8 1442 21 1824 31
885 110 1898 171 2203 55 277 201 595 367 804 49 62 182 179 307 272 104 77
268 177 307 186 29 7 68 40 68 57 0 7 -19 9 -53 6 -52 -4 -145 -53 -333 -174
-135 -86 -333 -276 -447 -429 -97 -130 -224 -423 -283 -652 -65 -258 -161
-1393 -177 -2113 -2 -107 -6 -131 -25 -167 l-22 -43 25 -38 c25 -38 25 -40 11
-98 -11 -47 -16 -210 -21 -804 -4 -410 -10 -770 -14 -800 -6 -56 -20 -70 -51
-50 -17 11 -17 181 0 1025 5 270 12 634 15 810 3 176 8 349 10 385 3 36 14
262 25 503 11 241 29 517 39 615 11 97 25 231 31 297 13 139 62 429 91 542 46
179 133 396 209 524 113 190 358 434 557 553 167 100 586 275 808 339 203 57
229 74 146 97 -22 6 -42 17 -45 25 -13 36 80 67 389 129 256 52 407 75 710
111 404 47 470 56 535 75 36 10 74 20 85 22 13 2 21 12 23 28 6 40 21 50 75
50 44 0 53 -4 83 -35z m-646 6 c0 -15 -131 -41 -232 -47 -51 -3 -143 -17 -205
-31 -92 -22 -114 -25 -127 -14 -9 7 -14 17 -11 21 10 17 147 41 410 73 64 8
165 7 165 -2z m-675 -82 c7 -10 -21 -49 -36 -49 -11 0 -22 38 -14 50 8 13 42
13 50 -1z m2734 -3 c18 -21 -11 -41 -38 -26 -24 12 -27 26 -8 33 22 9 34 7 46
-7z m236 -16 c28 -22 48 -30 79 -30 45 0 113 -27 135 -53 12 -15 10 -17 -25
-17 -44 0 -187 32 -239 54 -36 16 -46 41 -23 64 18 18 32 15 73 -18z m-3235
-45 c0 -22 -34 -35 -94 -35 -65 0 -71 11 -18 33 49 21 112 22 112 2z m-255
-65 c10 -16 -32 -49 -72 -55 -21 -4 -77 -20 -126 -36 -48 -16 -97 -29 -109
-29 -12 0 -40 -11 -62 -24 -23 -13 -56 -26 -74 -29 -18 -4 -67 -22 -109 -42
-42 -19 -82 -35 -89 -35 -18 0 -18 44 -1 58 16 13 192 78 236 87 19 4 69 22
110 40 80 33 195 64 278 74 6 0 14 -3 18 -9z m3860 -4 c24 -17 13 -46 -18 -46
-34 0 -54 25 -37 45 15 19 31 19 55 1z m111 -51 c18 -14 18 -14 -8 -15 -18 0
-28 5 -28 15 0 19 11 19 36 0z m134 -45 c26 -26 18 -42 -16 -30 -69 27 -85 50
-34 50 17 0 39 -9 50 -20z m91 -65 c0 -16 -33 -18 -42 -4 -4 7 -6 16 -3 21 6
10 46 -5 45 -17z m-4293 -4 c21 -13 -31 -48 -97 -67 -87 -24 -183 -62 -351
-137 -85 -38 -201 -89 -258 -112 -298 -125 -551 -332 -740 -605 -141 -204
-160 -225 -176 -183 -17 43 193 369 296 462 69 62 146 119 172 127 12 4 39 23
61 43 22 20 68 54 103 75 34 21 62 42 62 46 0 4 18 15 41 24 22 9 131 58 242
110 214 99 447 189 550 211 76 17 79 17 95 6z m4432 -8 c31 -21 40 -33 40 -55
0 -28 -61 -24 -94 7 -55 50 -9 91 54 48z m-5070 -88 c0 -9 -21 -29 -46 -45
-59 -37 -359 -190 -373 -190 -27 0 -6 23 65 71 42 28 83 59 92 70 9 10 21 19
27 19 5 0 53 20 105 45 102 47 130 54 130 30z m5244 -3 c8 -14 157 -99 206
-118 41 -16 130 -70 130 -79 0 -2 3 -10 6 -19 5 -12 0 -16 -20 -16 -32 0 -70
19 -136 66 -25 18 -64 42 -86 51 -36 17 -104 55 -162 90 -12 8 -20 18 -17 23
8 12 72 13 79 2z m435 -277 c16 -8 59 -39 96 -70 37 -30 72 -55 78 -55 18 0
150 -106 208 -167 61 -64 187 -230 225 -296 28 -49 31 -95 7 -104 -22 -8 -66
44 -82 97 -26 88 -279 371 -431 482 -72 53 -152 128 -136 128 4 0 20 -7 35
-15z m-6199 -3 c0 -10 -22 -32 -32 -32 -13 0 -9 28 5 33 19 8 27 8 27 -1z
m-380 -366 c0 -14 -27 -42 -34 -35 -2 2 0 14 5 27 9 24 29 30 29 8z m-80 -116
c0 -22 -14 -40 -31 -40 -21 0 -26 29 -8 47 12 12 39 7 39 -7z m-60 -119 c-6
-12 -15 -19 -21 -16 -13 8 -11 29 3 43 18 18 32 -2 18 -27z m-45 -71 c14 -23
-54 -105 -72 -87 -8 8 6 43 28 71 22 28 34 32 44 16z m7459 -114 c38 -37 122
-320 155 -519 69 -413 130 -1750 84 -1832 -10 -17 -13 -13 -26 35 -21 75 -24
119 -47 655 -28 653 -42 850 -76 1085 -29 197 -87 424 -125 486 -10 17 -19 47
-19 66 0 55 17 62 54 24z m-7367 -68 c-3 -18 -24 -87 -47 -153 -64 -188 -121
-427 -150 -635 -6 -41 -20 -199 -30 -350 -11 -151 -24 -336 -30 -410 -14 -189
-46 -1184 -65 -2020 -9 -388 -19 -729 -23 -759 -7 -53 -31 -86 -49 -67 -12 12
-8 1018 5 1441 7 204 17 512 22 685 19 610 46 1077 76 1313 8 64 19 168 24
230 11 128 76 404 139 591 50 147 62 166 102 166 30 0 31 -2 26 -32z m-306
-411 c-16 -16 -26 20 -10 40 13 15 14 14 17 -7 2 -12 -1 -27 -7 -33z m-15 -92
c7 -17 -21 -65 -37 -65 -18 0 -21 30 -5 55 19 28 34 32 42 10z m-37 -211 c1
-31 -19 -60 -32 -47 -11 10 -8 59 4 90 10 26 12 27 19 8 5 -11 9 -34 9 -51z
m-111 -176 c4 -20 -35 -35 -51 -19 -7 7 -6 15 3 26 16 19 44 16 48 -7z m95
-17 c-1 -36 -25 -67 -42 -57 -15 10 -14 69 1 84 23 23 43 9 41 -27z m-46 -248
c-3 -10 -5 -2 -5 17 0 19 2 27 5 18 2 -10 2 -26 0 -35z m4 -175 c-2 -136 -26
-238 -52 -222 -21 13 -3 258 23 308 19 35 31 -1 29 -86z m-29 -574 c10 -21 9
-31 -3 -52 -22 -40 -44 -35 -43 10 2 69 24 90 46 42z m666 -137 l34 -62 -11
-350 c-6 -193 -13 -453 -16 -580 -27 -1137 -38 -1502 -43 -1542 -7 -47 -8 -48
-42 -48 -53 0 -60 24 -54 185 3 74 9 455 14 845 13 915 38 1573 62 1602 17 20
21 17 56 -50z m-690 -129 c-3 -47 -21 -55 -26 -12 -4 31 4 54 18 54 7 0 10
-17 8 -42z m2 -135 c0 -10 -4 -25 -10 -33 -8 -12 -10 -12 -16 3 -7 20 1 47 16
47 5 0 10 -8 10 -17z m8088 -25 c18 -22 22 -169 33 -1105 10 -937 9 -974 -27
-1004 -9 -7 -15 -5 -22 8 -5 10 -12 328 -16 748 -4 402 -11 860 -16 1020 -7
244 -6 293 6 317 16 31 26 35 42 16z m-8099 -333 c-4 -125 -8 -143 -30 -130
-13 9 -8 252 6 274 18 30 27 -25 24 -144z m-11 -252 c-3 -38 -24 -56 -34 -29
-9 24 4 66 22 66 11 0 14 -9 12 -37z m7 -228 c-8 -52 -34 -93 -46 -74 -12 20
-11 102 2 136 l11 28 20 -25 c16 -19 19 -33 13 -65z m-21 -436 c-2 -297 -13
-509 -30 -553 -16 -43 -24 19 -24 199 1 233 16 643 26 668 3 10 12 16 18 14 8
-3 11 -95 10 -328z m-1442 -751 c10 -9 19 -45 26 -109 7 -62 20 -120 37 -160
15 -35 32 -81 38 -103 11 -34 10 -40 -10 -56 -12 -10 -48 -21 -79 -25 -76 -9
-143 -30 -247 -77 -48 -22 -93 -38 -99 -36 -24 8 100 101 191 144 53 25 106
50 119 57 15 7 22 18 20 31 -3 18 -11 21 -62 24 -111 6 -343 -103 -438 -205
-116 -126 -130 -135 -148 -88 -18 48 20 107 100 153 25 14 66 45 91 68 56 51
75 59 255 113 150 45 176 60 154 85 -23 29 -143 19 -318 -26 -45 -12 -85 -18
-89 -15 -10 11 36 54 70 67 18 7 48 20 67 30 20 11 76 24 124 30 116 14 133
23 127 69 -6 39 37 56 71 29z m-474 -75 c-2 -10 -22 -27 -44 -38 -23 -11 -81
-62 -131 -114 -98 -104 -123 -113 -123 -46 0 55 65 114 180 164 14 6 41 20 60
31 43 25 62 26 58 3z m10142 -153 c0 -28 -27 -45 -45 -30 -20 17 -19 47 2 59
21 11 43 -3 43 -29z m1404 9 c30 -35 30 -40 14 -85 -17 -48 5 -68 100 -89 136
-30 486 -178 499 -210 11 -30 -20 -95 -46 -95 -4 0 -61 35 -126 77 -168 108
-395 198 -482 191 -80 -6 -25 -60 99 -98 81 -24 141 -53 225 -106 30 -20 79
-47 107 -59 58 -26 116 -84 116 -117 0 -28 -28 -58 -55 -58 -12 0 -58 31 -106
71 -188 158 -173 148 -328 209 -122 48 -156 49 -156 6 0 -26 10 -34 112 -91
118 -67 260 -159 355 -232 63 -48 81 -84 55 -110 -24 -24 -68 -8 -142 55 -150
126 -213 174 -275 211 -108 63 -171 77 -190 42 -16 -30 26 -71 140 -135 170
-97 316 -216 339 -279 9 -23 7 -31 -9 -47 -37 -37 -62 -26 -177 76 -112 100
-240 196 -308 233 -48 26 -110 28 -119 5 -11 -29 20 -59 129 -125 122 -73 252
-175 314 -245 43 -49 49 -79 20 -97 -27 -17 -84 20 -223 147 -141 128 -251
196 -313 196 -69 0 -47 -29 107 -140 160 -116 285 -223 300 -259 16 -41 0 -61
-47 -61 -31 0 -46 11 -127 92 -105 105 -267 238 -315 257 -27 12 -34 12 -47 0
-26 -27 14 -77 119 -149 150 -102 257 -211 257 -260 0 -68 -28 -52 -206 120
-139 134 -226 196 -260 183 -33 -13 -5 -47 152 -188 177 -158 217 -206 212
-252 -2 -23 -8 -29 -34 -31 -27 -3 -36 4 -71 50 -61 81 -277 293 -318 312 -25
12 -43 15 -61 9 -25 -8 -21 -14 130 -171 139 -145 196 -218 196 -252 0 -30
-44 4 -188 144 -86 84 -172 160 -189 170 -36 18 -69 21 -78 6 -3 -5 72 -90
168 -188 96 -97 179 -188 186 -201 26 -47 -14 -97 -56 -70 -10 6 -45 45 -78
86 -67 84 -208 222 -267 261 -36 23 -40 24 -55 9 -26 -26 -9 -56 102 -176 160
-172 200 -241 170 -288 -9 -12 -19 -23 -24 -23 -22 0 -72 55 -177 196 -114
153 -144 184 -176 184 -24 0 -40 -33 -29 -62 5 -13 40 -62 78 -109 165 -206
200 -283 139 -300 -50 -14 -74 8 -135 119 -67 121 -125 192 -176 217 -36 17
-38 16 -57 -3 -24 -24 -17 -40 47 -117 42 -51 124 -168 160 -230 24 -41 12
-72 -26 -67 -34 4 -44 15 -113 131 -104 172 -176 233 -184 158 -3 -28 36 -99
136 -246 45 -67 52 -105 20 -124 -33 -21 -63 7 -116 110 -66 128 -118 193
-154 193 -31 0 -45 -31 -33 -71 7 -20 64 -105 142 -209 37 -48 40 -85 10 -104
-30 -19 -68 13 -113 94 -52 96 -93 140 -128 140 -57 0 -47 -47 34 -160 64 -89
72 -116 39 -146 -33 -30 -38 -25 -165 176 -24 37 -34 45 -59 45 -28 0 -30 -2
-29 -37 1 -26 18 -67 54 -129 45 -78 52 -96 44 -118 -11 -29 -46 -40 -70 -20
-9 7 -33 48 -55 91 -43 85 -68 106 -105 89 -33 -15 -30 -40 11 -124 36 -72 46
-137 22 -137 -16 0 -47 40 -80 106 -14 27 -37 62 -52 77 -25 25 -30 26 -49 14
-34 -23 -30 -52 21 -146 45 -85 47 -91 31 -107 -25 -25 -62 -5 -96 52 -47 81
-62 95 -91 92 -41 -5 -40 -51 4 -134 32 -60 34 -69 21 -82 -13 -13 -18 -13
-40 2 -14 9 -34 33 -45 54 -27 52 -64 84 -93 80 -35 -5 -35 -45 2 -100 38 -58
36 -82 -7 -86 -28 -3 -36 3 -73 52 -22 31 -45 56 -50 56 -18 0 -30 -39 -30
-99 0 -34 -3 -61 -6 -61 -3 0 -22 14 -44 31 -21 17 -46 29 -57 27 -15 -3 -18
-11 -15 -59 5 -75 -12 -82 -73 -29 -58 50 -73 45 -77 -28 -4 -69 -20 -77 -71
-33 -55 49 -67 43 -93 -43 -5 -16 -17 -34 -27 -40 -15 -9 -24 -4 -56 33 -44
52 -65 50 -76 -6 -4 -20 -11 -46 -17 -56 -9 -18 -12 -17 -42 12 -29 28 -66 42
-66 24 0 -5 -9 -23 -20 -41 l-20 -33 -44 26 c-24 14 -51 23 -59 19 -16 -6 -19
-13 -31 -67 -8 -35 -27 -34 -69 3 -50 44 -77 37 -77 -20 0 -11 -9 -24 -20 -30
-15 -8 -25 -5 -53 20 -19 16 -41 30 -49 30 -9 0 -23 -20 -32 -45 -21 -53 -37
-56 -77 -14 -34 37 -46 74 -30 93 6 8 64 30 129 50 288 90 468 151 525 179 34
16 83 35 109 43 109 33 579 259 753 362 115 68 585 381 652 434 38 30 116 89
174 131 59 42 218 175 355 294 137 120 278 241 314 270 98 77 299 290 407 431
26 34 74 95 105 135 85 108 196 298 209 355 10 51 61 142 78 142 5 0 21 -14
35 -31z m484 2 c20 -10 46 -28 56 -40 l19 -21 -54 1 c-74 2 -110 11 -122 31
-8 12 -7 21 2 32 18 21 54 20 99 -3z m-1760 -13 c30 -30 0 -78 -37 -58 -32 17
-21 70 14 70 6 0 16 -5 23 -12z m-309 -90 c-15 -46 -34 -65 -42 -44 -8 20 9
75 30 98 17 19 18 19 22 2 2 -9 -3 -35 -10 -56z m-9209 -42 c6 -8 10 -25 8
-38 -2 -18 -9 -23 -33 -23 -24 0 -31 5 -33 23 -4 25 13 52 33 52 7 0 18 -7 25
-14z m8978 -29 c4 -33 -13 -57 -40 -57 -26 0 -33 24 -18 61 17 40 53 37 58 -4z
m2427 -17 c53 -26 85 -48 86 -59 6 -76 -36 -80 -141 -15 -100 61 -133 93 -118
112 19 22 78 9 173 -38z m-11245 22 c0 -23 -19 -42 -42 -42 -21 0 -24 30 -6
48 18 18 48 15 48 -6z m1230 -22 c12 -23 6 -40 -16 -40 -17 0 -28 24 -20 45 8
21 23 19 36 -5z m386 -7 c-10 -10 -19 5 -10 18 6 11 8 11 12 0 2 -7 1 -15 -2
-18z m109 1 c0 -10 -8 -20 -17 -22 -18 -3 -26 27 -11 42 12 11 28 0 28 -20z
m7323 -15 c15 -29 12 -191 -4 -196 -6 -2 -16 8 -22 21 -14 31 -27 169 -18 191
8 22 28 15 44 -16z m-8941 5 c8 -21 -13 -42 -28 -27 -13 13 -5 43 11 43 6 0
13 -7 17 -16z m-1164 -8 c3 -7 0 -19 -6 -25 -14 -14 -38 5 -30 25 7 18 29 18
36 0z m10418 -26 c13 -47 10 -135 -6 -156 -15 -19 -15 -19 -30 0 -16 21 -22
166 -8 180 14 13 37 1 44 -24z m954 -7 c17 -17 15 -67 -4 -86 -13 -13 -48 9
-57 35 -19 55 23 90 61 51z m-9851 -9 c21 -20 20 -30 -4 -54 -27 -27 -58 -25
-71 4 -23 50 36 90 75 50z m-720 -36 c24 -33 40 -60 149 -253 49 -86 166 -232
254 -317 10 -9 64 -61 120 -114 57 -54 105 -105 108 -115 3 -9 30 -33 59 -52
29 -20 111 -89 182 -154 166 -153 284 -253 299 -253 6 0 27 -16 46 -36 18 -20
67 -63 107 -96 39 -32 72 -65 72 -72 0 -7 -33 -29 -72 -49 -40 -20 -110 -65
-154 -101 -126 -99 -164 -114 -164 -62 0 30 118 152 194 201 57 36 73 69 40
82 -44 17 -199 -73 -294 -171 -56 -57 -87 -69 -110 -41 -33 40 44 130 185 215
86 53 109 80 88 101 -16 16 -136 -34 -204 -85 -35 -26 -91 -69 -124 -96 -66
-56 -95 -64 -95 -26 0 31 82 115 190 195 46 35 91 72 99 84 13 18 12 21 -3 33
-38 27 -161 -43 -285 -165 -102 -99 -161 -123 -161 -65 0 30 85 131 170 202
150 124 155 130 144 141 -18 20 -99 -7 -162 -54 -31 -23 -104 -85 -161 -139
-57 -53 -109 -95 -115 -93 -6 2 -12 18 -14 36 -3 30 6 42 100 135 57 56 132
122 168 147 72 50 86 82 37 87 -54 6 -209 -92 -339 -215 -48 -46 -85 -73 -99
-73 -24 0 -59 26 -59 45 0 6 80 71 177 145 204 155 253 197 253 216 0 20 -30
17 -104 -10 -98 -35 -197 -100 -295 -192 -49 -45 -98 -87 -109 -93 -28 -15
-52 -4 -52 26 0 50 67 111 318 288 84 60 99 85 63 105 -11 5 -29 34 -39 62
-25 65 -35 66 -165 10 -51 -21 -105 -42 -122 -46 -16 -4 -51 -27 -77 -52 -90
-84 -218 -152 -218 -115 0 23 148 143 255 207 119 72 175 114 175 133 0 41
-98 24 -216 -39 -85 -45 -124 -51 -124 -20 0 25 68 71 167 114 58 25 78 38 78
52 0 41 -121 26 -230 -29 -60 -29 -154 -95 -206 -142 -85 -79 -140 -92 -154
-38 -4 18 0 34 13 52 43 59 286 211 357 224 49 9 125 45 132 63 17 46 -84 45
-230 -2 -98 -32 -124 -46 -207 -109 -111 -84 -130 -95 -164 -95 -21 0 -26 5
-26 25 0 46 108 122 205 146 28 6 64 24 80 39 39 36 82 58 175 90 61 20 76 29
78 48 2 14 -3 25 -14 29 -27 10 -175 -17 -236 -44 -61 -27 -91 -27 -96 0 -6
28 15 44 86 68 86 27 212 87 212 99 0 22 41 8 64 -22z m306 -23 c18 -21 4 -68
-31 -101 -25 -24 -31 -26 -39 -14 -16 26 -11 76 11 104 23 29 41 33 59 11z
m1777 -31 c8 -21 -13 -42 -28 -27 -13 13 -5 43 11 43 6 0 13 -7 17 -16z m119
1 c3 -8 -1 -24 -10 -37 -9 -12 -16 -40 -16 -61 0 -25 -5 -40 -16 -44 -19 -7
-36 16 -28 37 4 8 11 33 17 55 5 22 11 46 13 53 5 17 33 15 40 -3z m6844 -62
c0 -89 -21 -111 -41 -43 -10 34 -9 46 6 80 23 50 35 37 35 -37z m-7082 40 c-4
-22 -38 -30 -49 -12 -11 19 -2 29 27 29 19 0 25 -5 22 -17z m8392 10 c-1 -19
-19 -35 -34 -30 -21 8 -9 37 15 37 10 0 19 -3 19 -7z m-8036 -72 c11 -63 -5
-111 -29 -91 -16 13 -22 130 -8 144 15 15 28 -3 37 -53z m-2935 0 c-30 -41
-95 -85 -114 -77 -18 7 -20 50 -2 64 23 19 132 60 135 52 2 -5 -7 -23 -19 -39z
m11086 17 c8 -22 -11 -73 -28 -76 -25 -5 -51 42 -37 67 12 23 58 29 65 9z
m-296 -7 c12 -8 13 -14 3 -36 -16 -34 -55 -32 -60 4 -5 34 26 51 57 32z
m-1716 -25 c9 -24 -4 -57 -22 -54 -20 4 -26 35 -11 53 16 19 26 19 33 1z
m-6022 -13 c4 -60 -13 -119 -31 -108 -15 9 -22 82 -10 104 13 26 40 28 41 4z
m-2864 -35 c-4 -14 -34 -44 -69 -71 -35 -25 -75 -56 -89 -68 -39 -32 -89 -8
-73 35 13 33 212 152 228 136 5 -5 6 -19 3 -32z m8651 -20 c2 -22 -3 -39 -12
-47 -31 -26 -46 11 -26 64 14 36 34 27 38 -17z m3332 23 c7 -14 7 -28 -1 -48
-17 -46 -268 -370 -319 -413 -47 -39 -70 -49 -70 -31 0 14 66 99 135 172 34
36 76 90 92 120 126 225 140 242 163 200z m-9581 -130 c-4 -117 -16 -161 -35
-129 -11 18 -6 211 7 244 20 55 31 10 28 -115z m575 113 c12 -32 6 -150 -9
-170 -23 -30 -35 -2 -35 83 0 79 6 103 25 103 7 0 16 -7 19 -16z m7074 -174
c3 -219 -10 -376 -33 -399 -33 -33 -37 3 -32 284 3 149 8 278 12 288 5 11 16
17 29 15 20 -3 21 -8 24 -188z m730 147 c2 -19 -1 -27 -13 -27 -19 0 -30 24
-21 46 9 23 31 11 34 -19z m-7688 -11 c0 -12 -7 -31 -15 -42 -14 -18 -14 -17
-15 13 0 39 9 65 21 57 5 -3 9 -15 9 -28z m7320 19 c21 -26 -3 -67 -37 -63
-14 2 -31 11 -37 21 -9 15 -7 22 13 38 28 23 44 24 61 4z m-9634 -29 c11 -45
1 -81 -24 -84 -51 -7 -65 46 -25 91 22 24 42 21 49 -7z m181 -28 c-8 -74 -35
-156 -58 -179 -15 -15 -24 -17 -39 -9 -11 6 -20 20 -20 31 0 29 46 137 75 175
37 49 49 44 42 -18z m362 43 c18 -11 5 -31 -20 -31 -12 0 -19 7 -19 20 0 21
16 26 39 11z m1895 -17 c11 -28 6 -110 -7 -128 -12 -16 -14 -16 -26 -2 -21 26
-39 99 -30 124 10 26 54 31 63 6z m-949 -24 c17 -33 12 -70 -10 -70 -16 0 -25
22 -25 59 0 24 7 41 16 41 2 0 11 -14 19 -30z m1059 14 c4 -9 2 -42 -4 -73 -5
-31 -9 -84 -8 -119 1 -36 -3 -67 -10 -74 -9 -9 -12 -8 -16 3 -7 23 -24 263
-19 271 8 15 51 8 57 -8z m4982 -274 c6 -232 -1 -299 -29 -271 -13 14 -15 452
-2 519 l8 37 8 -30 c5 -16 12 -131 15 -255z m2362 268 c19 -19 15 -128 -5
-150 -20 -23 -40 -23 -47 0 -14 52 -16 84 -6 121 11 42 33 54 58 29z m-8044
-20 c14 -52 4 -128 -16 -128 -13 0 -38 64 -38 98 0 49 42 72 54 30z m-1496
-14 c3 -19 -68 -246 -90 -287 -12 -23 -46 -19 -64 8 -14 22 -15 19 51 180 21
50 44 98 53 108 20 23 46 18 50 -9z m2304 4 c10 -18 13 -165 13 -690 0 -366
-3 -670 -8 -674 -4 -4 -13 -2 -20 5 -9 9 -13 84 -14 284 -3 387 -9 568 -22
600 -21 53 -70 22 -71 -45 0 -20 -4 -39 -9 -42 -14 -9 -21 31 -21 117 0 84 4
88 55 65 23 -10 29 -9 52 14 26 26 26 28 15 97 -13 74 -16 249 -6 275 9 22 21
20 36 -6z m4654 -3 c15 -23 15 -35 4 -118 -7 -50 -11 -149 -9 -220 3 -98 1
-127 -9 -127 -25 0 -34 57 -36 235 -1 238 10 291 50 230z m99 5 c17 -18 17
-35 11 -206 -7 -182 -17 -247 -36 -228 -12 12 -25 346 -16 407 8 52 14 56 41
27z m350 -6 c22 -23 15 -58 -12 -62 -16 -2 -26 4 -34 22 -22 47 11 75 46 40z
m-4971 -71 c4 -32 9 -67 12 -80 9 -33 -20 -30 -35 4 -16 34 -26 116 -17 138
12 31 33 -2 40 -62z m-698 41 c8 -30 -1 -191 -11 -216 -20 -50 -39 13 -40 132
0 41 3 83 7 93 11 26 37 21 44 -9z m814 -23 c0 -42 -9 -61 -30 -61 -19 0 -30
19 -30 54 0 29 8 36 37 36 19 0 23 -5 23 -29z m4164 -48 c8 -93 -5 -208 -23
-208 -25 0 -34 63 -22 161 6 51 14 99 17 108 11 30 22 6 28 -61z m132 20 c4
-32 3 -142 -3 -246 -9 -195 -20 -238 -45 -181 -14 32 -19 435 -6 467 4 9 16
17 27 17 16 0 21 -10 27 -57z m-5466 -11 c0 -54 -7 -67 -27 -51 -24 21 -14 99
13 99 10 0 14 -14 14 -48z m1274 32 c11 -29 6 -81 -9 -94 -21 -17 -40 27 -31
74 7 37 29 48 40 20z m3959 -110 c12 -187 5 -594 -11 -623 -13 -21 -15 -22
-30 -7 -14 14 -16 57 -17 369 0 289 3 357 14 371 27 33 36 11 44 -110z m-4991
79 c2 -43 -3 -86 -12 -102 -6 -11 -12 -7 -24 17 -9 17 -16 41 -16 52 0 54 49
85 52 33z m-1312 8 c0 -6 -5 -13 -10 -16 -15 -9 -43 3 -35 15 8 13 45 13 45 1z
m2470 -11 c15 -28 14 -854 -1 -882 -25 -47 -32 5 -41 314 -9 303 -6 557 7 578
10 16 23 12 35 -10z m-820 -16 c14 -37 12 -76 -6 -102 -22 -31 -34 -19 -34 36
0 86 20 119 40 66z m4525 -1 c4 -16 10 -185 14 -378 5 -245 11 -357 20 -373
12 -22 13 -22 41 -5 16 9 32 14 36 11 23 -24 26 -172 4 -208 -14 -22 -38 6
-47 53 -11 52 -38 62 -54 20 -8 -20 -8 -87 0 -248 10 -214 7 -275 -16 -282
-33 -11 -35 35 -34 724 1 376 4 690 8 698 8 23 20 18 28 -12z m-901 8 c3 -5
-1 -11 -9 -15 -15 -6 -29 7 -18 18 9 9 21 8 27 -3z m787 -34 c3 -20 8 -348 10
-728 4 -643 3 -693 -13 -703 -9 -5 -21 -7 -25 -2 -9 9 -17 1371 -8 1434 8 52
27 51 36 -1z m3037 -1 c12 -24 22 -52 22 -63 0 -25 -27 -50 -39 -37 -9 9 -31
102 -31 129 0 30 27 14 48 -29z m-9270 17 c11 -22 12 -18 -50 -175 -27 -70
-56 -132 -64 -139 -19 -16 -44 5 -44 37 0 26 80 232 105 270 18 28 41 31 53 7z
m7364 2 c0 -5 -5 -11 -11 -13 -6 -2 -11 4 -11 13 0 9 5 15 11 13 6 -2 11 -8
11 -13z m-4622 -10 c0 -8 0 -18 1 -22 0 -4 -4 -9 -9 -11 -12 -4 -24 26 -16 39
8 14 24 11 24 -6z m3374 -7 c10 -38 7 -345 -4 -373 -9 -23 -13 -25 -26 -14
-14 11 -15 39 -12 198 1 103 7 192 11 199 12 18 24 15 31 -10z m-3243 -23 c9
-43 10 -936 1 -1017 -8 -67 -16 -88 -29 -74 -4 4 -10 221 -14 484 -4 262 -10
507 -14 543 -7 78 0 101 29 97 14 -2 23 -13 27 -33z m4859 28 c0 -5 -5 -26
-12 -48 l-11 -40 -8 30 c-10 36 -3 65 17 65 8 0 14 -3 14 -7z m-7112 -12 c20
-12 11 -56 -12 -56 -27 0 -43 29 -27 49 15 18 21 19 39 7z m2487 -214 c0 -211
-7 -269 -28 -248 -18 18 -24 451 -6 462 29 18 34 -14 34 -214z m2907 -35 c8
-308 10 -1156 2 -1176 -9 -23 -31 -19 -38 7 -3 12 -9 326 -12 697 -6 687 -4
754 29 721 8 -8 14 -84 19 -249z m2178 223 c0 -27 -15 -41 -25 -25 -10 16 4
62 15 55 6 -3 10 -17 10 -30z m-2310 -12 c15 -47 32 -1389 18 -1416 -15 -29
-35 -19 -42 21 -9 56 -20 1287 -12 1365 4 37 12 67 16 67 5 0 14 -17 20 -37z
m-335 -718 c0 -398 -3 -727 -8 -731 -27 -27 -30 31 -38 623 -4 334 -10 654
-14 710 -5 95 -4 104 16 124 16 16 24 18 33 10 8 -9 11 -204 11 -736z m230
658 c-1 -85 -11 -111 -39 -100 -13 5 -16 23 -16 90 0 46 3 87 7 91 4 4 16 6
28 4 18 -3 20 -10 20 -85z m-2558 66 c12 -12 9 -614 -4 -729 -11 -110 -25 -11
-33 240 -17 493 -17 500 8 500 10 0 23 -5 29 -11z m2437 -5 c10 -26 6 -268 -4
-284 -16 -23 -37 11 -45 70 -7 52 2 170 16 208 10 26 24 29 33 6z m-3720 -9
c6 -17 -2 -45 -14 -45 -4 0 -10 8 -12 18 -9 34 13 59 26 27z m476 -39 c0 -30
-15 -56 -32 -56 -9 0 -11 71 -2 94 10 26 34 -1 34 -38z m582 -36 c3 -47 6
-205 7 -351 1 -332 -7 -400 -39 -340 -11 22 -27 738 -17 765 4 10 15 16 24 14
15 -3 19 -18 25 -88z m339 63 c24 -62 40 -1162 19 -1219 -10 -24 -13 -26 -26
-13 -12 13 -16 92 -24 480 -5 255 -12 535 -16 622 -7 156 -6 157 15 157 14 0
25 -9 32 -27z m121 -17 c5 -21 9 -338 11 -703 2 -618 1 -666 -15 -677 -9 -5
-19 -8 -21 -6 -3 3 -10 319 -16 704 -12 708 -11 734 23 723 6 -2 14 -21 18
-41z m115 -191 c-5 -191 -10 -235 -27 -235 -16 0 -22 51 -27 241 -5 179 -4
197 13 213 17 18 18 18 32 0 11 -16 13 -56 9 -219z m1055 -96 c4 -178 8 -510
10 -737 l3 -412 -26 0 -27 0 -7 283 c-8 352 -3 1168 8 1185 27 41 32 -1 39
-319z m689 314 c12 -15 13 -124 9 -708 -5 -677 -9 -756 -36 -714 -9 15 -19
1402 -10 1425 7 19 20 18 37 -3z m3160 -544 c-9 -160 -24 -219 -56 -219 -19 0
-19 62 0 280 8 91 19 232 25 314 6 82 16 158 23 170 16 28 21 -322 8 -545z
m-4658 369 c4 -90 8 -405 9 -701 3 -469 1 -539 -12 -547 -32 -20 -40 -11 -40
43 0 28 -5 329 -12 667 -6 338 -11 632 -11 653 1 47 18 70 43 57 15 -8 18 -31
23 -172z m1392 -109 c8 -290 -2 -948 -15 -969 -4 -7 -14 -10 -21 -8 -12 4 -15
94 -17 514 -1 280 -4 556 -5 614 -2 121 4 146 32 131 17 -10 19 -30 26 -282z
m-1178 269 c12 -20 22 -651 15 -1065 -5 -345 -7 -373 -23 -373 -9 0 -20 8 -24
17 -3 10 -3 106 1 213 3 107 1 421 -6 697 -6 276 -9 507 -5 513 9 14 32 13 42
-2z m478 -32 c10 -63 12 -1355 2 -1388 -10 -37 -33 -35 -41 3 -8 41 -8 1342 0
1392 9 51 31 48 39 -7z m228 -687 c-1 -372 -4 -691 -8 -709 -5 -24 -11 -30
-28 -28 l-21 3 3 395 c4 590 16 1043 26 1060 24 38 28 -73 28 -721z m118 704
c7 -18 10 -250 9 -683 -1 -360 1 -675 5 -700 6 -38 4 -48 -14 -64 -12 -11 -27
-16 -37 -12 -14 5 -16 16 -10 69 4 34 6 163 4 287 -5 381 -1 1075 6 1103 8 35
24 34 37 0z m106 0 c5 -16 8 -338 8 -718 0 -541 -3 -695 -13 -713 -7 -12 -17
-20 -23 -17 -10 7 -13 1414 -3 1453 8 30 22 28 31 -5z m468 -693 c0 -377 -4
-698 -8 -713 -4 -16 -13 -27 -20 -24 -9 3 -12 166 -12 713 0 390 4 718 8 729
l8 20 12 -20 c9 -15 12 -196 12 -705z m1733 697 c6 -32 -8 -69 -25 -65 -21 4
-32 38 -22 66 10 27 42 26 47 -1z m-3475 -59 c10 -115 30 -1285 22 -1324 -5
-29 -10 -35 -28 -32 -22 3 -22 5 -24 238 -2 129 -7 446 -12 705 -10 478 -9
484 25 485 7 0 14 -30 17 -72z m228 45 c13 -33 8 -381 -5 -401 -6 -10 -11 -11
-20 -2 -7 7 -12 81 -14 220 -3 187 -2 210 13 210 8 0 20 -12 26 -27z m237 10
c5 -10 12 -83 16 -163 9 -220 11 -1117 2 -1182 -8 -57 -28 -99 -41 -86 -4 4
-11 316 -15 695 -4 378 -11 695 -15 704 -6 16 17 49 35 49 5 0 13 -8 18 -17z
m246 -5 c7 -30 5 -1157 -3 -1308 -5 -94 -9 -115 -22 -118 -13 -2 -17 14 -22
104 -9 135 -9 1307 -1 1328 9 24 41 19 48 -6z m-131 -29 c12 -45 5 -255 -9
-269 -8 -8 -14 -7 -23 4 -15 17 -21 273 -8 294 14 21 30 9 40 -29z m4893 -13
c28 -54 28 -55 9 -76 l-20 -22 -17 22 c-18 23 -34 102 -23 119 12 20 22 11 51
-43z m-7800 29 c7 -19 -15 -77 -26 -70 -12 7 -23 62 -15 75 9 15 35 12 41 -5z
m1163 -85 c1 -70 -10 -103 -25 -79 -10 17 -9 153 2 170 12 21 23 -19 23 -91z
m5766 70 c0 -8 -7 -16 -15 -17 -22 -4 -44 13 -35 26 10 17 50 9 50 -9z m-105
-16 c0 -14 -4 -23 -10 -19 -5 3 -10 15 -10 26 0 10 5 19 10 19 6 0 10 -12 10
-26z m-6940 -2 c0 -24 -8 -32 -26 -25 -22 8 -17 43 6 43 13 0 20 -7 20 -18z
m3837 -19 c4 -21 8 -235 8 -475 0 -456 -2 -479 -41 -448 -14 13 -16 57 -12
475 1 253 7 466 11 473 14 22 26 13 34 -25z m-3953 5 c8 -32 7 -51 -3 -67 -8
-12 -12 -12 -25 -2 -18 16 -20 30 -6 65 12 32 26 33 34 4z m6256 3 c14 -28 13
-84 -3 -106 -13 -17 -15 -16 -25 15 -26 74 -3 148 28 91z m128 -13 c3 -25 -31
-78 -43 -67 -11 12 -8 68 5 84 18 21 34 14 38 -17z m218 -5 c7 -26 -4 -55 -20
-57 -14 -2 -24 38 -15 62 11 30 27 28 35 -5z m-8696 -5 c0 -51 -96 -178 -135
-178 -14 0 -25 22 -25 51 0 33 119 149 153 149 4 0 7 -10 7 -22z m1168 4 c2
-7 -6 -12 -17 -12 -21 0 -27 11 -14 24 9 9 26 2 31 -12z m1500 6 c23 -23 11
-257 -15 -265 -7 -3 -13 32 -18 111 -9 147 -1 188 33 154z m1057 1 c12 -18 -5
-79 -21 -79 -21 0 -37 46 -24 71 12 21 35 25 45 8z m-1167 -11 c17 -17 15 -83
-3 -98 -22 -18 -45 5 -45 45 0 60 20 81 48 53z m817 -163 c9 -167 4 -270 -13
-287 -25 -25 -34 41 -28 202 7 168 14 230 26 230 4 0 11 -65 15 -145z m-1615
69 c0 -39 -13 -50 -34 -28 -19 18 -21 65 -4 82 18 18 38 -12 38 -54z m6358 -2
c2 -31 -1 -42 -11 -42 -17 0 -27 21 -27 54 0 55 34 44 38 -12z m-5330 26 c24
-24 5 -148 -22 -148 -25 0 -35 85 -16 134 11 29 20 32 38 14z m-347 -40 c3
-69 -2 -132 -11 -148 -25 -44 -37 115 -13 176 10 28 23 13 24 -28z m4302 -19
c5 -30 7 -297 4 -594 -4 -531 -9 -607 -37 -590 -11 7 -14 1183 -4 1223 11 38
28 19 37 -39z m3127 41 c0 -13 -7 -20 -20 -20 -22 0 -23 1 -14 24 9 23 34 20
34 -4z m-709 -6 c17 -15 17 -19 3 -45 -8 -16 -21 -29 -28 -29 -18 0 -29 59
-15 76 15 18 19 17 40 -2z m-346 -20 c0 -10 -8 -20 -18 -22 -22 -4 -35 27 -16
39 20 12 34 5 34 -17z m-8387 4 c-3 -7 -34 -35 -69 -63 -36 -27 -98 -78 -138
-113 -90 -78 -133 -101 -156 -82 -8 7 -15 16 -15 21 0 24 171 155 293 225 45
26 91 32 85 12z m8852 -28 c12 -45 4 -89 -17 -97 -31 -12 -43 46 -22 106 15
42 26 39 39 -9z m-7762 -31 c-5 -35 -28 -36 -28 -1 0 16 3 32 7 36 11 11 25
-10 21 -35z m1748 16 c8 -32 -3 -75 -19 -75 -33 0 -47 43 -27 81 15 27 38 24
46 -6z m-1881 -5 c3 -6 3 -20 0 -31 -6 -17 -9 -19 -16 -8 -12 19 -11 49 0 49
6 0 13 -5 16 -10z m253 -2 c28 -28 -3 -83 -33 -58 -8 7 -15 20 -15 29 0 17 18
41 30 41 3 0 11 -5 18 -12z m1268 -12 c3 -13 1 -34 -6 -46 -21 -40 -52 8 -34
54 9 24 33 19 40 -8z m5655 1 c-13 -13 -26 -3 -16 12 3 6 11 8 17 5 6 -4 6
-10 -1 -17z m134 4 c6 -21 -10 -71 -24 -71 -14 0 -24 38 -17 66 7 28 32 32 41
5z m-467 -13 c16 -16 15 -40 -2 -63 -13 -18 -14 -18 -26 4 -12 23 -6 71 8 71
4 0 13 -5 20 -12z m-7241 -32 c-8 -19 -37 -21 -37 -3 0 7 5 18 12 25 15 15 33
-1 25 -22z m1331 -32 c3 -47 -12 -77 -28 -54 -11 17 -13 83 -3 94 15 15 28 -2
31 -40z m4315 -35 c4 -41 6 -286 5 -546 -3 -472 -6 -508 -37 -489 -12 8 -16
1009 -5 1079 10 59 28 38 37 -44z m-2899 -182 c13 -419 12 -660 -2 -684 -7
-13 -17 -23 -21 -23 -19 0 -23 65 -28 487 -4 359 -3 446 8 459 28 35 37 -10
43 -239z m4156 100 c0 -135 -8 -185 -25 -157 -11 17 -26 221 -19 255 7 36 23
57 35 49 5 -3 9 -69 9 -147z m-5681 61 c1 -39 -15 -59 -30 -37 -9 14 -3 95 9
114 8 13 20 -30 21 -77z m7522 41 c12 -29 11 -33 -10 -50 -13 -11 -27 -19 -32
-19 -12 0 -11 67 2 91 12 24 23 19 40 -22z m-7181 -32 c0 -57 -11 -84 -30 -72
-8 5 -10 24 -5 64 8 63 12 74 26 66 5 -4 9 -30 9 -58z m943 27 c10 -34 0 -371
-12 -392 -17 -31 -25 15 -32 188 -7 158 -5 209 8 233 9 15 27 1 36 -29z m4857
-7 c0 -50 -7 -62 -27 -46 -16 14 -17 43 -3 70 18 32 30 22 30 -24z m-798 -94
c11 -106 4 -806 -7 -836 -4 -10 -13 -16 -19 -14 -8 3 -12 141 -14 493 -2 453
-1 487 14 472 11 -11 20 -47 26 -115z m234 62 c9 -47 -5 -245 -17 -245 -6 0
-17 17 -26 37 -19 46 -15 202 6 227 20 24 29 19 37 -19z m-126 -78 c0 -95 -8
-125 -30 -112 -13 8 -10 181 4 204 17 27 26 -6 26 -92z m-579 76 c11 -13 14
-99 14 -462 0 -443 -4 -516 -28 -492 -9 9 -12 114 -13 399 -1 213 -5 429 -9
480 -7 79 -6 92 7 92 9 0 22 -7 29 -17z m-5441 -13 c8 -15 8 -49 0 -122 -12
-109 -17 -125 -32 -110 -12 12 -23 190 -14 226 8 31 31 34 46 6z m464 -45 c-9
-43 -23 -54 -40 -31 -19 26 -18 61 3 81 16 16 17 16 30 -1 9 -12 11 -30 7 -49z
m560 49 c9 -24 7 -307 -3 -323 -5 -7 -13 -11 -19 -7 -14 9 -26 285 -13 319 12
30 26 35 35 11z m5350 -6 c15 -25 -4 -73 -29 -73 -15 0 -21 8 -23 33 -2 19 -1
41 2 49 7 18 35 13 50 -9z m-6619 -18 c0 -20 -5 -25 -25 -25 -28 0 -41 32 -18
46 23 15 43 5 43 -21z m1511 9 c11 -19 6 -119 -7 -135 -12 -14 -14 -14 -26 2
-15 21 -17 82 -3 118 10 28 24 33 36 15z m2331 -16 c10 -36 10 -340 0 -375
-10 -39 -25 -35 -33 8 -10 52 -10 367 -1 382 13 20 26 14 34 -15z m3911 -17
c5 -37 -13 -55 -27 -29 -12 23 -3 65 13 60 6 -2 12 -16 14 -31z m-6364 -21 c7
-28 -10 -69 -25 -60 -10 7 -13 78 -3 88 11 10 21 -1 28 -28z m237 -35 c14 -47
5 -93 -18 -88 -22 4 -35 53 -28 106 5 36 9 41 21 31 7 -6 19 -28 25 -49z m247
-254 c1 -169 -1 -328 -5 -353 -9 -49 -25 -65 -38 -36 -5 10 -9 166 -10 346 -2
277 0 331 13 343 34 35 37 13 40 -300z m823 260 c2 -34 -2 -60 -13 -80 -8 -15
-12 -16 -19 -5 -16 26 -21 96 -9 120 12 22 13 22 26 4 8 -10 15 -28 15 -39z
m-1651 4 c0 -16 -4 -31 -9 -35 -13 -7 -24 30 -16 55 9 28 25 15 25 -20z m2091
23 c9 -10 17 -59 21 -142 4 -69 9 -146 10 -170 2 -32 -1 -46 -14 -55 -13 -8
-20 -8 -28 0 -15 15 -35 277 -26 337 8 50 16 57 37 30z m3587 -33 c4 -47 -12
-75 -28 -50 -11 17 -13 83 -3 94 15 15 28 -3 31 -44z m351 36 c7 -8 11 -30 9
-48 -2 -27 -8 -34 -30 -36 -33 -4 -45 26 -28 69 14 32 31 37 49 15z m-6144
-19 c0 -26 -20 -25 -23 2 -3 16 1 22 10 19 7 -3 13 -12 13 -21z m2561 -2 c9
-37 10 -865 1 -897 -11 -41 -23 -34 -31 18 -8 62 -8 889 1 897 13 13 23 7 29
-18z m-3455 -16 c16 -8 18 -13 8 -25 -6 -8 -20 -14 -31 -14 -23 0 -36 29 -17
41 18 11 17 11 40 -2z m6917 -54 c3 -61 -11 -93 -28 -65 -11 17 -13 113 -3
124 17 16 28 -5 31 -59z m-115 -50 c2 -77 -5 -97 -26 -76 -14 14 -17 135 -4
166 8 19 9 19 19 2 5 -10 11 -52 11 -92z m-6713 80 c0 -21 -30 -31 -40 -14
-11 17 -3 29 21 29 10 0 19 -7 19 -15z m355 -31 c0 -30 -4 -40 -19 -42 -34 -7
-43 39 -13 76 17 22 32 7 32 -34z m7140 -9 c0 -26 -4 -30 -32 -33 -23 -2 -34
2 -42 17 -15 26 12 53 48 49 22 -2 26 -8 26 -33z m-6448 -16 c18 -52 16 -113
-5 -139 l-19 -23 -16 24 c-20 27 -22 101 -6 148 14 39 30 36 46 -10z m5441
-175 c-3 -190 -7 -228 -25 -210 -9 9 -17 391 -9 412 3 8 12 11 21 7 15 -5 16
-29 13 -209z m2952 182 c0 -20 -16 -29 -40 -21 -32 10 -25 35 10 35 19 0 30
-5 30 -14z m-8750 -17 c0 -5 -7 -9 -15 -9 -15 0 -20 12 -9 23 8 8 24 -1 24
-14z m-105 -56 c0 -46 -5 -67 -18 -80 -16 -16 -17 -16 -17 2 0 11 -7 33 -15
49 -19 37 -19 55 2 78 32 35 48 19 48 -49z m1273 -2 c2 -13 1 -34 -3 -48 -5
-20 -8 -23 -20 -13 -15 13 -21 71 -8 84 12 12 28 0 31 -23z m712 -7 c4 -10 3
-30 -1 -43 -8 -19 -12 -21 -24 -11 -15 13 -21 61 -8 74 11 10 25 2 33 -20z
m4025 -27 c0 -26 -4 -48 -10 -49 -15 -4 -29 46 -21 76 11 43 31 25 31 -27z
m-5202 -1 c10 -40 1 -153 -13 -176 -7 -12 -12 -12 -22 -2 -14 14 -18 149 -5
195 10 38 29 29 40 -17z m-935 9 c19 -41 15 -75 -8 -75 -26 0 -41 31 -34 69 8
38 27 40 42 6z m462 -10 c4 -37 0 -65 -9 -65 -13 0 -24 55 -16 81 8 24 22 15
25 -16z m-116 -7 c5 -14 6 -34 2 -44 -7 -18 -8 -18 -22 0 -18 25 -19 79 -1 74
6 -3 16 -16 21 -30z m6850 0 c11 -30 -7 -83 -31 -92 -40 -16 -59 57 -27 102
20 29 46 25 58 -10z m-7306 -20 c-4 -37 -23 -48 -31 -17 -7 27 1 49 20 49 10
0 13 -9 11 -32z m5916 16 c16 -42 -10 -99 -40 -87 -16 6 -19 56 -4 84 13 23
36 25 44 3z m106 -100 c13 -136 12 -301 0 -325 -6 -10 -17 -19 -24 -19 -23 0
-30 297 -10 429 9 59 25 19 34 -85z m458 16 c-4 -34 -32 -33 -36 2 -2 15 2 37
9 50 l12 22 9 -24 c5 -13 8 -36 6 -50z m-6868 39 c19 -12 64 -32 100 -44 36
-12 111 -43 168 -69 56 -25 106 -46 111 -46 5 0 48 -18 95 -40 47 -21 141 -59
209 -84 67 -25 153 -57 190 -71 37 -14 77 -25 88 -25 12 0 60 -13 107 -30 48
-16 123 -36 166 -45 44 -9 82 -17 85 -19 8 -5 201 -48 431 -96 538 -112 1249
-206 1800 -240 539 -32 952 -46 1095 -37 553 34 739 50 914 77 107 16 298 44
425 61 127 17 260 37 296 45 36 8 142 30 235 49 385 80 366 74 576 167 86 37
164 66 172 62 22 -8 28 -29 14 -48 -28 -36 -751 -380 -922 -438 -33 -11 -103
-36 -155 -55 -362 -133 -541 -175 -960 -223 -96 -11 -198 -23 -226 -26 -50 -6
-51 -6 -72 31 -27 44 -43 41 -60 -11 -15 -47 -45 -74 -82 -74 -37 0 -54 22
-46 61 11 55 -33 79 -69 39 -12 -13 -16 -30 -13 -55 3 -26 0 -39 -12 -45 -28
-15 -313 -30 -568 -30 -357 0 -640 17 -937 55 -575 75 -906 137 -1115 210 -41
15 -131 43 -200 64 -69 21 -147 46 -175 56 -131 47 -596 231 -645 256 -30 15
-122 60 -205 99 -269 128 -627 332 -735 420 -25 20 -63 47 -85 60 -44 26 -56
40 -49 52 8 12 16 10 54 -13z m6181 -26 c19 -22 18 -468 0 -486 -10 -9 -15 -8
-25 5 -9 13 -13 80 -14 249 -1 127 1 235 4 240 8 13 20 11 35 -8z m-5394 -25
c7 -6 10 -14 7 -19 -9 -15 -77 -40 -91 -35 -14 6 -18 58 -6 70 10 9 74 -2 90
-16z m453 14 c0 -13 -12 -22 -22 -16 -10 6 -1 24 13 24 5 0 9 -4 9 -8z m5504
-24 c30 -43 12 -97 -26 -77 -18 10 -24 51 -12 83 8 22 20 20 38 -6z m-4850
-10 c10 -35 20 -311 12 -341 -7 -31 -40 -37 -51 -9 -6 17 1 250 11 330 6 46
18 55 28 20z m710 0 c9 -44 13 -487 4 -502 -13 -23 -35 -20 -42 7 -10 39 -7
477 4 498 14 25 29 24 34 -3z m119 -19 c10 -39 5 -188 -7 -208 -6 -9 -11 -10
-19 -2 -12 12 -23 211 -13 237 9 24 29 11 39 -27z m-1755 6 c7 -14 12 -36 12
-48 0 -12 7 -35 15 -51 21 -41 19 -58 -7 -54 -47 7 -84 105 -62 162 9 24 29
19 42 -9z m580 -116 c5 -125 -3 -172 -26 -167 -15 3 -17 19 -17 128 0 134 7
172 28 151 7 -7 13 -51 15 -112z m-237 84 c19 -22 19 -144 0 -167 -19 -23 -36
-6 -50 49 -15 61 -14 95 6 117 20 22 27 23 44 1z m707 -169 c-2 -112 -7 -167
-15 -175 -7 -7 -16 -9 -20 -5 -10 10 -10 325 0 350 6 15 10 16 23 5 13 -11 15
-37 12 -175z m-1170 139 c-2 -17 -9 -28 -18 -28 -9 0 -16 11 -18 28 -3 22 1
27 18 27 17 0 21 -5 18 -27z m232 7 c17 -31 9 -94 -12 -98 -26 -5 -39 37 -27
82 11 41 23 45 39 16z m118 -27 c3 -41 -16 -71 -38 -58 -13 8 -13 61 1 86 16
31 34 17 37 -28z m936 20 c3 -16 9 -91 12 -168 6 -123 5 -142 -10 -154 -13
-11 -19 -11 -32 0 -14 12 -16 33 -11 159 5 143 12 190 27 190 4 0 10 -12 14
-27z m1630 11 c11 -27 7 -51 -13 -75 l-18 -23 -13 23 c-17 33 -5 91 19 91 11
0 22 -7 25 -16z m-1275 -97 c16 -115 14 -166 -5 -174 -30 -11 -43 23 -38 96
14 195 25 213 43 78z m-1742 39 c-4 -9 -11 -16 -17 -16 -15 0 -24 26 -16 47 6
15 8 15 23 1 9 -9 13 -24 10 -32z m689 19 c9 -37 0 -143 -14 -157 -20 -20 -35
5 -40 65 -6 81 38 156 54 92z m1631 -2 c19 -71 0 -164 -27 -137 -14 14 -24
105 -16 138 8 34 34 33 43 -1z m2881 -5 c25 -32 21 -357 -5 -365 -26 -9 -35
40 -35 198 0 87 3 163 7 169 8 13 20 13 33 -2z m348 -25 c11 -58 8 -104 -10
-121 -22 -23 -31 -8 -30 51 1 100 26 143 40 70z m570 -19 c8 -30 -5 -75 -23
-81 -15 -5 -26 47 -17 81 8 34 32 34 40 0z m-228 -12 c3 -16 -2 -22 -16 -22
-24 0 -35 23 -19 39 16 16 31 8 35 -17z m-6498 -10 c39 -34 33 -54 -23 -80
-53 -26 -143 -102 -194 -164 -21 -27 -46 -48 -55 -48 -20 0 -58 34 -58 51 0
16 107 125 183 186 37 30 67 60 67 68 0 25 47 17 80 -13z m153 -91 c29 -21 66
-46 84 -55 18 -9 37 -25 42 -35 12 -22 1 -33 -72 -75 -26 -15 -77 -54 -112
-88 -41 -38 -70 -58 -80 -54 -33 12 -14 47 82 148 65 68 73 82 50 91 -26 10
-77 -23 -165 -107 -50 -47 -95 -86 -101 -86 -82 0 -37 95 79 165 41 25 68 51
89 85 17 28 36 50 41 50 6 0 34 -17 63 -39z m6219 7 c-9 -9 -12 -7 -12 12 0
19 3 21 12 12 9 -9 9 -15 0 -24z m243 13 c7 -12 -24 -43 -36 -36 -13 9 -11 32
4 38 19 8 25 8 32 -2z m-2181 -76 c9 -70 -4 -288 -18 -302 -4 -4 -15 -2 -24 4
-15 9 -17 29 -14 174 2 90 8 172 14 182 17 33 33 11 42 -58z m2066 42 c0 -13
-6 -32 -14 -42 -13 -18 -14 -18 -25 3 -8 16 -9 28 -1 42 15 28 40 26 40 -3z
m-4252 -71 c3 -77 -11 -126 -38 -126 -23 0 -30 37 -20 116 9 72 16 86 38 82
14 -3 18 -17 20 -72z m1373 42 c7 -13 12 -71 13 -144 1 -107 -1 -124 -18 -143
-15 -17 -22 -19 -34 -9 -12 10 -13 36 -7 158 4 80 9 148 12 153 8 13 22 7 34
-15z m-685 -20 c15 -28 15 -41 5 -90 -6 -31 -9 -75 -5 -97 5 -32 3 -42 -10
-47 -36 -14 -44 11 -39 119 7 157 16 179 49 115z m3234 -46 c0 -21 -18 -42
-36 -42 -18 0 -26 30 -13 46 17 20 49 18 49 -4z m-3585 -25 c4 -13 5 -43 3
-68 -3 -39 -6 -44 -28 -44 -22 0 -25 5 -28 43 -5 67 40 123 53 69z m-2047 -92
c100 -52 184 -95 187 -95 2 0 81 -34 176 -76 95 -41 226 -97 293 -123 215 -85
656 -229 846 -275 102 -25 226 -57 275 -70 118 -32 279 -58 615 -101 239 -31
321 -37 625 -46 680 -19 1429 20 1760 92 49 10 105 19 124 19 67 0 93 -59 46
-105 -28 -29 -38 -31 -55 -10 -21 25 -49 17 -71 -20 -13 -21 -29 -35 -40 -35
-25 0 -71 23 -88 44 -12 14 -17 12 -49 -14 -39 -32 -64 -36 -107 -20 -22 8
-32 6 -55 -10 -35 -25 -36 -25 -88 2 l-44 23 -33 -38 -33 -38 -32 41 -33 41
-27 -30 c-37 -40 -75 -49 -113 -28 -41 24 -64 21 -81 -11 -28 -55 -43 -59 -79
-24 -37 36 -61 40 -76 14 -29 -49 -28 -49 -70 -8 l-39 38 -17 -26 c-31 -46
-53 -52 -85 -21 l-28 27 -41 -37 -41 -37 -29 31 c-26 27 -35 31 -84 31 -31 0
-59 5 -62 10 -11 18 -30 10 -48 -20 -35 -59 -76 -60 -98 -3 -16 42 -38 39 -79
-8 -41 -48 -56 -46 -80 11 -14 33 -27 37 -56 15 -27 -21 -42 -19 -81 11 l-34
26 -40 -46 c-23 -25 -47 -46 -54 -46 -7 0 -22 16 -34 35 -25 43 -50 45 -73 4
-26 -44 -57 -37 -76 19 -7 23 -20 42 -27 42 -8 0 -31 -20 -52 -45 -20 -25 -40
-45 -44 -45 -4 0 -12 14 -18 32 -13 38 -39 68 -58 68 -8 0 -22 -13 -31 -30
-27 -48 -59 -38 -79 25 -18 57 -60 36 -97 -50 -6 -14 -46 33 -46 54 0 10 -6
25 -13 35 -21 29 -52 12 -72 -40 -14 -36 -21 -45 -38 -42 -16 2 -23 13 -29 42
-15 74 -39 83 -92 35 -37 -32 -56 -31 -56 1 0 19 -25 50 -40 50 -4 0 -30 -18
-56 -40 -27 -22 -57 -40 -68 -40 -17 0 -18 6 -14 47 3 27 4 54 1 61 -8 22 -36
13 -75 -25 l-38 -37 0 70 c0 39 -3 73 -6 77 -14 13 -37 -9 -64 -62 -33 -67
-51 -84 -82 -79 -24 3 -26 13 -16 123 3 34 0 40 -18 43 -27 4 -74 -50 -74 -84
0 -33 -41 -59 -69 -44 -25 13 -27 42 -6 100 19 54 20 100 1 100 -7 0 -30 -26
-51 -58 -46 -70 -75 -102 -91 -102 -24 0 -23 30 3 100 24 65 25 72 10 87 -14
15 -18 15 -40 0 -13 -8 -38 -45 -55 -81 -50 -105 -93 -82 -54 28 25 70 28 96
9 96 -24 0 -59 -32 -93 -86 -38 -59 -60 -76 -92 -67 -33 8 -32 37 3 92 28 43
41 96 26 106 -17 10 -64 -23 -91 -63 -35 -50 -49 -62 -71 -62 -32 0 -32 26 0
71 34 46 40 86 14 96 -11 5 -35 -14 -84 -65 -47 -51 -72 -70 -83 -66 -24 9
-19 49 14 107 17 30 30 59 30 65 0 27 -37 8 -96 -48 -59 -57 -95 -73 -109 -49
-7 10 13 42 75 123 26 34 29 42 17 54 -22 21 -67 -7 -119 -75 -32 -43 -50 -58
-68 -58 -38 0 -35 27 9 101 45 75 49 91 24 101 -13 5 -37 -15 -93 -75 -87 -94
-129 -109 -121 -44 1 7 20 41 42 74 43 67 47 85 23 95 -11 4 -40 -18 -94 -72
-44 -44 -83 -75 -89 -71 -22 14 -10 53 34 116 45 64 57 100 31 100 -17 0 -56
-29 -129 -98 -64 -60 -90 -65 -95 -16 -3 26 7 43 48 93 51 61 60 93 29 99 -9
1 -55 -33 -102 -78 -60 -55 -95 -80 -111 -80 -53 0 -40 46 37 128 30 31 64 72
76 90 16 23 30 32 49 32 15 0 110 -43 210 -95z m1820 73 c18 -18 15 -43 -9
-64 -17 -16 -22 -16 -29 -4 -28 44 4 102 38 68z m347 -27 c3 -10 3 -24 1 -32
-2 -8 -7 -26 -10 -41 -8 -37 -43 -38 -52 -2 -13 53 45 125 61 75z m1844 -39
c5 -9 12 -33 16 -53 6 -30 2 -41 -21 -68 -26 -31 -29 -32 -41 -15 -16 22 -17
80 -2 123 12 34 33 40 48 13z m2377 -453 c10 -17 -13 -36 -27 -22 -12 12 -4
33 11 33 5 0 12 -5 16 -11z m-6136 -29 c0 -19 -5 -30 -14 -30 -20 0 -29 16
-21 40 10 32 35 25 35 -10z m6310 -79 c0 -12 -29 -35 -36 -28 -11 10 5 37 21
37 8 0 15 -4 15 -9z"/>
<path d="M7015 9236 c-31 -46 14 -84 66 -56 24 13 25 42 1 63 -26 24 -49 21
-67 -7z"/>
<path d="M7172 9223 c-42 -17 -32 -83 13 -83 32 0 51 34 36 66 -10 23 -23 28
-49 17z"/>
<path d="M7304 9185 c-8 -21 2 -45 19 -45 8 0 20 7 27 15 10 12 10 18 0 30 -7
8 -19 15 -27 15 -7 0 -16 -7 -19 -15z"/>
<path d="M7427 9184 c-4 -4 -7 -16 -7 -26 0 -13 8 -18 31 -18 26 0 30 3 27 23
-3 22 -36 36 -51 21z"/>
<path d="M7535 9159 c-8 -25 6 -42 31 -37 24 4 28 23 9 42 -22 21 -32 20 -40
-5z"/>
<path d="M4720 9034 c-11 -12 -10 -18 3 -31 21 -21 47 -9 47 22 0 29 -29 35
-50 9z"/>
<path d="M4257 8807 c-23 -16 -19 -55 6 -71 28 -18 72 12 72 49 0 26 -4 30
-30 33 -16 2 -38 -3 -48 -11z"/>
<path d="M4252 8668 c-27 -27 -2 -93 33 -87 10 2 27 16 38 31 20 27 20 28 2
48 -20 22 -55 26 -73 8z"/>
<path d="M4110 8606 c-15 -19 -9 -56 12 -70 32 -19 103 42 84 73 -10 16 -82
13 -96 -3z"/>
<path d="M3872 8493 c-41 -20 -58 -49 -41 -69 15 -18 49 -12 97 18 39 24 41
45 6 58 -30 12 -22 13 -62 -7z"/>
<path d="M3815 8224 c-11 -9 -45 -29 -76 -44 -64 -33 -109 -80 -109 -115 0
-49 24 -43 106 25 27 22 66 46 87 52 43 13 62 39 53 74 -7 28 -31 31 -61 8z"/>
<path d="M9412 7818 c-19 -19 -14 -46 9 -59 18 -9 25 -7 41 9 16 16 18 23 9
41 -13 23 -40 28 -59 9z"/>
<path d="M3603 7778 c-33 -37 -56 -89 -44 -101 14 -14 81 31 100 66 28 52 -16
79 -56 35z"/>
<path d="M3512 7634 c-27 -18 -29 -44 -4 -44 23 0 42 19 42 42 0 22 -9 23 -38
2z"/>
<path d="M3611 7429 c-22 -21 -41 -59 -41 -83 0 -25 40 -56 74 -56 43 0 66 26
66 76 0 75 -51 108 -99 63z"/>
<path d="M9348 7273 c-48 -51 -49 -107 -2 -162 31 -37 68 -41 85 -9 21 40 -2
168 -35 190 -17 12 -20 10 -48 -19z"/>
<path d="M3700 7021 c-14 -28 -13 -124 3 -145 11 -16 15 -16 25 -3 18 21 26
107 13 140 -12 32 -26 35 -41 8z"/>
<path d="M9406 7014 c-20 -20 -20 -21 9 -134 27 -104 32 -179 13 -198 -23 -23
-100 -9 -120 22 -4 6 -4 46 -1 88 6 75 5 78 -16 78 -31 0 -47 -44 -72 -202
-11 -73 -29 -162 -40 -197 -23 -77 -25 -141 -4 -141 8 0 19 8 24 19 6 10 26
37 46 60 31 38 35 50 35 98 0 30 5 63 10 73 14 26 66 34 114 18 31 -10 42 -20
48 -43 15 -61 39 -358 49 -625 15 -383 5 -1691 -16 -2095 -21 -396 -23 -601
-7 -638 15 -34 39 -44 59 -25 27 27 33 285 39 1623 9 1825 -4 2120 -92 2208
-30 31 -55 34 -78 11z"/>
<path d="M3702 6788 c-24 -24 -8 -141 20 -146 27 -5 38 84 16 133 -13 28 -19
30 -36 13z"/>
<path d="M3700 6481 c0 -12 29 -23 41 -15 18 10 9 24 -16 24 -14 0 -25 -4 -25
-9z"/>
<path d="M9257 6242 c-20 -22 -22 -73 -5 -90 18 -18 73 -14 91 6 24 26 21 49
-8 77 -29 30 -56 32 -78 7z"/>
<path d="M3684 6129 c-21 -42 -30 -258 -45 -1109 -13 -786 -11 -1207 7 -1214
58 -22 74 130 74 688 0 230 5 630 12 890 6 259 12 539 12 621 1 147 1 150 -21
153 -16 2 -26 -5 -39 -29z"/>
<path d="M9082 6013 c-26 -10 -32 -40 -16 -73 13 -26 15 -47 9 -109 -9 -86 -9
-120 0 -1216 3 -441 2 -903 -3 -1045 -5 -140 -7 -261 -5 -268 7 -18 54 -27 63
-12 10 16 17 247 30 990 25 1397 25 1342 5 1530 -15 138 -22 177 -37 192 -19
19 -24 20 -46 11z"/>
<path d="M8872 5384 c-21 -14 -22 -22 -21 -152 0 -152 12 -207 44 -207 32 0
58 66 59 149 1 106 -27 226 -53 226 -4 0 -17 -7 -29 -16z"/>
<path d="M8867 4972 c-9 -10 -19 -35 -22 -57 -6 -43 -45 -1432 -48 -1703 -2
-162 -2 -164 22 -183 55 -44 77 -7 91 152 5 63 16 413 24 779 9 366 18 731 22
811 5 122 4 150 -9 176 -24 45 -54 54 -80 25z"/>
<path d="M8844 2956 c-8 -22 3 -49 19 -43 6 2 12 14 12 27 0 27 -22 39 -31 16z"/>
<path d="M3961 1071 c-51 -34 105 -80 664 -194 400 -82 851 -131 1445 -157
129 -5 279 -12 332 -15 79 -4 99 -2 112 11 9 8 16 17 16 19 0 17 -73 27 -292
40 -351 21 -1235 114 -1478 156 -63 11 -243 47 -400 80 -310 65 -378 75 -399
60z"/>
<path d="M4600 767 c0 -36 65 -50 470 -107 157 -22 328 -46 380 -54 133 -21
919 -76 1195 -85 175 -5 235 -10 253 -21 31 -21 56 -3 60 44 3 30 0 36 -16 36
-10 0 -113 7 -228 15 -115 8 -355 24 -534 35 -533 34 -994 78 -1275 121 -71
11 -169 22 -217 26 -77 5 -88 4 -88 -10z"/>
<path d="M7002 538 c7 -20 48 -23 48 -4 0 11 -9 16 -26 16 -16 0 -24 -5 -22
-12z"/>
</g>
</svg>
