<?xml version="1.0" encoding="UTF-8"?>
<svg width="200" height="85.204" version="1.1" viewBox="0 0 200 85.204" xml:space="preserve" xmlns="http://www.w3.org/2000/svg" xmlns:cc="http://creativecommons.org/ns#" xmlns:dc="http://purl.org/dc/elements/1.1/" xmlns:rdf="http://www.w3.org/1999/02/22-rdf-syntax-ns#"><metadata><rdf:RDF><cc:Work rdf:about=""><dc:format>image/svg+xml</dc:format><dc:type rdf:resource="http://purl.org/dc/dcmitype/StillImage"/><dc:title/></cc:Work></rdf:RDF></metadata><g transform="matrix(1.25 0 0 -1.25 0 128.79)"><g transform="matrix(1.0365 0 0 1.0365 0 -1.2716)" fill="#1a3171" fill-rule="evenodd"><path d="m23.621 51.382h17.776c-1.6875 2.8118-2.6574 6.1036-2.6574 9.6211 0 14.437 11.703 26.139 26.141 26.139l89.49-0.4129-4.619-16.104h-17.655l-10.141-35.348h-18.998l10.137 35.348h-17.837c1.6875-2.8125 2.6571-6.1035 2.6571-9.6223 0-14.434-11.703-26.138-26.14-26.138l-0.4699 0.0028-71.305 0.4093 14.755 51.452h19.002zm33.849 9.6204c0 5.996 4.8614 10.856 10.857 10.856 5.9969 0 10.858-4.8602 10.858-10.856 0-5.9961-4.8606-10.857-10.858-10.857-5.996 0-10.857 4.8606-10.857 10.857zm8.3426-1.868 6.0508 12.136c0.7461-0.364 1.248-1.1593 1.248-2.0449 0-0.4199-0.1121-0.8137-0.3133-1.1492l-5.2082-8.6684 1.759 0.2715c0.0907 0.0141 0.1844 0.0207 0.2793 0.0207 0.9832 0 1.7801-0.798 1.7801-1.7812h4.9016l-0.4407 0.5547h-0.8964l-0.1973 0.2714h2.6055c0.2812-0.4687 0.7812-0.7921 1.3593-0.8261l-0.0839-0.2715h-11.02l4.5578-3.4973c0.5059-0.3875 0.8231-1.0058 0.8231-1.6922 0-0.591-0.2352-1.1355-0.6223-1.5234l-6.8316 6.7129h-7.5645l-0.084 0.2715 7.8973 1.216"/><path d="m24.215 100.63h1.4485l-1.9934-6.9524h-1.4488zm74.039-1.1583 0.3332 1.1583h-3.3301c-0.9132 0-1.8586-0.438-2.1242-1.3634l-0.3152-1.1023c-0.2168-0.7563 0.2156-1.4453 1.2969-1.4453h1.6238c0.2316 0 0.5527-0.1293 0.3699-0.7629l-0.0789-0.2793c-0.1473-0.511-0.6035-0.841-1.0223-0.841h-3.1418l-0.332-1.1582h3.4863c0.918 0 1.9856 0.3586 2.336 1.5761l0.2461 0.8567c0.3488 1.2129-0.5176 1.7676-1.3516 1.7676h-1.5301c-0.216 0-0.5195 0.0535-0.3965 0.4843l0.1161 0.4043c0.1562 0.5481 0.4531 0.7051 0.8652 0.7051zm-24.639 1.1593h1.4485l-1.9942-6.9534h-1.4484zm-17.584 0h1.4492l-1.9942-6.9534h-1.448zm11.792 0h1.4481l-1.661-5.7952h3.1844l-0.332-1.1582h-4.634zm-32.159-1e-3 -1.9918-6.9524h1.3906l0.7898 2.7511h3.5332l-0.789-2.7511h1.3902l1.9938 6.9524h-1.3899l-0.873-3.0431h-3.534l0.8726 3.0431zm48.913-6.9524 1.9942 6.9524h4.9277l-0.332-1.1583h-3.6016l-0.4574-1.5937 2.9914 7e-4 -0.332-1.1589h-2.991l-0.5403-1.884h3.6016l-0.3328-1.1582zm-8.9003 0 1.9921 6.9534h1.8153l1.457-5.2152c0.1203-0.4285 0.1203-0.58 0.1203-0.58l1.6629 5.7952h1.2375l-1.9922-6.9534h-1.8617l-1.4137 5.2129c-0.1015 0.3769-0.1117 0.6156-0.1117 0.6156l-1.6676-5.8285zm-42.969 5.7941 0.3336 1.1583h-3.3305c-0.9129 0-1.8582-0.438-2.1238-1.3634l-0.3156-1.1023c-0.2172-0.7563 0.2164-1.4453 1.2973-1.4453h1.623c0.232 0 0.5535-0.1293 0.3707-0.7629l-0.0797-0.2793c-0.1469-0.511-0.6027-0.841-1.0219-0.841h-3.1414l-0.3324-1.1582h3.4871c0.918 0 1.9848 0.3586 2.3356 1.5761l0.2461 0.8567c0.3488 1.2129-0.5176 1.7676-1.3524 1.7676h-1.5297c-0.216 0-0.5195 0.0535-0.3965 0.4843l0.1165 0.4043c0.1566 0.5481 0.4531 0.7051 0.8652 0.7051zm-14.285 1.1593h1.4481l-1.6617-5.7952h3.1851l-0.332-1.1582h-4.6336zm-13.35-1.1593c0.45508 0 0.53008-0.3898 0.45781-0.6406l-0.23047-0.8039c-0.18906-0.6532-0.78047-0.8731-1.1012-0.8731h-1.7629l0.66484 2.3176zm-3.0781 1.1593-1.9953-6.9534h1.4488l0.70273 2.4629h2.1941c0.71094 0 1.9602 0.3468 2.2609 1.3957l0.36328 1.2675c0.38672 1.3483-0.78242 1.8273-1.2961 1.8273zm57.962-1e-3h3.6789c0.5137 0 1.6805-0.477 1.2957-1.8255l-0.2238-0.7812c-0.314-1.0977-1.6539-1.2059-1.6539-1.2059 1.0664-0.4402 1.1035-0.6992 0.9695-1.6914-0.1328-0.9922 9e-3 -1.3945 0.0696-1.4484h-1.3145s-0.2695 0.3742-0.084 1.3468c0.2215 1.1692-0.1261 1.2547-0.4492 1.261h-2.093l-0.7421-2.6078h-1.4481zm3.0782-1.1583c0.455 0 0.5293-0.3898 0.4582-0.6406l-0.2305-0.8039c-0.1594-0.4364-0.6934-0.5821-1.0149-0.5821h-1.7625l0.5782 2.0266zm-10.736-5.7941-0.7234 6.9524h-1.5938l-4.7793-6.9524h1.5391l0.916 1.4496 3.1336-0.0012 0.0606-1.4484zm-1.5515 2.4914-0.1379 3.3039c-0.0067 0.1558 0.0234 0.3582 0.0234 0.3582l-0.2207-0.3594-2.0957-3.3035zm-40.574-1.3321h1.9657c0.523 0 1.1289 0.4231 1.3351 1.1414l0.7071 2.4668c0.1777 0.6172-0.343 1.0176-0.6614 1.0168l-2-0.0039c-0.5547-0.0011-1.1527-0.4621-1.3082-1.0039l-0.67263-2.3429c-0.25234-0.8797 0.25391-1.2743 0.63433-1.2743zm1.493 5.7841h1.9524c1.0195 0 2.2129-0.9286 1.8761-2.1044l-0.841-2.9355c-0.3262-1.1375-1.5621-1.9035-2.7117-1.9035h-1.5336c-1.4637 0-2.5836 1.0539-2.1875 2.4336l0.76875 2.6808c0.32618 1.1367 1.5316 1.829 2.6766 1.829"/></g></g></svg>