<?xml version="1.0" standalone="no"?>
<!DOCTYPE svg PUBLIC "-//W3C//DTD SVG 20010904//EN"
 "http://www.w3.org/TR/2001/REC-SVG-20010904/DTD/svg10.dtd">
<svg version="1.0" xmlns="http://www.w3.org/2000/svg"
 width="1280.000000pt" height="755.000000pt" viewBox="0 0 1280.000000 755.000000"
 preserveAspectRatio="xMidYMid meet">
<metadata>
Created by potrace 1.15, written by Peter Selinger 2001-2017
</metadata>
<g transform="translate(0.000000,755.000000) scale(0.100000,-0.100000)"
fill="#3f51b5" stroke="none">
<path d="M8489 7525 c-127 -66 -264 -332 -289 -561 -17 -146 -15 -142 -59
-154 -80 -21 -151 -93 -151 -153 0 -43 56 -135 102 -166 81 -54 107 -81 114
-119 19 -109 145 -202 273 -202 19 0 60 5 91 12 l56 11 179 -103 c99 -56 270
-154 380 -217 212 -121 245 -145 245 -175 0 -25 -42 -66 -88 -84 -20 -9 -89
-38 -152 -64 -118 -50 -501 -183 -645 -224 -44 -13 -154 -46 -245 -73 -204
-62 -394 -117 -480 -138 -36 -9 -135 -38 -220 -65 -85 -27 -202 -61 -260 -75
-192 -48 -224 -56 -340 -92 -63 -19 -128 -39 -145 -43 -48 -12 -454 -136 -645
-197 -96 -30 -285 -91 -420 -134 -135 -43 -321 -105 -415 -138 -474 -166 -613
-217 -754 -277 -101 -42 -161 -62 -175 -58 -12 3 -78 37 -148 75 -71 38 -185
100 -255 138 -575 309 -718 388 -981 543 -74 43 -303 168 -682 373 -63 34
-189 104 -280 155 -91 51 -214 119 -274 152 -59 33 -149 83 -200 112 -50 29
-120 68 -155 86 -36 18 -81 42 -100 55 -44 27 -251 144 -387 218 -54 30 -184
100 -287 157 -219 119 -290 146 -407 156 -79 6 -90 5 -135 -19 -62 -31 -108
-78 -134 -137 -29 -64 -26 -84 22 -178 52 -102 107 -157 467 -462 42 -36 137
-119 211 -185 74 -66 157 -138 184 -160 28 -21 84 -69 125 -105 41 -36 127
-109 190 -162 137 -115 177 -155 164 -166 -5 -4 -40 -33 -79 -64 -67 -54 -222
-208 -277 -275 -15 -18 -29 -33 -33 -33 -16 0 -84 54 -88 71 -3 10 -13 19 -22
19 -27 0 -80 -37 -93 -65 -6 -14 -17 -25 -23 -25 -6 0 -50 29 -98 64 -160 119
-346 210 -418 204 -32 -3 -38 -8 -49 -40 -10 -30 -10 -39 2 -57 22 -31 125
-101 254 -171 63 -35 132 -74 152 -86 l37 -24 -19 -32 c-11 -20 -20 -55 -21
-91 -2 -53 0 -60 30 -91 21 -22 50 -38 80 -46 107 -26 121 -32 131 -51 6 -11
24 -126 40 -257 32 -251 35 -262 86 -262 37 0 74 22 80 47 4 13 3 43 0 66 -10
59 -63 292 -82 355 -19 64 -12 90 24 94 17 2 34 15 49 36 26 40 40 134 25 174
-10 26 -8 30 31 57 54 37 258 247 321 329 48 63 48 63 29 85 -44 50 -47 57
-28 57 10 0 38 -20 61 -45 l43 -44 73 9 c40 5 123 18 183 28 61 11 144 25 185
31 99 15 285 50 333 62 26 7 41 18 47 34 6 17 22 27 52 35 24 6 71 20 106 31
34 12 83 24 109 27 34 5 49 12 51 25 3 13 -3 17 -24 17 -33 0 -299 -85 -332
-106 -12 -8 -91 -24 -175 -35 -280 -36 -362 -48 -427 -63 -36 -9 -77 -15 -92
-16 -40 0 -36 27 7 47 22 10 35 23 33 33 -6 28 -47 23 -97 -14 -41 -31 -50
-34 -61 -21 -18 22 -2 53 41 81 46 28 46 48 3 52 -21 2 -43 -7 -72 -28 -48
-34 -55 -36 -72 -15 -11 13 -6 22 33 59 26 24 47 48 47 55 0 20 -42 11 -87
-19 -52 -35 -68 -37 -83 -10 -9 18 -5 26 30 62 63 62 18 74 -63 16 -21 -15
-34 -19 -45 -11 -28 17 -25 34 18 74 22 21 38 44 35 49 -12 19 -52 10 -90 -20
-41 -33 -55 -36 -73 -18 -19 19 -15 34 19 73 58 66 10 81 -64 19 -23 -19 -32
-22 -43 -13 -20 17 -18 25 21 67 26 30 32 41 23 50 -18 18 -31 15 -78 -19 -45
-33 -62 -32 -84 5 -9 14 -5 23 22 47 35 32 37 59 4 59 -11 0 -31 -11 -46 -25
-33 -30 -47 -31 -71 -5 -17 18 -17 21 4 55 11 20 21 43 21 51 0 20 -40 17 -70
-6 -14 -11 -33 -20 -42 -20 -24 0 -32 37 -14 65 9 13 16 34 16 45 0 18 -4 20
-22 14 -13 -4 -35 -16 -51 -27 l-27 -21 -21 21 c-20 19 -20 22 -5 51 9 17 16
38 16 47 0 22 -33 19 -64 -6 -26 -20 -28 -21 -47 -3 -15 13 -18 25 -13 51 5
27 3 33 -11 33 -9 0 -24 -4 -34 -10 -13 -6 -24 -5 -39 6 -17 12 -20 21 -15 46
6 30 5 31 -24 25 -33 -7 -63 15 -63 46 0 11 -8 17 -23 17 -29 0 -54 19 -59 45
-2 11 -14 22 -28 25 -14 3 -31 18 -38 33 -7 15 -19 27 -27 27 -8 0 -26 16 -42
36 -22 30 -28 49 -31 106 -5 81 0 88 81 130 51 25 66 29 111 23 121 -15 135
-25 59 -43 -78 -18 -127 -42 -114 -55 8 -8 25 -7 63 5 29 9 70 19 91 23 28 4
37 11 37 26 0 23 16 20 115 -16 52 -19 304 -161 375 -212 l24 -17 -44 -13
c-24 -7 -58 -26 -74 -42 -19 -17 -59 -37 -101 -50 -80 -24 -100 -35 -91 -49 3
-6 38 0 92 15 l86 25 44 -24 c24 -12 44 -26 44 -29 0 -3 -30 -12 -67 -20 -38
-8 -66 -18 -63 -24 5 -11 28 -11 133 0 56 7 73 5 102 -11 19 -10 35 -24 35
-31 0 -7 -25 -20 -55 -28 -30 -9 -58 -21 -61 -27 -11 -17 79 -2 124 21 l37 19
54 -32 c30 -17 56 -36 58 -41 2 -6 -42 -25 -97 -44 -55 -19 -100 -38 -100 -43
0 -12 68 -1 125 19 92 32 123 35 172 13 58 -25 49 -39 -47 -69 -69 -22 -91
-41 -47 -41 12 0 51 9 85 20 35 11 79 20 98 20 41 0 117 -36 111 -53 -2 -7
-46 -29 -97 -49 -163 -65 -142 -81 30 -23 57 19 113 35 123 35 27 0 131 -61
120 -70 -4 -4 -53 -23 -108 -41 -74 -25 -93 -35 -73 -37 26 -3 157 28 208 49
20 9 34 6 77 -18 29 -15 53 -33 53 -40 0 -7 -52 -28 -115 -48 -63 -19 -117
-40 -120 -45 -10 -17 47 -11 108 10 31 11 88 25 127 32 65 11 73 11 115 -10
74 -36 59 -54 -72 -87 -74 -18 -148 -49 -158 -65 -10 -16 30 -7 159 36 128 43
194 45 260 8 25 -14 44 -29 41 -34 -3 -4 -29 -14 -57 -20 -131 -31 -247 -74
-234 -87 2 -2 66 12 142 32 166 45 221 48 261 19 15 -12 27 -25 26 -30 -1 -5
-37 -19 -80 -32 -218 -64 -251 -75 -274 -94 l-24 -20 45 7 c24 3 62 14 85 24
22 10 90 30 150 45 61 15 119 31 130 35 32 13 154 42 239 58 70 12 85 12 135
-2 31 -9 85 -33 121 -54 135 -79 302 -172 505 -284 490 -267 968 -532 1019
-565 l40 -25 -25 -12 c-13 -7 -141 -60 -284 -118 -298 -121 -471 -193 -635
-267 -197 -88 -228 -100 -244 -94 -9 4 -18 0 -22 -10 -3 -9 -10 -16 -15 -16
-14 0 48 85 89 122 66 59 171 116 307 163 122 43 484 155 550 169 75 17 105
27 105 36 0 6 -10 10 -22 10 -30 0 -416 -111 -561 -162 -108 -37 -119 -39
-135 -25 -17 15 -22 14 -74 -21 -31 -20 -87 -56 -125 -80 -101 -62 -183 -158
-183 -215 0 -20 -24 -34 -192 -114 -168 -80 -214 -97 -356 -132 -90 -23 -185
-41 -211 -41 -53 0 -66 -7 -50 -27 14 -16 74 -17 134 -2 63 16 77 6 28 -19
-30 -16 -60 -22 -106 -22 -71 0 -92 -12 -76 -43 6 -11 7 -23 2 -28 -12 -12
-175 -99 -185 -99 -5 0 -14 11 -20 25 -11 24 -8 29 35 69 l47 43 0 71 c0 39
-4 82 -10 96 -8 23 -4 31 43 79 29 30 70 65 92 79 64 40 272 249 280 281 6 22
2 34 -16 53 -12 13 -30 24 -38 24 -49 0 -254 -132 -348 -223 -41 -40 -56 -49
-77 -45 -20 4 -31 -2 -51 -28 -14 -18 -25 -37 -25 -42 0 -18 -31 -22 -59 -7
-25 12 -31 12 -50 -1 -21 -15 -41 -12 -41 7 0 5 12 14 28 20 15 6 36 19 48 30
12 11 56 38 99 60 43 22 101 56 129 77 45 33 48 37 27 40 -13 2 -68 -19 -130
-49 -91 -45 -118 -65 -188 -137 l-83 -83 -57 35 c-88 54 -398 166 -460 166
-33 0 -53 -27 -53 -71 0 -34 5 -42 38 -63 69 -43 255 -133 335 -161 43 -15 80
-31 82 -35 2 -4 -5 -25 -16 -46 -20 -40 -20 -80 2 -127 16 -34 84 -57 180 -60
46 -1 87 -6 91 -12 11 -15 10 -123 -2 -145 -5 -10 -87 -61 -182 -113 -95 -52
-272 -157 -393 -232 -121 -76 -236 -148 -256 -159 -140 -80 -300 -210 -372
-301 -22 -27 -62 -70 -91 -94 -28 -24 -142 -128 -253 -232 -174 -163 -206
-197 -232 -251 -40 -82 -52 -188 -26 -237 22 -43 89 -115 129 -141 59 -36 199
-62 356 -65 117 -2 146 -6 148 -17 2 -8 -7 -57 -19 -109 -33 -146 -33 -148
-14 -169 10 -11 26 -20 35 -20 31 0 40 -22 28 -66 -15 -50 -64 -104 -96 -104
-15 0 -37 -13 -56 -33 -17 -18 -46 -44 -63 -56 -18 -12 -45 -42 -59 -67 -22
-37 -26 -54 -22 -93 7 -67 36 -105 97 -125 27 -9 57 -16 65 -16 8 0 35 -18 61
-40 58 -50 157 -83 208 -69 106 29 153 179 88 281 -16 25 -33 48 -39 52 -5 3
-7 16 -5 30 4 18 -5 35 -36 69 -34 36 -41 51 -41 83 1 51 29 112 77 166 22 24
44 59 49 78 14 46 126 192 203 263 33 30 79 62 103 70 189 66 454 145 461 138
8 -8 5 -30 -20 -128 -4 -17 1 -25 20 -34 23 -10 43 -6 154 34 70 25 217 76
326 112 109 37 214 73 233 81 41 17 56 47 74 144 19 97 31 106 210 170 58 21
191 73 295 115 105 43 262 104 350 135 88 32 246 90 350 128 105 38 260 93
346 121 l157 52 37 -25 c46 -32 88 -40 175 -34 50 4 81 12 114 32 60 35 155
36 281 1 49 -14 107 -25 128 -25 46 0 97 32 97 62 0 11 16 35 35 52 19 18 35
35 35 39 0 19 -42 2 -83 -33 -48 -43 -80 -50 -113 -25 -19 15 -18 16 9 36 30
23 36 49 11 49 -17 0 -73 -36 -89 -58 -17 -21 -81 -1 -77 24 12 71 0 78 -52
29 -21 -19 -46 -35 -55 -35 -26 0 -41 22 -34 48 7 29 -8 28 -57 -4 -45 -30
-74 -28 -78 4 -4 28 -23 28 -47 2 -14 -15 -29 -20 -54 -18 -30 3 -36 6 -33 25
5 34 -14 36 -51 3 -42 -37 -60 -38 -75 -5 -6 14 -19 25 -27 25 -9 0 -20 -11
-25 -25 -13 -33 -67 -36 -72 -4 -3 20 -4 20 -42 -6 -34 -23 -42 -25 -62 -14
-17 9 -27 9 -36 1 -8 -6 -38 -14 -68 -17 -96 -12 -253 -65 -485 -165 -60 -26
-135 -55 -165 -65 -30 -10 -116 -44 -190 -76 -74 -31 -225 -92 -335 -134 -231
-88 -398 -154 -505 -197 -41 -17 -97 -38 -125 -48 -27 -9 -115 -42 -195 -72
-80 -31 -176 -65 -214 -77 -38 -12 -94 -32 -125 -46 -181 -79 -407 -154 -586
-196 -71 -16 -154 -35 -184 -42 -30 -7 -57 -19 -59 -27 -6 -17 111 -7 253 21
54 11 107 18 116 16 10 -3 61 6 116 19 110 27 116 28 109 15 -3 -5 -23 -12
-43 -15 -21 -4 -85 -20 -143 -36 -58 -16 -139 -34 -180 -40 -41 -5 -95 -14
-120 -20 -25 -5 -124 -13 -220 -16 -279 -10 -411 26 -505 137 -14 17 -28 41
-31 54 -8 33 45 140 108 215 53 62 407 393 441 411 14 8 17 5 17 -20 0 -33 27
-55 55 -45 24 10 78 94 85 133 4 30 13 40 63 68 32 18 175 112 317 210 288
197 395 266 485 311 68 34 118 71 96 72 -37 1 -319 -173 -666 -410 -268 -182
-289 -196 -333 -205 -82 -17 -13 43 238 208 702 461 1514 894 2405 1282 901
393 1912 779 2330 890 55 15 154 44 221 65 66 22 155 46 198 55 43 9 114 29
159 45 45 16 136 43 202 60 66 17 210 58 320 90 493 144 596 173 690 196 164
39 846 244 1215 366 272 89 477 168 530 204 43 29 66 30 80 3 17 -30 125 -97
189 -115 186 -55 221 -75 236 -135 7 -28 -3 -40 -50 -57 -85 -30 -251 -104
-265 -118 -30 -32 79 -9 192 40 119 51 128 53 128 31 0 -21 -74 -66 -165 -101
-70 -27 -89 -44 -65 -59 5 -3 42 6 82 20 141 51 151 42 63 -54 -63 -67 -130
-104 -400 -214 -198 -82 -397 -165 -535 -224 -58 -25 -134 -57 -169 -72 -36
-14 -66 -31 -68 -38 -9 -25 42 -24 102 3 33 14 128 53 210 84 154 60 615 265
763 339 95 48 162 103 162 135 0 11 14 45 30 75 21 37 30 68 30 98 0 24 5 53
11 64 21 40 -62 168 -127 195 -17 7 -62 18 -100 24 -81 13 -135 37 -193 86
l-42 36 41 44 c35 39 40 49 40 93 0 45 -3 53 -37 81 -31 26 -399 236 -703 402
-517 283 -647 366 -686 440 -22 43 -17 73 17 102 61 52 89 27 89 -78 0 -56 3
-67 23 -81 22 -15 22 -15 28 42 4 32 7 103 8 158 2 216 29 345 102 491 62 125
97 167 161 200 80 41 121 18 194 -104 43 -74 94 -211 94 -253 0 -13 -12 -25
-35 -35 -56 -23 -45 -45 11 -24 33 13 40 5 49 -59 3 -25 8 -60 11 -77 5 -28 3
-31 -35 -43 -56 -16 -53 -34 4 -25 l45 6 0 -64 0 -64 -42 -14 c-31 -11 -44
-21 -46 -38 -5 -30 18 -37 63 -18 21 9 52 16 70 16 18 0 124 -33 236 -74 398
-144 852 -315 863 -326 7 -7 5 -23 -5 -53 -12 -32 -22 -43 -40 -45 -34 -4
-298 93 -989 364 -119 46 -228 84 -242 84 -25 0 -27 3 -32 63 -3 34 -11 145
-16 247 -18 315 -30 471 -36 482 -13 21 -144 -17 -144 -43 0 -6 19 -7 50 -3
40 5 50 4 50 -8 0 -23 -29 -44 -97 -68 -69 -25 -101 -50 -64 -50 11 0 44 9 73
20 68 26 88 26 88 -1 0 -22 -43 -45 -160 -84 -35 -12 -66 -27 -68 -34 -6 -19
54 -12 112 13 77 34 110 40 125 22 17 -20 0 -50 -36 -63 -15 -6 -62 -23 -103
-38 -41 -15 -87 -32 -102 -37 -29 -11 -39 -38 -14 -38 8 0 36 9 63 21 61 26
163 59 186 59 11 0 17 -8 17 -24 0 -28 -39 -63 -79 -72 -58 -13 -191 -57 -208
-69 -10 -7 -15 -17 -11 -21 9 -8 75 10 192 53 49 18 94 33 101 33 17 0 25 -46
11 -65 -10 -14 -237 -105 -262 -105 -7 0 -22 -9 -35 -20 l-24 -19 22 -1 c12 0
79 21 150 46 70 25 135 46 143 47 18 2 26 -39 11 -57 -6 -7 -70 -34 -143 -60
-182 -66 -178 -64 -178 -82 0 -11 5 -14 18 -10 9 4 82 32 161 62 91 36 147 52
153 46 5 -5 8 -22 6 -37 -3 -24 -13 -31 -88 -61 -47 -19 -115 -43 -152 -54
-79 -22 -91 -28 -82 -41 8 -14 46 -4 186 47 117 44 156 49 145 19 -9 -22 25
-56 72 -74 24 -9 42 -20 41 -26 -2 -5 -37 -24 -79 -41 -114 -46 -145 -64 -133
-76 13 -13 31 -6 175 60 81 37 103 44 124 36 37 -13 40 -32 7 -45 -59 -22
-205 -112 -196 -121 13 -13 51 4 164 73 l99 60 70 -23 c39 -13 71 -28 72 -33
1 -5 -58 -30 -132 -56 -139 -49 -180 -72 -147 -85 10 -4 44 6 84 24 37 17 92
40 122 53 30 12 64 29 75 36 29 19 66 16 116 -10 24 -13 60 -27 79 -31 19 -3
55 -16 80 -28 25 -12 78 -34 119 -48 41 -14 76 -31 78 -36 2 -5 -68 -43 -154
-83 -156 -73 -193 -95 -181 -107 14 -13 70 10 223 92 l160 85 53 -17 c29 -10
61 -23 70 -30 15 -11 14 -14 -13 -24 -16 -6 -103 -48 -192 -92 -122 -61 -163
-86 -163 -100 0 -29 28 -21 113 33 104 67 289 159 319 159 27 0 108 -35 108
-47 0 -4 -84 -51 -187 -103 -102 -52 -192 -101 -200 -108 -15 -16 -9 -32 13
-32 14 0 158 82 317 181 77 48 97 57 97 42 0 -5 -14 -40 -31 -79 l-31 -71
-114 -58 c-84 -42 -114 -63 -114 -76 0 -26 10 -24 90 16 74 37 80 39 80 27 0
-10 -105 -150 -142 -189 -48 -50 -15 -72 50 -33 60 37 101 88 177 220 103 180
169 313 190 385 23 81 157 335 218 413 27 34 76 83 109 108 66 51 92 53 138 9
14 -13 39 -36 56 -52 69 -64 128 -287 141 -535 l6 -118 -54 -23 c-30 -13 -67
-29 -82 -36 -30 -12 -32 -34 -3 -39 10 -2 39 3 66 12 27 9 58 16 68 16 21 0
388 -132 682 -245 96 -37 216 -82 265 -100 50 -18 127 -47 173 -65 l82 -31 0
-52 c0 -80 -6 -83 -86 -57 -38 13 -161 59 -274 102 -113 44 -270 104 -350 133
-315 115 -645 248 -671 271 -30 27 -86 16 -217 -42 -70 -31 -188 -81 -262
-111 -74 -31 -142 -62 -151 -69 -8 -8 -25 -14 -37 -14 -20 0 -52 -24 -52 -39
0 -5 7 -14 15 -21 13 -11 27 -8 78 13 34 14 89 35 121 47 32 11 111 45 175 74
64 30 158 70 210 91 81 32 95 35 103 22 8 -15 113 -77 129 -77 24 0 118 -43
113 -52 -8 -12 -220 -118 -329 -164 -80 -33 -116 -64 -59 -50 29 7 278 130
364 180 25 14 54 26 65 26 30 0 139 -36 142 -47 6 -16 -282 -150 -343 -160
-25 -4 -34 -11 -34 -25 0 -10 7 -21 15 -24 8 -4 102 36 208 87 112 54 204 92
222 92 17 0 76 -19 133 -43 84 -35 101 -46 90 -56 -7 -7 -85 -46 -173 -88 -94
-44 -161 -81 -163 -90 -6 -30 32 -16 216 78 l183 94 47 -15 c26 -9 53 -22 61
-29 13 -11 12 -14 -5 -20 -10 -4 -50 -20 -89 -37 -38 -17 -106 -43 -150 -58
-82 -28 -108 -55 -50 -53 32 2 288 115 315 139 14 13 23 12 68 -2 29 -9 52
-20 52 -25 0 -10 -200 -110 -255 -128 -22 -7 -43 -14 -47 -17 -12 -6 3 -33 18
-33 7 0 85 36 172 80 87 44 165 80 173 80 18 0 270 -98 286 -112 17 -14 17
-72 0 -86 -7 -6 -41 -21 -75 -34 -35 -13 -63 -28 -63 -33 1 -17 47 -17 86 -1
52 22 55 21 55 -19 0 -35 29 -63 50 -50 6 4 10 59 10 128 0 67 4 147 10 177
50 289 85 401 160 512 53 79 75 103 124 139 51 38 86 37 126 -2 72 -72 168
-344 139 -391 -13 -20 -10 -38 5 -38 10 0 17 -16 22 -47 7 -48 -1 -242 -11
-279 -4 -11 -25 -29 -48 -40 -28 -13 -43 -26 -45 -41 -4 -27 22 -31 52 -8 29
22 51 19 125 -20 78 -41 92 -60 98 -134 5 -52 3 -58 -25 -85 -33 -30 -117 -56
-187 -56 -60 0 -289 50 -638 139 -172 44 -512 128 -757 186 -245 58 -503 121
-575 140 -271 71 -394 95 -495 94 -174 -1 -217 -39 -116 -103 31 -20 56 -41
56 -48 0 -7 -9 -24 -20 -38 -26 -34 -25 -43 5 -36 28 7 30 1 10 -34 -31 -54
-15 -53 106 6 105 51 219 95 219 85 0 -10 -128 -82 -242 -136 -92 -43 -119
-68 -104 -94 7 -11 186 78 329 163 54 32 100 56 103 53 8 -7 -119 -121 -223
-199 -132 -99 -497 -342 -625 -416 -56 -33 -216 -116 -355 -185 -138 -70 -254
-130 -257 -135 -3 -5 -32 -20 -63 -32 -32 -13 -116 -50 -186 -83 -86 -40 -132
-56 -138 -50 -6 6 -15 107 -20 224 -9 212 -15 265 -37 306 -16 29 -28 32 -105
24 -60 -6 -71 -11 -107 -46 -51 -50 -55 -63 -39 -140 16 -80 10 -88 -85 -116
-62 -18 -318 -120 -561 -224 -103 -44 -380 -159 -470 -195 -603 -241 -641
-257 -760 -310 -22 -10 -74 -30 -115 -45 -41 -15 -140 -56 -220 -90 -80 -34
-183 -77 -230 -95 -47 -18 -128 -51 -180 -73 -308 -128 -387 -161 -495 -207
-49 -21 -126 -52 -170 -69 -177 -68 -624 -251 -795 -326 -47 -20 -125 -52
-175 -70 -49 -18 -144 -57 -210 -85 -125 -55 -209 -87 -309 -122 -33 -11 -98
-39 -145 -63 -48 -23 -97 -46 -111 -50 -14 -4 -59 -22 -100 -40 -41 -17 -100
-40 -130 -49 -69 -22 -238 -101 -262 -123 -23 -21 -13 -35 17 -23 34 13 49
-17 41 -80 -5 -36 -3 -50 9 -60 18 -15 -37 -36 890 347 60 25 145 58 187 74
43 16 135 53 206 82 70 30 179 73 242 97 63 24 140 54 170 68 69 31 280 115
382 153 42 15 100 40 129 55 29 14 71 33 93 41 23 9 70 26 106 40 36 14 100
38 143 53 44 16 87 36 96 44 10 9 22 16 28 16 6 0 39 13 74 29 36 16 89 36
119 44 30 8 105 36 165 62 61 26 175 72 255 102 80 30 190 74 245 98 55 24
161 67 235 95 74 29 173 69 220 90 47 21 112 47 145 58 33 12 107 42 165 67
58 26 152 65 210 87 58 22 188 75 290 119 102 43 195 79 206 79 12 0 77 28
145 61 165 82 278 129 308 129 23 0 24 -1 19 -70 -5 -67 -4 -71 21 -89 l26
-19 -60 -27 c-99 -44 -324 -135 -425 -172 -52 -19 -108 -43 -125 -53 -43 -26
-581 -250 -600 -250 -10 0 -15 7 -13 16 3 17 39 34 273 127 279 112 321 129
365 152 25 13 106 48 181 78 75 31 159 67 188 81 102 52 40 45 -91 -10 -46
-20 -141 -60 -213 -89 -71 -30 -179 -75 -240 -100 -105 -45 -267 -109 -403
-161 -98 -38 -122 -53 -187 -118 -114 -115 -221 -303 -269 -473 -27 -97 -30
-120 -20 -173 10 -47 75 -85 360 -209 138 -59 310 -135 384 -168 74 -34 212
-93 305 -133 94 -40 199 -86 235 -102 154 -72 221 -102 325 -144 61 -25 160
-69 220 -98 61 -29 190 -88 287 -132 98 -43 176 -83 175 -89 -2 -5 -45 -24
-97 -42 -51 -18 -98 -37 -104 -43 -5 -5 -18 -10 -28 -10 -10 0 -30 -13 -44
-29 -29 -33 -64 -49 -257 -116 -76 -26 -148 -56 -160 -67 l-22 -19 35 7 c19 3
60 16 90 29 30 12 93 35 140 50 47 15 101 36 120 46 63 31 103 33 150 9 24
-12 39 -25 34 -30 -5 -5 -67 -30 -139 -56 -144 -51 -225 -89 -225 -104 0 -15
12 -12 75 15 73 33 282 105 303 105 8 0 23 7 32 15 16 14 25 12 95 -20 42 -19
95 -40 116 -47 53 -15 68 -34 43 -52 -10 -8 -81 -36 -156 -62 -76 -26 -138
-51 -138 -56 0 -4 3 -8 8 -8 14 0 136 38 222 69 96 35 170 40 228 15 46 -19
41 -22 -101 -63 -120 -35 -157 -50 -157 -63 0 -12 5 -11 110 22 51 17 101 30
110 30 9 0 33 9 55 20 50 26 65 25 123 -4 26 -13 121 -54 212 -91 91 -38 169
-72 174 -76 9 -8 -115 -99 -186 -135 -49 -25 -66 -51 -25 -38 45 14 104 48
176 101 72 54 74 55 111 44 21 -6 48 -19 60 -29 21 -17 21 -17 -47 -56 -130
-75 -183 -109 -183 -117 0 -5 2 -9 5 -9 10 0 88 41 182 96 98 58 104 60 152
43 52 -18 40 -41 -48 -89 -86 -46 -156 -99 -131 -100 8 0 62 29 119 65 57 35
119 67 137 71 37 7 127 -22 121 -39 -2 -6 -54 -37 -115 -70 -62 -33 -112 -66
-112 -74 0 -7 2 -13 5 -13 3 0 61 32 130 70 69 39 134 70 145 70 31 0 92 -28
86 -39 -4 -5 -60 -40 -126 -76 -66 -37 -117 -71 -114 -77 9 -13 33 -3 156 68
62 35 123 64 135 64 24 0 93 -30 93 -40 0 -3 -43 -33 -96 -65 -52 -33 -98 -63
-101 -68 -15 -24 14 -15 79 23 168 99 156 94 198 81 22 -6 42 -17 46 -23 8
-13 6 -14 -108 -89 -72 -47 -94 -69 -67 -69 6 0 59 31 117 70 76 50 113 68
127 64 49 -15 86 -34 81 -42 -3 -5 -50 -35 -105 -68 -55 -32 -101 -65 -101
-71 0 -28 25 -16 154 68 48 33 93 59 100 59 6 0 31 -10 56 -21 l44 -20 -44
-30 c-25 -17 -75 -46 -112 -65 -40 -20 -68 -41 -68 -50 0 -22 31 -11 120 43
41 26 90 55 109 66 l34 21 93 -33 94 -33 40 35 c48 44 102 72 155 81 38 7 59
-2 270 -105 254 -124 319 -164 383 -232 47 -52 50 -72 23 -132 -24 -53 -77
-98 -145 -124 -97 -36 -296 -51 -296 -21 0 16 -42 22 -65 10 -17 -9 -29 -9
-58 4 -21 8 -37 22 -37 30 0 20 -19 20 -47 1 -28 -20 -73 -5 -73 25 0 23 -9
25 -43 9 -31 -14 -87 12 -87 41 0 28 -15 32 -54 13 -30 -14 -41 -15 -76 -4
-36 11 -56 31 -30 31 16 0 12 30 -5 36 -8 3 -27 -3 -42 -14 -27 -19 -29 -19
-73 -2 -39 15 -45 21 -42 44 4 30 -8 33 -43 10 -20 -13 -30 -13 -64 -3 -44 13
-48 19 -29 49 19 30 2 35 -39 10 -38 -22 -60 -22 -116 -1 -24 9 -26 13 -15 30
18 29 1 38 -33 18 -39 -22 -57 -21 -98 4 -32 19 -33 21 -16 39 16 17 16 20 2
26 -9 3 -29 -4 -45 -16 -26 -19 -34 -20 -70 -11 -50 14 -59 26 -38 50 14 16
14 20 2 30 -11 9 -20 6 -44 -14 -28 -24 -35 -25 -70 -15 -50 13 -68 32 -47 50
19 16 19 39 -1 47 -10 4 -25 -6 -43 -28 -28 -32 -29 -33 -69 -21 -50 15 -59
28 -37 52 17 19 13 40 -8 40 -6 0 -23 -12 -39 -27 -26 -25 -30 -26 -68 -14
-49 14 -57 31 -35 64 26 40 -1 44 -40 7 -29 -28 -38 -32 -68 -26 -18 3 -42 12
-52 20 -18 13 -18 15 8 46 25 30 28 50 6 50 -5 0 -27 -16 -49 -36 -35 -32 -44
-35 -75 -30 -38 8 -55 30 -36 49 16 16 14 47 -3 47 -8 0 -26 -13 -39 -30 -25
-29 -27 -29 -63 -17 -51 17 -66 44 -36 64 12 9 22 22 22 29 0 23 -34 16 -70
-16 -39 -33 -48 -35 -85 -18 -30 14 -32 38 -5 63 11 10 20 24 20 32 0 25 -33
13 -70 -27 -35 -38 -38 -39 -74 -29 -46 13 -54 32 -31 71 12 21 14 33 7 40
-17 17 -41 2 -59 -37 -19 -39 -28 -42 -78 -21 -40 17 -44 37 -14 74 l21 27
-23 3 c-17 3 -32 -6 -54 -31 -27 -32 -33 -34 -63 -25 -43 12 -49 30 -23 71 25
40 26 47 7 47 -8 0 -30 -19 -50 -41 -30 -36 -39 -41 -63 -34 -60 15 -65 50
-14 92 20 17 23 24 14 34 -16 17 -58 -11 -85 -57 -18 -30 -25 -35 -47 -29 -32
8 -61 33 -61 53 0 8 12 30 26 49 14 19 23 37 20 40 -12 13 -56 -18 -81 -56
-21 -30 -31 -38 -48 -33 -61 14 -75 68 -27 104 32 24 40 48 14 48 -29 0 -53
-20 -80 -65 -26 -46 -41 -53 -73 -35 -38 20 -34 57 12 107 18 20 18 23 3 29
-21 8 -41 -9 -73 -63 -13 -24 -30 -43 -36 -43 -18 0 -77 38 -77 50 0 5 16 28
35 49 20 22 32 42 27 45 -14 8 -72 -32 -90 -64 -28 -48 -82 -35 -82 20 0 14 7
34 15 44 19 25 19 36 0 36 -9 0 -29 -21 -46 -48 -35 -55 -53 -60 -57 -14 -4
43 22 84 103 163 61 59 165 121 252 150 32 10 43 32 23 44 -18 11 -134 -34
-199 -76 -72 -47 -176 -146 -215 -206 -21 -32 -29 -57 -33 -116 -5 -67 -8 -74
-22 -65 -14 8 -40 -2 -122 -45 -110 -60 -151 -86 -132 -87 6 0 33 9 59 20 26
11 49 19 51 16 16 -16 -522 -258 -639 -288 -93 -23 -118 -34 -118 -50 0 -18
101 -3 166 25 33 14 151 64 263 111 136 57 251 113 346 170 155 93 199 111
193 80 -2 -11 -38 -40 -85 -69 -44 -27 -103 -65 -130 -83 -60 -42 -133 -76
-398 -189 -115 -50 -241 -98 -280 -107 -102 -26 -126 -36 -123 -55 6 -29 84
-25 192 9 53 17 112 40 129 50 18 11 104 52 192 93 88 40 242 117 343 170 101
53 185 97 188 97 3 0 4 -12 2 -27 -5 -46 -198 -154 -631 -353 -200 -91 -322
-127 -464 -137 -81 -5 -93 -4 -93 10 0 9 14 25 30 37 64 45 88 136 70 257
l-12 78 58 49 c130 110 284 283 321 360 16 34 16 37 -1 55 -10 11 -16 25 -14
31 5 17 144 69 416 155 349 111 345 110 350 123 7 22 -81 13 -209 -22 -68 -19
-164 -44 -214 -56 -49 -12 -119 -32 -155 -45 -36 -13 -96 -30 -132 -40 -98
-24 -112 -9 -52 57 25 28 33 43 25 51 -13 13 -52 -12 -93 -59 -33 -37 -53 -42
-83 -20 -17 12 -18 17 -6 38 7 14 26 32 42 42 34 20 38 46 7 46 -13 0 -41 -20
-71 -51 -42 -43 -53 -50 -75 -44 -64 16 -68 50 -12 102 61 57 50 84 -17 43
-18 -10 -44 -37 -59 -60 -26 -39 -45 -47 -78 -34 -38 14 3 109 53 125 9 3 12
12 8 21 -12 33 -79 -10 -133 -87 -19 -27 -24 -29 -50 -20 -44 16 -42 46 5 96
46 48 47 49 25 49 -28 0 -82 -39 -104 -76 -24 -38 -47 -43 -79 -16 l-21 17 35
52 c19 29 35 57 35 63 0 25 -32 6 -77 -45 -47 -53 -69 -64 -107 -49 -23 9 -20
44 9 86 44 64 28 79 -27 25 -18 -19 -40 -44 -48 -57 -12 -17 -21 -21 -38 -16
-33 11 -29 57 8 99 30 35 38 57 21 57 -16 0 -69 -50 -91 -85 -23 -37 -56 -46
-67 -19 -3 9 1 37 11 62 11 32 13 49 6 56 -19 19 -45 -8 -51 -52 -6 -47 -13
-57 -29 -47 -19 12 -5 91 24 135 26 39 109 102 178 134 47 22 65 43 51 57 -14
14 -126 -44 -203 -104 -81 -64 -115 -117 -112 -177 l2 -47 -73 -33 c-113 -51
-667 -258 -917 -344 -43 -14 -54 -46 -16 -46 30 0 195 56 296 100 41 18 143
59 227 91 83 32 160 63 170 68 10 6 82 36 160 66 138 54 144 55 173 40 87 -45
-10 -97 -490 -263 -157 -55 -461 -150 -532 -166 -29 -7 -38 -33 -15 -41 7 -3
32 -1 57 4 88 19 456 133 535 166 44 18 116 47 160 65 141 57 209 86 272 119
63 31 139 43 131 19 -5 -15 -122 -86 -168 -103 -20 -7 -76 -33 -125 -58 -121
-60 -400 -166 -587 -223 -155 -46 -298 -66 -362 -50 l-27 7 28 47 c24 41 28
57 28 129 0 69 -3 86 -22 111 l-23 31 83 67 c112 94 161 144 240 249 48 64 67
99 67 120 0 29 2 30 83 49 45 10 123 31 172 47 107 33 227 65 465 125 96 25
189 49 205 54 17 5 63 17 103 26 39 9 72 20 72 25 0 13 -28 11 -95 -7 -33 -8
-116 -26 -185 -39 -69 -13 -151 -33 -184 -45 -32 -12 -86 -25 -120 -30 -130
-19 -236 -41 -371 -76 -177 -45 -195 -48 -195 -37 0 5 29 23 65 41 64 32 82
52 46 52 -21 0 -187 -86 -197 -102 -4 -6 2 -8 16 -3 15 5 20 4 16 -4 -4 -5
-21 -15 -39 -20 -57 -17 -233 -98 -344 -158 -126 -69 -207 -144 -224 -207 -15
-62 -17 -66 -33 -66 -8 0 -61 32 -118 70 -95 65 -118 75 -290 131 -180 59
-188 61 -213 45 -55 -36 -40 -92 41 -149 69 -49 256 -143 355 -178 49 -17 93
-37 98 -43 7 -8 2 -28 -14 -61 -31 -60 -31 -93 -3 -135 34 -49 100 -79 191
-86 l77 -7 0 -96 c0 -56 8 -136 20 -191 28 -139 81 -322 98 -342 39 -46 132
-2 132 62 0 62 -42 258 -80 377 -22 67 -40 129 -40 138 0 19 20 19 90 0 87
-23 155 -19 287 19 140 41 429 142 458 161 11 6 74 36 140 65 66 29 179 81
250 115 211 101 265 125 280 125 25 0 17 -18 -14 -35 -36 -18 -61 -52 -61 -82
0 -14 18 -43 42 -69 46 -50 42 -71 -11 -59 -45 10 -79 41 -91 86 -12 42 -20
48 -40 24 -17 -21 3 -75 46 -119 40 -41 99 -60 161 -53 35 4 56 -2 119 -34
118 -60 202 -54 277 19 36 35 77 121 77 163 0 32 23 32 122 -1 111 -39 153
-59 142 -69 -5 -4 -47 -23 -94 -41 -116 -45 -350 -162 -432 -217 -72 -47 -119
-99 -143 -157 -9 -22 -22 -36 -33 -36 -9 0 -62 25 -117 55 -55 31 -148 73
-206 95 -59 21 -122 47 -142 56 -46 22 -60 15 -87 -41 -23 -47 -23 -47 -3 -73
44 -60 210 -150 346 -188 54 -15 109 -36 123 -46 l24 -20 -21 -35 c-39 -62
-25 -168 29 -216 27 -25 137 -57 195 -57 56 0 52 7 92 -160 30 -129 111 -345
150 -402 18 -26 33 -38 50 -38 33 0 65 44 65 90 0 61 -47 290 -74 361 l-25 66
107 6 c100 5 116 8 252 62 80 31 159 65 175 75 17 11 132 67 255 125 227 107
336 165 532 283 75 44 121 66 150 69 35 3 97 -14 338 -97 517 -177 940 -317
2000 -660 190 -62 390 -127 445 -146 55 -19 145 -47 200 -63 55 -16 145 -43
200 -60 164 -50 285 -64 418 -51 144 14 231 51 284 119 92 120 85 221 -23 324
-45 44 -57 52 -188 129 -65 38 -198 98 -218 98 -5 0 -104 43 -219 95 -114 52
-211 95 -213 95 -3 0 -64 27 -136 60 -148 68 -412 182 -600 260 -69 28 -154
65 -190 80 -36 16 -191 83 -345 149 -154 66 -372 159 -485 209 -113 49 -275
119 -360 156 -85 37 -169 74 -187 82 -17 8 -34 14 -37 14 -4 0 -43 17 -89 39
-45 21 -98 45 -117 54 -19 8 -61 27 -92 41 -31 14 -65 26 -75 26 -11 0 -41 14
-68 31 -26 17 -70 39 -97 50 -76 30 -376 164 -439 196 -72 36 -135 65 -354
162 -99 43 -205 90 -235 104 -101 45 -154 69 -340 148 -102 44 -193 89 -202
100 -11 13 -18 38 -18 64 0 41 45 199 68 240 6 11 18 36 25 55 16 40 -10 27
407 206 124 53 317 137 430 186 113 49 229 98 259 109 30 10 62 26 71 34 9 8
96 53 195 101 98 48 233 116 299 152 67 36 180 95 251 132 72 36 166 90 211
121 44 30 116 72 160 93 43 20 88 43 99 49 144 81 263 151 275 161 8 7 67 43
130 81 63 37 144 91 180 120 36 28 81 60 100 70 19 10 49 29 65 42 17 14 68
50 115 80 158 104 416 302 428 327 14 31 52 34 128 11 27 -8 144 -38 259 -66
116 -28 354 -86 530 -129 176 -43 356 -86 400 -96 91 -20 111 -33 120 -78 4
-17 20 -53 35 -81 51 -90 185 -145 312 -129 67 9 99 25 159 81 44 41 55 46
111 52 71 8 179 58 202 94 8 12 20 43 26 70 9 41 8 53 -11 90 -34 66 -67 106
-104 121 -58 24 -67 50 -66 180 2 137 -29 366 -64 482 -28 90 -62 144 -126
196 -43 35 -46 35 -104 28 -118 -14 -166 -54 -253 -215 -51 -92 -85 -183 -97
-258 -3 -21 -13 -41 -21 -44 -9 -3 -73 16 -142 42 -70 27 -167 63 -217 80
-141 50 -580 212 -681 252 l-91 35 -7 112 c-14 243 -65 439 -151 583 -27 45
-93 97 -143 112 -123 35 -259 -89 -410 -374 -80 -152 -68 -143 -154 -110 -40
15 -145 53 -233 85 -88 31 -214 78 -280 103 -66 25 -205 77 -310 117 -104 39
-195 76 -201 83 -6 7 -21 77 -33 157 -11 80 -35 192 -51 249 -17 57 -30 109
-30 115 0 6 -18 47 -41 91 -52 103 -117 171 -183 190 -27 8 -50 15 -50 15 -1
-1 -22 -12 -47 -25z m-7089 -1879 c201 -112 399 -221 440 -243 41 -22 152 -82
245 -135 94 -52 239 -132 323 -179 83 -46 152 -86 152 -89 0 -3 -21 -11 -47
-17 -27 -6 -68 -19 -93 -28 l-46 -16 -269 154 c-149 85 -333 191 -410 237 -77
46 -183 108 -235 137 -76 44 -456 271 -569 340 -14 9 -20 18 -14 24 14 14 94
28 128 22 17 -3 194 -96 395 -207z m8750 -226 c0 -9 -31 -30 -45 -30 -3 0 -1
9 5 20 11 20 40 28 40 10z m135 -40 c-11 -4 -36 -11 -55 -15 l-35 -7 35 25
c28 20 39 23 55 14 19 -10 19 -10 0 -17z m1775 -443 c22 -18 78 -53 124 -78
47 -24 86 -47 86 -51 0 -12 -93 -9 -131 3 -43 15 -85 54 -110 101 -34 66 -25
73 31 25z m-3605 -235 c19 -13 31 -116 34 -294 l3 -177 -33 -20 c-46 -28 -129
-47 -139 -31 -4 6 -10 69 -14 138 -3 70 -11 157 -18 194 -9 58 -9 73 6 112 23
59 57 86 110 86 22 0 46 -4 51 -8z m-7195 -247 c-85 -85 -120 -111 -120 -87 0
10 124 131 170 165 65 49 44 17 -50 -78z m-831 0 c77 -33 126 -63 181 -108 69
-57 72 -62 48 -65 -14 -2 -50 9 -80 24 -74 38 -318 194 -318 204 0 13 50 -4
169 -55z m7816 -83 l0 -63 -128 -52 c-94 -38 -130 -48 -139 -39 -6 6 -13 34
-16 61 l-5 51 39 15 c22 9 53 22 69 30 173 84 180 84 180 -3z m-7115 -30 c0
-4 -18 -26 -40 -47 -48 -47 -53 -37 -7 15 31 38 47 48 47 32z m-220 -102 c28
-22 80 -26 98 -8 9 9 12 7 12 -11 0 -16 -5 -21 -14 -18 -23 9 -36 -15 -36 -70
0 -67 -9 -72 -148 -84 -132 -12 -166 -34 -73 -46 23 -3 44 -10 48 -16 4 -6
-11 -7 -42 -3 -69 11 -75 15 -95 59 -18 40 -18 42 1 79 21 42 42 58 133 104
74 38 84 39 116 14z m6998 -17 c3 -25 -2 -35 -22 -48 -14 -9 -30 -14 -36 -10
-16 10 -12 56 7 77 24 27 47 19 51 -19z m-178 -15 c38 -12 50 -29 50 -71 0
-13 -24 -29 -84 -57 -136 -63 -132 -63 -145 15 -7 37 -10 69 -7 72 8 8 121 53
134 53 7 0 30 -6 52 -12z m-236 -134 c13 -33 5 -55 -26 -74 -36 -22 -58 -13
-58 24 0 26 9 39 35 54 28 16 42 15 49 -4z m-171 -29 c9 -8 21 -31 27 -51 11
-31 10 -37 -7 -50 -29 -24 -119 -65 -155 -70 -31 -5 -34 -3 -46 29 -10 28 -10
40 2 69 18 42 31 54 82 72 51 19 79 19 97 1z m-6368 -35 c-3 -5 -10 -10 -16
-10 -5 0 -9 5 -9 10 0 6 7 10 16 10 8 0 12 -4 9 -10z m6129 -106 c13 -35 6
-55 -26 -69 -40 -16 -58 -5 -58 35 0 22 6 31 28 38 39 15 49 14 56 -4z m-162
-27 c63 -53 38 -94 -91 -154 -102 -47 -115 -43 -119 30 -4 71 3 80 82 117 75
35 94 36 128 7z m-272 -177 c0 -26 -31 -50 -64 -50 -13 0 -44 57 -35 63 2 2
20 13 39 25 32 20 36 20 48 5 6 -9 12 -29 12 -43z m-5681 -59 c23 -97 29 -190
10 -158 -20 35 -50 247 -35 247 2 0 14 -40 25 -89z m5525 28 c7 -70 -3 -96
-42 -105 -15 -3 -52 -16 -83 -30 -31 -13 -63 -24 -72 -24 -27 0 -50 106 -29
136 4 6 39 23 77 39 39 15 74 31 80 36 5 5 21 9 36 9 25 0 26 -3 33 -61z
m-4004 45 c0 -10 -160 -186 -199 -220 -20 -17 -58 -45 -86 -64 -97 -65 -147
-105 -166 -137 -19 -30 -19 -34 -4 -62 14 -29 14 -31 -7 -45 -13 -8 -63 -19
-113 -25 -104 -14 -125 -19 -125 -31 0 -25 41 -30 127 -16 91 14 104 13 85 -6
-12 -12 -197 -24 -235 -14 -29 7 -77 53 -77 74 0 8 18 32 40 55 39 38 41 39
60 22 19 -17 23 -17 102 4 46 11 85 27 87 33 8 25 296 294 365 342 39 27 85
60 101 73 30 23 45 29 45 17z m3719 -166 c12 -32 2 -58 -26 -71 -21 -9 -27 -8
-39 8 -19 26 -18 62 4 74 28 17 52 12 61 -11z m-146 -51 c4 -28 4 -55 -2 -66
-13 -23 -157 -93 -185 -89 -18 3 -22 12 -28 68 -8 74 -12 69 86 112 34 15 74
26 91 25 27 -2 30 -6 38 -50z m-4659 -2 c125 -37 390 -173 339 -175 -19 0
-194 51 -243 72 -102 43 -275 158 -202 135 9 -3 57 -18 106 -32z m4384 -132
c3 -33 -25 -63 -59 -63 -16 0 -39 38 -39 65 0 20 30 35 65 32 26 -2 30 -7 33
-34z m-149 -25 c13 -42 12 -49 -3 -72 -17 -26 -166 -104 -208 -109 -18 -2 -25
6 -36 38 -11 35 -11 44 2 73 13 26 34 41 109 77 50 24 99 43 107 42 8 -1 21
-23 29 -49z m-3690 3 c23 -15 5 -28 -63 -46 -87 -24 -100 -15 -35 23 57 33 75
37 98 23z m3383 -147 c15 -31 2 -55 -35 -68 -51 -19 -80 47 -35 78 33 23 57
20 70 -10z m-133 -53 c19 -59 -20 -93 -171 -147 -42 -15 -50 -9 -61 51 -3 17
-9 38 -12 48 -6 14 4 22 51 43 159 71 171 72 193 5z m-306 -140 c10 -41 1 -52
-44 -54 -31 -2 -34 1 -37 30 -2 23 3 35 20 47 32 23 50 16 61 -23z m-2882 -2
c10 -35 10 -72 0 -88 -8 -12 -12 -12 -25 -2 -16 14 -23 101 -9 115 12 11 27 0
34 -25z m2741 -25 l16 -49 -31 -33 c-21 -22 -64 -45 -134 -72 -57 -22 -106
-40 -108 -40 -2 0 -9 25 -15 55 -8 37 -8 60 -1 73 6 11 53 38 108 61 54 23
105 46 113 51 24 16 34 7 52 -46z m-342 -155 c9 -16 8 -26 -5 -45 -22 -34 -55
-28 -68 10 -8 24 -6 32 9 43 26 19 52 16 64 -8z m-140 -40 c21 -79 -1 -103
-140 -153 -88 -32 -106 -32 -114 -3 -10 39 -6 94 8 106 19 16 198 90 218 91
12 0 21 -13 28 -41z m-324 -155 c8 -41 0 -51 -43 -60 -29 -6 -31 -5 -35 32 -6
47 5 64 43 64 24 0 29 -5 35 -36z m-165 -60 c11 -50 11 -57 -7 -74 -19 -19
-213 -100 -239 -100 -14 0 -20 13 -30 71 -10 57 13 73 200 140 28 10 53 18 57
19 4 0 12 -25 19 -56z m-330 -136 c11 -41 10 -43 -20 -70 -36 -32 -44 -34 -65
-12 -41 40 -29 85 29 110 43 19 43 18 56 -28z m-169 -59 c19 -66 2 -85 -122
-136 -118 -49 -122 -48 -134 29 -5 31 -3 45 9 57 23 23 175 90 207 90 23 1 29
-5 40 -40z m-345 -107 c6 -4 17 -20 23 -36 9 -26 8 -32 -17 -58 -14 -15 -37
-28 -50 -28 -24 0 -63 32 -63 51 0 23 23 51 53 64 38 17 39 17 54 7z m1498
-12 c15 -7 10 -9 -22 -9 -24 -1 -43 4 -43 9 0 12 37 12 65 0z m735 -136 c0
-28 -79 -124 -204 -250 -83 -83 -166 -167 -184 -188 l-34 -37 22 -51 c28 -66
21 -106 -25 -147 -45 -40 -102 -55 -200 -55 -92 0 -133 15 -153 58 -21 43 6
103 73 165 90 82 161 107 215 76 14 -8 28 -14 33 -15 17 0 102 89 167 175 96
128 239 275 268 275 12 0 22 -3 22 -6z m-219 -101 c-5 -10 -21 -29 -36 -43
-15 -14 -59 -67 -97 -117 -38 -51 -75 -93 -81 -93 -6 0 -18 7 -28 16 -10 9
-36 18 -58 21 -23 3 -41 9 -41 12 0 16 92 95 180 155 75 52 103 66 133 66 33
0 36 -2 28 -17z m-896 -145 c81 -27 165 -68 257 -125 42 -26 84 -53 95 -59 32
-20 9 -24 -52 -8 -87 23 -199 71 -290 124 -44 26 -93 54 -109 61 -16 8 -32 20
-34 28 -6 17 43 9 133 -21z m5160 -148 c66 -29 176 -77 245 -107 69 -31 154
-68 190 -83 36 -15 175 -76 310 -135 135 -59 353 -152 485 -207 218 -90 596
-257 783 -343 39 -19 72 -39 72 -44 0 -6 -25 -27 -55 -47 -62 -41 -75 -41
-191 -1 -84 29 -116 45 -127 63 -4 8 -22 14 -38 14 -33 0 -305 105 -378 146
-24 13 -49 24 -56 24 -6 0 -54 18 -106 41 -52 22 -177 74 -279 116 -102 41
-241 98 -310 128 -69 30 -258 110 -420 179 -366 155 -467 198 -504 218 l-30
16 55 27 c135 70 184 69 354 -5z m-2925 -44 c0 -14 -5 -28 -10 -31 -13 -8 -24
20 -16 40 9 24 26 17 26 -9z m170 -78 c3 -37 11 -73 18 -80 7 -7 33 -13 56
-13 50 0 86 25 86 60 0 11 6 30 14 41 21 27 41 5 41 -46 0 -48 -27 -87 -81
-117 -70 -40 -136 -27 -178 37 -61 92 -53 196 13 188 24 -3 26 -7 31 -70z
m114 -4 c8 -20 -1 -34 -20 -34 -8 0 -14 10 -14 25 0 28 24 34 34 9z m-4078
-89 c9 -23 -15 -73 -46 -95 -15 -11 -65 -34 -111 -51 -181 -67 -454 -159 -472
-159 -17 0 -18 5 -13 38 4 20 9 44 12 53 5 17 126 63 464 178 170 57 159 55
166 36z m4459 -93 c-11 -10 -60 -54 -108 -97 -48 -43 -119 -120 -157 -171 -38
-51 -74 -96 -80 -99 -21 -13 -24 5 -6 41 22 47 9 64 -49 64 -48 0 -89 -27
-114 -74 -8 -14 -18 -26 -23 -26 -40 0 62 125 151 184 98 66 245 141 311 160
30 9 62 21 70 26 24 15 26 12 5 -8z m140 -11 c9 -15 -247 -292 -322 -348 -37
-28 -80 -64 -95 -80 -27 -28 -27 -29 -13 -77 20 -67 19 -115 -5 -154 -32 -51
-76 -65 -202 -60 -90 3 -111 7 -135 24 -26 20 -28 27 -27 82 1 77 30 125 114
186 76 56 113 66 144 37 14 -13 35 -21 59 -21 41 0 77 31 147 125 54 74 138
157 233 233 80 63 91 69 102 53z m-5567 -107 c-12 -11 -98 -33 -98 -25 0 5 17
13 38 19 44 12 68 14 60 6z m3180 -127 c48 -152 88 -391 71 -418 -12 -20 -57
148 -93 353 -27 149 -15 184 22 65z m1420 -76 c163 -82 163 -112 -1 -57 -173
59 -328 140 -313 164 9 14 209 -54 314 -107z m1948 95 c18 -14 18 -15 1 -22
-21 -8 -67 10 -67 26 0 15 43 12 66 -4z m-391 -16 c-3 -5 -11 -10 -16 -10 -6
0 -7 5 -4 10 3 6 11 10 16 10 6 0 7 -4 4 -10z m-6675 -99 c0 -6 -4 -12 -9 -15
-11 -7 -60 -90 -116 -196 -42 -80 -63 -94 -96 -64 -23 21 -25 94 -5 173 18 66
37 88 90 100 55 12 136 13 136 2z m5577 -433 c26 -33 143 -456 143 -516 0 -46
-8 -36 -53 69 -84 200 -150 523 -90 447z m-5787 -163 c15 -18 5 -35 -22 -35
-19 0 -88 36 -88 46 0 12 99 2 110 -11z m-170 -68 c0 -6 -4 -27 -10 -46 -7
-24 -5 -44 5 -74 22 -64 3 -76 -46 -28 -21 22 -29 39 -29 66 0 27 8 44 29 66
31 31 51 37 51 16z m113 -4 c10 -10 -24 -43 -44 -43 -28 0 -31 17 -7 34 24 17
41 20 51 9z m153 -53 c31 -11 74 -75 74 -110 0 -31 -51 -77 -92 -85 -87 -16
-160 84 -112 154 16 22 65 50 90 51 6 0 24 -5 40 -10z"/>
<path d="M820 4201 c-49 -15 -93 -42 -83 -52 10 -10 152 16 166 30 26 26 -27
39 -83 22z"/>
<path d="M4573 1625 c-66 -33 -112 -69 -101 -80 8 -9 188 79 188 92 0 25 -20
22 -87 -12z"/>
<path d="M4724 1505 c-5 -13 -34 -23 -167 -61 -36 -11 -6 -21 35 -12 24 5 69
12 101 15 59 6 85 27 73 59 -7 18 -35 18 -42 -1z"/>
<path d="M6475 951 c-82 -42 -145 -103 -102 -100 21 1 202 103 202 114 0 21
-42 15 -100 -14z"/>
<path d="M6567 789 c-21 -11 -63 -25 -95 -30 -92 -17 -116 -39 -67 -61 20 -9
42 -5 124 21 102 32 133 55 109 79 -16 16 -26 15 -71 -9z"/>
<path d="M827 293 c-14 -13 -7 -60 11 -76 49 -45 114 4 78 58 -12 18 -25 25
-50 25 -18 0 -36 -3 -39 -7z"/>
<path d="M8715 7156 c-11 -8 -16 -20 -12 -30 9 -23 22 -20 35 9 13 29 2 40
-23 21z"/>
<path d="M8748 6953 c-10 -2 -18 -11 -18 -19 0 -17 2 -17 35 -2 42 19 31 34
-17 21z"/>
<path d="M10415 6712 c-59 -20 -64 -36 -12 -40 69 -6 37 -45 -58 -71 -55 -15
-73 -27 -59 -41 8 -8 25 -5 63 10 60 23 101 26 101 7 0 -23 -31 -43 -135 -85
-95 -39 -128 -62 -88 -62 11 0 58 16 106 35 110 44 117 44 117 0 0 -36 -19
-56 -70 -70 -54 -15 -210 -88 -205 -95 7 -11 38 -2 151 43 128 50 122 49 134
27 5 -10 10 -57 10 -104 l0 -86 -37 -19 c-62 -31 -238 -101 -255 -101 -9 0
-29 -7 -44 -15 -16 -8 -37 -15 -46 -15 -23 0 -33 -19 -14 -26 17 -6 113 25
261 86 132 55 131 54 139 35 19 -51 -14 -78 -168 -131 -38 -13 -79 -30 -90
-37 -12 -8 -36 -17 -55 -20 -18 -4 -61 -19 -95 -33 -33 -14 -72 -30 -86 -36
-24 -9 -24 -10 -6 -23 16 -12 24 -12 50 -1 215 94 403 172 433 181 17 5 24 0
35 -22 7 -15 22 -29 32 -31 18 -4 19 1 12 94 -15 217 -58 649 -64 656 -4 3
-29 -1 -57 -10z"/>
<path d="M8550 6596 c-174 -68 -210 -85 -210 -100 0 -26 26 -24 121 9 104 36
159 61 159 73 0 9 -22 32 -29 32 -4 -1 -22 -7 -41 -14z"/>
<path d="M9105 6321 c-178 -72 -243 -111 -185 -111 23 0 255 114 265 130 9 15
-3 12 -80 -19z"/>
<path d="M9260 6255 c-47 -19 -98 -41 -115 -49 -16 -8 -47 -22 -67 -30 -41
-16 -52 -46 -17 -46 26 0 289 137 289 151 0 11 10 14 -90 -26z"/>
<path d="M10370 6273 c-34 -11 -216 -86 -234 -95 -11 -6 -15 -13 -9 -19 8 -8
192 58 253 91 33 18 26 36 -10 23z"/>
<path d="M385 6060 c-98 -33 -123 -45 -112 -56 14 -14 257 56 257 74 0 19 -48
14 -145 -18z"/>
<path d="M12325 6018 c-2 -7 -6 -29 -7 -48 -3 -29 -8 -36 -33 -44 -74 -23
-118 -47 -108 -57 7 -7 30 -2 74 15 48 20 65 23 71 14 4 -7 6 -19 3 -26 -3 -8
-5 -17 -5 -21 0 -8 -94 -57 -172 -90 -29 -12 -48 -26 -48 -36 0 -20 17 -16
124 36 44 22 86 39 93 39 20 0 17 -74 -4 -92 -23 -20 -172 -86 -212 -94 -38
-8 -61 -31 -38 -40 16 -6 170 54 224 88 37 22 48 19 57 -18 13 -52 -24 -77
-236 -154 -32 -12 -58 -26 -58 -31 0 -19 49 -7 165 40 66 27 123 47 128 44 15
-9 7 -80 -10 -95 -10 -9 -72 -34 -137 -56 -65 -22 -126 -48 -135 -58 -15 -15
-14 -16 18 -10 19 3 83 26 143 49 59 24 111 41 116 38 14 -9 24 -49 17 -70 -3
-10 -32 -31 -68 -46 -157 -71 -224 -105 -236 -119 -24 -29 8 -19 144 45 71 33
138 59 150 57 15 -2 21 -12 23 -38 l2 -35 -102 -49 c-55 -26 -114 -53 -130
-58 -38 -13 -35 -28 6 -28 20 0 77 22 146 55 l113 56 -7 187 c-13 364 -27 614
-36 638 -10 26 -28 32 -35 12z"/>
<path d="M629 6016 c-2 -3 -55 -16 -117 -30 -62 -14 -124 -32 -140 -40 l-27
-15 37 -1 c38 0 63 5 217 44 86 22 119 46 64 46 -17 0 -32 -2 -34 -4z"/>
<path d="M12240 5995 c-6 -8 -9 -19 -5 -25 9 -14 45 6 45 25 0 19 -24 19 -40
0z"/>
<path d="M715 5928 c-116 -21 -275 -78 -275 -98 0 -17 32 -12 116 19 43 15
111 34 149 41 93 16 97 18 93 33 -6 16 -22 17 -83 5z"/>
<path d="M10433 5718 c-65 -34 -139 -72 -165 -85 -26 -13 -50 -28 -53 -33 -14
-22 38 -7 117 33 128 66 258 138 258 143 0 16 -55 -5 -157 -58z"/>
<path d="M11070 5613 c-46 -15 -116 -47 -161 -74 -28 -16 -74 -38 -103 -48
-33 -11 -52 -24 -55 -36 -2 -15 2 -17 26 -12 50 10 295 135 328 168 10 10 -9
11 -35 2z"/>
<path d="M11614 5347 c-49 -24 -111 -52 -137 -62 -33 -13 -47 -23 -45 -34 2
-10 12 -15 23 -13 19 3 215 108 260 138 42 30 -13 13 -101 -29z"/>
<path d="M11810 5323 c-8 -3 -51 -21 -95 -40 -44 -19 -91 -39 -104 -44 -17 -7
-21 -13 -13 -21 13 -13 93 12 185 59 75 40 93 70 27 46z"/>
<path d="M12435 5112 c-33 -16 -81 -37 -107 -47 -48 -18 -63 -35 -32 -35 22 0
199 84 208 99 11 17 -4 13 -69 -17z"/>
<path d="M12500 5059 c-57 -28 -71 -39 -57 -44 19 -8 167 59 167 75 0 17 -33
8 -110 -31z"/>
<path d="M9413 5020 c-60 -36 -68 -78 -25 -130 27 -32 30 -33 59 -21 71 29
100 96 63 144 -25 32 -53 34 -97 7z m42 -80 c-14 -15 -21 -17 -32 -9 -17 15
-17 24 3 44 15 15 18 15 32 1 14 -14 14 -17 -3 -36z"/>
<path d="M9220 4990 c-34 -17 -405 -161 -580 -224 -68 -25 -85 -35 -85 -51 0
-33 48 -23 205 44 80 34 232 96 339 136 106 40 198 78 203 83 15 15 0 32 -25
31 -12 -1 -38 -9 -57 -19z"/>
<path d="M9190 4869 c-41 -21 -174 -76 -295 -124 -257 -100 -325 -132 -325
-151 0 -8 4 -14 9 -14 13 0 626 244 704 280 34 16 37 51 5 48 -13 0 -57 -18
-98 -39z"/>
<path d="M2640 4758 c-63 -17 -117 -32 -119 -34 -14 -13 16 -15 66 -5 183 36
188 37 191 54 4 22 -1 21 -138 -15z"/>
<path d="M2865 4689 c-140 -39 -265 -81 -265 -90 0 -12 27 -6 165 35 61 19
125 37 144 42 19 5 36 15 39 22 5 15 3 15 -83 -9z"/>
<path d="M2287 4586 c-137 -52 -241 -128 -302 -221 -28 -42 -35 -62 -35 -102
0 -27 -6 -56 -12 -65 -15 -19 -129 -50 -142 -38 -4 4 -5 22 -1 40 7 31 23 43
78 54 16 4 27 13 27 22 0 14 -8 15 -56 9 -50 -6 -55 -5 -52 11 2 13 23 24 66
37 34 10 62 22 62 27 0 15 -27 18 -72 8 -25 -6 -54 -8 -64 -4 -18 7 -18 9 3
26 12 10 54 25 93 35 43 11 70 22 70 30 0 25 -15 24 -115 -3 l-98 -26 -33 38
c-44 51 -93 86 -121 86 -37 0 -27 -17 35 -57 35 -24 58 -47 60 -60 3 -21 -7
-26 -127 -69 -10 -3 -11 -8 -4 -15 7 -7 32 -5 81 7 38 9 78 14 88 10 32 -12
-5 -33 -124 -69 -109 -33 -143 -50 -130 -63 4 -3 51 6 105 21 125 34 169 40
178 26 7 -12 -31 -31 -157 -76 -43 -15 -78 -31 -78 -36 0 -16 48 -9 116 16 80
30 111 32 119 6 13 -42 -10 -67 -82 -89 -150 -47 -314 -86 -428 -101 -91 -13
-120 -20 -120 -31 0 -22 198 -19 285 4 99 25 352 103 468 143 83 28 105 33
117 23 20 -17 19 -36 -2 -45 -85 -34 -288 -95 -609 -181 -102 -27 -213 -45
-294 -47 -68 -2 -80 -25 -25 -51 32 -16 48 -16 148 -6 143 14 205 25 292 51
99 29 251 83 326 115 113 47 290 104 302 97 13 -8 175 -143 250 -210 42 -37
52 -41 83 -36 29 5 44 0 87 -30 66 -45 99 -51 167 -32 30 8 87 22 125 30 39 9
133 32 210 50 77 19 165 39 195 45 79 17 160 42 160 51 0 20 -67 14 -228 -22
-23 -5 -67 -9 -98 -9 -65 0 -240 -38 -377 -81 -54 -17 -101 -28 -105 -24 -4 3
13 24 37 44 44 37 48 61 12 61 -10 0 -39 -16 -66 -35 -37 -26 -52 -32 -62 -23
-21 17 -15 42 17 73 59 56 22 77 -46 25 -44 -33 -59 -37 -67 -15 -4 8 10 32
34 57 21 23 38 47 36 53 -8 22 -36 15 -82 -20 -43 -33 -49 -35 -63 -21 -14 13
-13 17 2 40 9 14 27 33 41 42 14 9 25 23 25 30 0 25 -46 15 -94 -22 -38 -29
-50 -33 -61 -24 -23 19 -18 42 16 83 28 34 31 57 8 57 -5 0 -27 -17 -50 -37
-32 -29 -44 -35 -57 -26 -28 17 -25 43 8 78 20 21 30 40 27 49 -9 24 -23 20
-66 -19 -65 -59 -82 -38 -35 43 16 27 22 48 17 53 -17 17 -59 -7 -81 -45 -12
-20 -26 -36 -32 -36 -14 0 -13 5 11 52 45 87 173 187 322 248 60 25 86 50 50
50 -10 -1 -57 -16 -106 -34z"/>
<path d="M3055 4615 c-5 -2 -120 -36 -255 -76 -135 -39 -249 -76 -255 -81 -16
-15 39 -2 303 70 134 37 243 72 243 77 0 11 -19 16 -36 10z"/>
<path d="M8068 4541 c-47 -22 -128 -56 -180 -76 -51 -20 -118 -47 -148 -60
-30 -13 -323 -130 -650 -260 -327 -130 -651 -259 -720 -287 -69 -28 -235 -95
-370 -148 -135 -54 -294 -118 -355 -142 -156 -65 -703 -287 -1015 -413 -714
-289 -886 -356 -927 -361 -42 -5 -236 -76 -258 -94 -6 -5 -77 -34 -158 -64
-82 -31 -176 -71 -210 -90 -34 -19 -125 -62 -201 -95 -76 -34 -166 -78 -200
-100 -34 -21 -83 -50 -111 -64 -50 -25 -231 -151 -294 -204 -34 -29 -34 -29
-17 -60 10 -20 16 -56 16 -96 0 -57 -4 -71 -33 -113 -18 -26 -44 -56 -58 -66
-13 -10 -130 -54 -259 -97 -129 -43 -284 -99 -345 -124 -60 -25 -128 -53 -150
-62 -22 -9 -53 -22 -70 -30 -146 -64 -346 -116 -636 -164 -83 -14 -319 -14
-379 0 -25 5 -62 23 -82 40 -41 33 -58 37 -58 13 0 -32 64 -81 135 -104 132
-43 377 -34 580 21 44 12 100 25 125 29 70 10 521 174 875 317 50 20 155 62
235 94 80 31 368 147 640 256 498 201 548 221 915 364 110 43 238 93 285 112
176 72 451 181 610 242 91 35 195 77 231 93 90 42 350 149 429 177 36 12 130
50 210 83 80 33 170 67 200 76 30 8 163 57 295 107 132 50 294 111 360 134 66
23 165 59 220 79 55 21 138 48 185 61 171 48 175 50 175 70 0 44 -64 31 -390
-79 -170 -57 -335 -116 -366 -129 -31 -14 -153 -62 -270 -107 -118 -45 -266
-103 -329 -130 -63 -26 -218 -90 -345 -140 -126 -51 -408 -164 -625 -252 -773
-313 -1067 -431 -1230 -495 -91 -35 -201 -80 -245 -98 -87 -37 -277 -111 -395
-155 -41 -16 -124 -49 -185 -75 -135 -57 -217 -87 -223 -80 -3 3 5 26 17 51
20 39 22 54 16 109 -6 63 -6 64 27 95 42 38 204 149 328 225 91 55 346 182
420 210 19 7 98 42 175 77 77 36 352 150 610 253 259 103 540 216 625 252 85
36 245 101 355 145 110 44 263 106 340 138 77 32 208 85 290 118 83 33 402
161 710 284 308 124 673 269 810 323 138 54 405 161 595 238 190 77 394 157
454 178 115 42 136 53 136 75 0 24 -52 15 -142 -25z"/>
<path d="M3125 4500 c-60 -16 -168 -47 -240 -70 -71 -23 -159 -48 -194 -56
-36 -9 -81 -22 -100 -31 -56 -25 -12 -28 62 -5 104 34 529 150 572 157 59 10
75 15 75 26 0 16 -62 9 -175 -21z"/>
<path d="M1022 4475 c-83 -26 -120 -65 -62 -65 23 0 30 -5 30 -19 0 -27 13
-33 36 -16 17 12 17 17 6 35 -7 12 -12 23 -10 24 2 1 21 9 42 17 75 27 37 49
-42 24z"/>
<path d="M3330 4434 c-255 -68 -633 -192 -654 -215 -17 -18 37 -3 284 76 124
40 268 82 320 95 52 12 112 27 133 32 21 5 35 13 32 18 -8 14 -49 11 -115 -6z"/>
<path d="M3410 4301 c-426 -119 -590 -172 -590 -191 0 -5 37 2 83 14 167 47
274 78 332 97 73 23 288 84 333 93 17 4 32 12 32 17 0 17 -53 8 -190 -30z"/>
<path d="M3645 4209 c-326 -88 -655 -180 -690 -193 -85 -31 11 -16 149 24 76
22 146 40 155 40 9 0 79 19 156 41 77 23 176 50 220 60 122 29 155 39 155 49
0 15 -25 11 -145 -21z"/>
<path d="M3772 4125 c-67 -18 -151 -43 -187 -55 -65 -22 -92 -40 -58 -40 36 1
387 106 391 118 5 17 -7 15 -146 -23z"/>
<path d="M1380 4114 c-52 -14 -125 -28 -162 -31 -36 -3 -72 -10 -80 -14 -25
-17 15 -30 77 -26 62 5 260 61 270 77 12 19 -13 17 -105 -6z"/>
<path d="M3935 4039 c-252 -75 -445 -141 -445 -150 0 -6 7 -8 15 -5 9 3 44 13
78 21 34 9 125 36 202 60 77 25 167 53 199 63 33 10 62 24 64 30 5 16 2 15
-113 -19z"/>
<path d="M2663 3673 c-4 -9 9 -29 36 -54 24 -21 41 -44 39 -51 -4 -11 -58 -38
-143 -71 -5 -2 -7 -8 -3 -12 3 -3 45 6 93 21 74 25 87 26 95 14 5 -8 8 -19 7
-25 -2 -5 -57 -29 -123 -52 -146 -51 -141 -49 -132 -58 4 -4 59 11 123 34 64
22 122 41 130 41 22 0 29 -39 11 -59 -9 -9 -42 -25 -73 -35 -104 -33 -224 -78
-219 -83 2 -3 70 16 151 41 81 25 157 46 170 46 12 0 28 6 35 14 6 8 39 24 73
36 71 24 139 59 117 60 -9 0 -47 -13 -85 -30 -39 -16 -80 -30 -93 -30 -20 0
-23 4 -20 31 3 31 6 33 107 65 110 34 132 47 114 65 -7 7 -41 -2 -113 -31
-106 -42 -130 -44 -130 -12 0 21 21 31 172 88 73 27 97 44 63 44 -9 0 -41 -11
-73 -24 -31 -13 -87 -31 -124 -41 l-67 -18 -44 45 c-48 49 -85 66 -94 41z"/>
<path d="M5970 3111 c-211 -53 -279 -76 -267 -88 3 -2 44 7 92 22 96 29 222
57 359 80 124 21 136 24 136 35 0 22 -106 6 -320 -49z"/>
<path d="M6080 3048 c-91 -16 -167 -31 -169 -34 -16 -15 27 -14 151 5 79 12
167 25 197 29 30 4 55 12 55 17 2 18 -68 13 -234 -17z"/>
<path d="M6505 2989 c-46 -14 -309 -37 -515 -44 -321 -11 -479 -39 -788 -141
-130 -42 -217 -84 -312 -148 -89 -59 -197 -176 -164 -176 13 0 53 27 110 76
74 63 78 65 219 127 321 142 685 217 1150 237 244 11 365 34 365 71 0 11 -26
10 -65 -2z"/>
<path d="M5546 2795 c-26 -14 -52 -25 -59 -25 -16 0 -176 -61 -252 -95 -33
-15 -87 -38 -120 -50 -58 -22 -78 -46 -43 -53 9 -2 40 9 70 24 48 25 304 134
436 186 28 11 52 25 52 29 0 16 -37 9 -84 -16z"/>
<path d="M5754 2765 c-181 -61 -451 -171 -497 -201 -40 -27 -45 -51 -8 -46 12
2 56 19 99 39 88 40 256 112 322 137 25 10 56 25 70 34 30 20 130 62 147 62 6
0 15 5 18 10 11 17 -16 11 -151 -35z"/>
<path d="M6170 2791 c-8 -5 -148 -57 -310 -116 -414 -150 -450 -166 -450 -202
0 -23 37 -14 117 27 43 22 163 71 268 110 104 39 208 79 230 89 43 20 91 39
168 67 26 9 47 21 47 25 0 11 -50 11 -70 0z"/>
<path d="M6315 2689 c-642 -239 -718 -270 -703 -284 2 -3 31 0 63 6 61 11 437
159 464 183 16 13 77 37 269 105 95 33 126 52 85 50 -10 0 -90 -27 -178 -60z"/>
<path d="M2074 2688 c-125 -70 -194 -113 -185 -116 6 -2 37 12 68 31 32 19 82
47 111 62 28 16 52 32 52 37 0 11 0 11 -46 -14z"/>
<path d="M6595 2625 c-246 -84 -275 -95 -275 -106 0 -5 6 -9 13 -9 22 0 478
157 490 169 24 24 -43 8 -228 -54z"/>
<path d="M6810 2544 c-91 -29 -191 -60 -222 -69 -32 -8 -58 -20 -58 -25 0 -17
38 -11 100 15 33 14 67 25 76 25 42 0 304 87 304 101 0 16 -30 9 -200 -47z"/>
<path d="M1930 2471 c-296 -141 -440 -220 -400 -221 24 0 603 295 621 316 6 8
10 14 8 13 -2 0 -105 -49 -229 -108z"/>
<path d="M1660 2461 c-302 -158 -680 -389 -653 -398 12 -4 54 20 243 137 89
55 150 91 310 180 318 178 379 227 100 81z"/>
<path d="M6945 2436 c-325 -113 -570 -216 -533 -224 9 -1 81 22 160 53 286
112 402 156 509 191 60 19 109 40 109 45 0 17 -35 8 -245 -65z"/>
<path d="M7140 2359 c-349 -128 -536 -204 -517 -207 20 -4 138 34 292 94 162
63 294 111 392 144 86 28 118 51 71 49 -12 0 -120 -36 -238 -80z"/>
<path d="M7290 2261 c-377 -129 -477 -170 -452 -185 6 -3 48 10 94 30 83 36
534 196 617 219 41 11 70 36 39 34 -7 -1 -141 -45 -298 -98z"/>
<path d="M7710 2255 c-19 -7 -89 -34 -155 -60 -66 -26 -149 -57 -185 -69 -135
-48 -310 -119 -310 -127 0 -14 142 32 275 89 39 17 133 53 210 82 221 81 225
83 231 91 8 13 -26 10 -66 -6z"/>
<path d="M7885 2175 c-33 -13 -167 -62 -298 -109 -268 -97 -337 -125 -337
-137 0 -5 1 -9 3 -9 17 0 127 39 196 69 47 21 181 71 296 111 197 68 269 101
220 100 -11 -1 -47 -12 -80 -25z"/>
<path d="M8043 2086 c-45 -19 -112 -44 -148 -56 -37 -12 -64 -24 -62 -27 13
-12 309 87 315 106 6 18 -17 13 -105 -23z"/>
<path d="M1224 2076 c-21 -19 -36 -37 -33 -40 7 -8 99 51 99 64 0 19 -27 10
-66 -24z"/>
<path d="M5715 2042 c-60 -20 -109 -41 -107 -47 4 -14 30 -8 140 28 53 18 97
38 100 45 6 18 -13 15 -133 -26z"/>
<path d="M2685 2046 c-17 -7 -36 -20 -44 -29 -12 -15 -10 -17 15 -16 43 1 99
24 99 40 0 19 -33 22 -70 5z"/>
<path d="M8270 2039 c-25 -11 -144 -56 -265 -99 -356 -127 -455 -167 -455
-183 0 -14 67 1 119 27 26 12 87 37 136 55 50 18 115 44 145 57 55 23 194 75
320 118 35 13 66 28 68 35 5 16 -17 13 -68 -10z"/>
<path d="M1370 2028 c-42 -22 -45 -26 -48 -68 -2 -25 1 -63 5 -85 7 -34 13
-41 36 -43 40 -5 121 25 151 55 32 32 34 82 5 129 -18 30 -26 34 -63 34 -23 0
-61 -10 -86 -22z"/>
<path d="M5870 1993 c-146 -51 -218 -78 -230 -89 -12 -12 -12 -14 0 -14 33 0
270 85 270 97 0 13 -14 15 -40 6z"/>
<path d="M7655 1951 c-154 -53 -274 -102 -308 -126 -46 -32 19 -15 149 39 71
29 165 66 209 81 70 25 127 56 100 55 -6 -1 -73 -22 -150 -49z"/>
<path d="M904 1976 c-26 -19 -97 -133 -89 -145 3 -5 19 -12 35 -16 16 -4 32
-10 35 -15 3 -5 -46 -40 -109 -79 -155 -97 -372 -261 -415 -314 -31 -39 13
-12 116 70 126 100 336 241 408 273 28 12 61 27 75 34 18 8 31 29 47 76 31 95
30 105 -16 118 -50 15 -62 15 -87 -2z"/>
<path d="M1091 1954 c-20 -16 -32 -38 -36 -62 -4 -20 -13 -49 -21 -65 -8 -15
-12 -32 -9 -37 13 -22 242 -7 266 17 11 11 -19 134 -38 156 -12 12 -32 17 -74
17 -47 0 -63 -5 -88 -26z"/>
<path d="M2062 1963 c-53 -26 -76 -88 -51 -136 15 -28 28 -37 57 -37 58 0 112
56 112 117 0 34 -8 46 -37 62 -29 15 -41 14 -81 -6z"/>
<path d="M8260 1915 c-107 -36 -199 -70 -204 -75 -17 -17 50 -1 204 50 80 26
160 51 178 56 31 8 44 25 25 31 -4 2 -96 -27 -203 -62z"/>
<path d="M8485 1874 c-49 -19 -97 -42 -105 -51 -13 -14 -13 -15 5 -9 11 4 59
21 108 38 52 18 87 36 87 44 0 8 -1 14 -2 14 -2 -1 -43 -17 -93 -36z"/>
<path d="M611 1810 c-90 -64 -93 -84 -3 -29 81 51 97 65 84 73 -5 3 -42 -17
-81 -44z"/>
<path d="M1625 1752 c-93 -49 -239 -121 -324 -162 -85 -41 -148 -76 -140 -78
8 -1 93 33 189 76 96 43 234 105 305 137 121 54 175 87 175 107 0 19 -45 2
-205 -80z"/>
<path d="M604 1709 c-223 -151 -400 -297 -382 -314 3 -3 27 12 54 34 27 22 92
74 144 117 52 42 152 115 222 161 70 46 130 88 133 93 18 29 -37 -1 -171 -91z"/>
<path d="M8515 1754 c-124 -42 -155 -57 -144 -69 6 -5 265 75 287 88 12 8 8
27 -6 27 -4 -1 -65 -21 -137 -46z"/>
<path d="M1725 1694 c-231 -97 -277 -116 -445 -176 -232 -84 -445 -151 -583
-183 -135 -31 -151 -51 -41 -49 81 2 341 65 484 117 254 93 341 127 405 160
39 20 108 51 155 70 164 67 182 76 178 94 -2 9 -7 17 -13 19 -5 1 -68 -22
-140 -52z"/>
<path d="M8870 1486 c-47 -18 -127 -48 -177 -66 -51 -19 -93 -38 -93 -42 0
-11 37 -2 140 34 47 17 125 42 174 57 49 15 91 32 94 39 7 21 -49 12 -138 -22z"/>
<path d="M7630 1396 c-144 -72 -192 -98 -188 -101 11 -12 204 77 248 114 35
29 16 25 -60 -13z"/>
<path d="M7582 1266 c-147 -75 -180 -96 -150 -96 23 0 127 46 233 103 105 57
118 67 85 67 -14 -1 -89 -34 -168 -74z"/>
<path d="M9445 1318 c-83 -27 -165 -61 -165 -69 0 -12 4 -12 100 16 80 24 122
47 103 57 -4 3 -21 1 -38 -4z"/>
<path d="M9563 1225 c-46 -20 -43 -39 4 -30 48 9 75 23 68 36 -8 13 -34 11
-72 -6z"/>
<path d="M11435 602 c-75 -42 -265 -173 -265 -183 0 -22 37 -2 168 91 165 117
197 147 97 92z"/>
<path d="M10949 576 c-64 -34 -85 -56 -54 -56 20 0 135 69 135 81 0 15 -15 10
-81 -25z"/>
<path d="M11151 560 c-74 -39 -94 -57 -85 -72 5 -8 149 85 160 103 8 13 6 12
-75 -31z"/>
<path d="M11660 573 c-8 -4 -53 -29 -100 -58 -47 -28 -124 -72 -172 -98 -93
-51 -112 -67 -78 -67 33 0 370 200 370 220 0 5 -1 10 -2 9 -2 0 -10 -3 -18 -6z"/>
<path d="M11590 367 c-69 -34 -127 -63 -129 -65 -3 -1 1 -8 7 -14 9 -9 24 -6
62 12 67 32 219 130 200 129 -8 0 -71 -28 -140 -62z"/>
<path d="M11723 305 c-91 -45 -111 -60 -98 -73 8 -8 141 61 181 94 43 35 20
29 -83 -21z"/>
<path d="M11903 294 c-88 -45 -132 -78 -121 -89 8 -9 58 18 146 77 65 44 81
58 67 58 -2 0 -44 -21 -92 -46z"/>
</g>
</svg>
