<?xml version="1.0" standalone="no"?>
<!DOCTYPE svg PUBLIC "-//W3C//DTD SVG 20010904//EN"
 "http://www.w3.org/TR/2001/REC-SVG-20010904/DTD/svg10.dtd">
<svg version="1.0" xmlns="http://www.w3.org/2000/svg"
 width="1280.000000pt" height="958.000000pt" viewBox="0 0 1280.000000 958.000000"
 preserveAspectRatio="xMidYMid meet">
<metadata>
Created by potrace 1.15, written by Peter Selinger 2001-2017
</metadata>
<g transform="translate(0.000000,958.000000) scale(0.100000,-0.100000)"
fill="#9c27b0" stroke="none">
<path d="M7311 9569 c-88 -17 -167 -64 -264 -157 -117 -111 -145 -122 -306
-122 -454 0 -1233 -53 -1626 -111 -427 -63 -656 -131 -1000 -299 -637 -311
-1176 -748 -1480 -1200 -275 -410 -437 -1089 -605 -2550 -31 -266 -47 -372
-64 -422 -14 -40 -60 -122 -111 -200 -163 -247 -198 -343 -197 -548 0 -94 6
-160 27 -265 36 -189 43 -296 21 -330 -9 -14 -53 -44 -99 -66 -105 -53 -187
-112 -258 -186 -142 -147 -997 -1128 -1148 -1316 -179 -224 -230 -358 -185
-489 30 -89 117 -164 244 -211 57 -21 100 -27 335 -41 895 -56 1770 -162 2724
-332 396 -70 861 -163 1566 -314 852 -182 1053 -223 1335 -270 1062 -177 1777
-184 2433 -24 372 91 616 210 937 460 143 111 391 356 499 493 169 214 242
337 355 603 171 403 260 536 421 633 97 58 191 81 527 130 542 79 786 127 973
192 232 80 343 169 383 304 39 134 47 212 47 494 0 426 -53 876 -146 1247 -64
256 -127 394 -357 788 -156 265 -188 348 -208 538 -22 207 -72 381 -186 647
-171 398 -401 776 -671 1105 -106 129 -389 406 -503 492 -590 448 -1276 713
-2434 943 -74 15 -149 36 -166 46 -18 11 -50 43 -73 73 -55 71 -135 146 -191
178 -129 75 -395 117 -549 87z m344 -139 c88 -23 168 -60 208 -98 54 -50 157
-181 148 -187 -5 -3 -12 -19 -16 -35 -9 -43 -69 -87 -150 -113 -62 -20 -91
-22 -265 -22 -149 0 -215 4 -280 18 -118 25 -199 53 -253 87 -55 35 -68 68
-41 106 11 15 24 33 29 41 6 8 43 47 83 86 81 80 148 123 213 137 63 13 236 3
324 -20z m-713 -272 c-15 -130 275 -238 640 -238 218 0 355 36 422 110 19 21
37 51 41 68 l6 30 42 -18 c23 -10 103 -30 177 -45 1134 -224 1826 -492 2381
-921 126 -97 367 -332 475 -464 322 -391 598 -872 744 -1296 58 -169 78 -253
94 -405 21 -203 57 -296 232 -597 129 -221 131 -224 183 -329 124 -251 189
-492 245 -913 40 -297 50 -449 50 -715 0 -328 -22 -468 -85 -540 -84 -95 -322
-180 -700 -249 -133 -24 -675 -106 -703 -106 -10 0 16 63 79 193 206 426 338
766 520 1342 100 317 134 415 145 415 4 0 13 -20 19 -45 11 -43 23 -56 35 -36
9 14 -24 112 -40 118 -38 14 -60 -36 -169 -382 -200 -632 -328 -965 -539
-1401 l-103 -211 -94 -22 c-108 -25 -253 -92 -320 -148 -46 -39 -118 -116
-155 -167 -20 -27 -22 -28 -50 -13 -195 100 -2113 435 -3844 671 -962 132
-1798 218 -3620 376 -195 17 -545 49 -778 70 -232 22 -426 40 -430 40 -4 0 -7
55 -8 123 0 90 -8 159 -28 262 -30 153 -35 296 -15 394 16 82 65 180 159 321
146 220 151 237 205 720 130 1158 274 1857 465 2257 162 340 490 690 945 1009
347 243 765 454 1075 543 384 109 1003 177 1845 201 209 7 396 15 415 20 19 4
37 8 40 9 4 1 4 -14 2 -31z m-4727 -5913 c204 -19 629 -57 945 -85 2153 -188
2937 -276 4315 -481 1446 -215 2790 -459 3006 -545 l38 -16 -56 -111 c-31 -62
-93 -199 -139 -305 -124 -290 -233 -458 -451 -697 -287 -314 -646 -571 -963
-688 -198 -73 -553 -148 -850 -178 -159 -17 -667 -17 -865 -1 -635 53 -973
110 -2290 392 -707 151 -1132 236 -1520 306 -989 176 -1926 290 -2840 345
-162 10 -210 16 -252 34 -108 44 -173 110 -173 177 0 36 34 129 65 179 73 116
266 344 871 1031 426 482 461 516 614 593 47 24 94 52 105 63 11 12 31 21 45
21 14 1 192 -15 395 -34z"/>
<path d="M6810 8944 c-878 -136 -1556 -358 -2012 -661 -343 -227 -568 -499
-662 -801 -32 -103 -34 -142 -6 -142 14 0 22 11 30 43 60 231 165 413 343 595
424 432 1226 753 2267 907 223 33 235 36 235 60 0 27 -15 27 -195 -1z"/>
<path d="M7643 8874 c-8 -21 -8 -21 157 -120 1020 -613 1568 -1327 1626 -2117
4 -54 11 -100 16 -103 5 -3 16 0 24 7 36 29 -11 352 -80 564 -212 643 -768
1234 -1634 1737 -92 53 -100 55 -109 32z"/>
<path d="M2876 7532 c-70 -112 -166 -332 -226 -517 -109 -344 -195 -837 -255
-1480 -19 -199 -19 -238 -3 -233 9 3 17 51 26 144 48 536 115 991 194 1313 64
264 130 448 234 650 41 79 74 148 74 152 0 21 -22 6 -44 -29z"/>
<path d="M10731 6493 c-30 -66 -81 -219 -105 -315 -61 -244 -71 -530 -35 -949
16 -187 20 -290 16 -439 -6 -223 -23 -319 -82 -470 -45 -117 -51 -140 -36
-140 16 0 62 103 95 210 61 201 71 442 36 860 -43 519 -16 818 100 1126 23 60
42 115 43 123 4 26 -20 22 -32 -6z"/>
<path d="M11871 6121 c-35 -67 -111 -258 -153 -381 -112 -328 -140 -559 -83
-670 19 -37 76 -64 117 -56 50 10 128 48 128 62 0 19 -14 18 -58 -5 -109 -55
-162 -28 -182 92 -24 148 53 457 205 822 43 102 63 161 56 168 -6 6 -17 -5
-30 -32z"/>
<path d="M2427 5043 c-2 -5 -8 -30 -12 -57 -9 -66 -58 -203 -107 -301 -77
-152 -181 -330 -233 -400 -29 -38 -61 -86 -71 -105 -25 -50 -31 -179 -11 -257
18 -69 76 -203 88 -203 18 0 16 19 -12 81 -40 92 -59 172 -59 249 0 79 18 121
93 222 61 82 185 299 252 440 46 98 95 251 95 299 0 27 -14 47 -23 32z"/>
<path d="M3010 3135 c-8 -10 -11 -30 -7 -56 l5 -41 -76 6 c-42 3 -151 11 -242
16 -91 6 -313 19 -495 30 -398 24 -385 24 -385 5 0 -8 8 -15 18 -15 41 0 1176
-71 1179 -73 5 -6 35 -159 31 -162 -2 -2 -159 7 -348 20 -560 40 -1034 65
-1043 56 -5 -5 -4 -12 2 -16 7 -3 195 -18 419 -31 571 -34 976 -63 983 -72 9
-10 50 -155 45 -159 -2 -2 -116 5 -252 16 -314 26 -617 47 -949 65 -404 23
-410 23 -410 6 0 -11 13 -16 50 -17 457 -23 1138 -68 1444 -96 l134 -12 23
-67 c40 -120 40 -110 2 -104 -88 16 -743 68 -1178 95 -510 32 -653 36 -648 20
5 -15 -10 -14 528 -44 413 -23 1083 -75 1296 -101 l50 -6 28 -76 c16 -43 31
-82 33 -88 3 -7 -16 -8 -63 -3 -302 37 -1059 99 -1499 123 -538 30 -535 30
-535 12 0 -9 6 -16 13 -16 6 0 102 -5 212 -10 545 -26 1101 -67 1625 -120 295
-30 262 -19 300 -108 18 -42 34 -82 37 -88 2 -7 -62 -3 -192 12 -567 66 -1358
128 -1945 153 -188 8 -237 5 -217 -16 4 -3 134 -12 290 -19 467 -21 865 -49
1397 -99 271 -26 680 -72 685 -77 8 -9 86 -171 83 -173 -2 -2 -111 10 -243 26
-711 85 -1587 156 -2162 175 -187 6 -213 5 -213 -8 0 -13 32 -16 208 -22 563
-19 1418 -88 2120 -171 162 -19 298 -35 303 -35 5 0 28 -37 51 -82 46 -89 56
-114 41 -105 -30 19 -1104 137 -1603 177 -533 43 -1272 81 -1287 67 -19 -19
33 -26 287 -36 697 -29 1491 -97 2257 -191 402 -50 380 -46 400 -84 9 -17 33
-57 54 -89 22 -32 39 -60 39 -61 0 -2 -37 3 -82 10 -306 50 -1170 147 -1723
194 -456 38 -1152 79 -1377 80 -10 0 -18 -6 -18 -14 0 -16 35 -19 455 -36 599
-24 1420 -96 2180 -191 478 -59 588 -77 603 -97 85 -113 177 -202 209 -202 14
0 43 28 43 40 0 5 -34 42 -76 82 -41 40 -71 74 -66 76 5 1 65 -6 132 -18 67
-11 125 -20 130 -20 5 0 38 -38 74 -84 73 -93 142 -156 173 -156 21 0 43 18
43 35 0 6 -37 48 -82 93 -45 45 -79 84 -77 86 2 2 54 -6 115 -18 l111 -21 86
-88 c72 -75 89 -88 112 -85 16 2 33 11 39 21 9 15 3 26 -43 68 -29 28 -52 52
-50 53 2 2 58 -9 124 -25 66 -15 123 -28 128 -29 15 0 6 29 -10 34 -38 11
-251 56 -265 56 -18 0 -156 186 -145 196 2 3 67 -9 143 -26 154 -33 178 -36
172 -18 -3 8 -63 25 -139 41 -220 47 -205 39 -260 137 -27 47 -49 88 -49 91 0
4 62 -6 138 -23 75 -16 149 -32 165 -35 20 -4 27 -2 27 10 0 16 -65 34 -263
73 l-88 17 -45 90 c-25 49 -44 91 -42 92 2 2 66 -9 143 -26 149 -31 185 -35
185 -20 0 13 -21 19 -199 55 l-154 32 -39 88 c-21 49 -37 90 -36 92 2 1 68
-11 148 -27 169 -34 160 -33 160 -15 0 13 -83 34 -262 67 l-67 12 -35 86 c-34
85 -34 86 -13 89 12 1 74 -9 137 -22 108 -23 148 -22 118 1 -7 6 -65 20 -128
32 -63 12 -126 24 -140 27 -22 4 -30 18 -57 94 -17 50 -28 90 -25 90 4 0 58
-9 120 -21 62 -12 116 -18 119 -15 15 15 -22 29 -135 49 l-121 22 -21 70 c-12
38 -23 78 -26 88 -7 22 11 22 107 2 45 -10 76 -12 82 -6 14 14 -20 28 -108 41
-46 7 -85 19 -92 28 -7 8 -17 40 -23 71 -6 31 -14 64 -17 74 -5 17 0 18 62 12
55 -6 67 -5 63 6 -3 8 -30 18 -63 24 -60 11 -66 16 -79 78 -12 53 -84 26 -74
-28 6 -29 9 -29 -132 -12 -88 11 -95 14 -100 37 -8 35 -60 36 -75 2 -9 -21
-15 -23 -55 -18 -25 3 -95 8 -157 12 l-112 7 -7 44 c-10 65 -45 93 -74 58z
m346 -151 l60 -6 12 -81 c6 -44 10 -82 8 -85 -3 -2 -72 2 -154 9 l-150 12 -11
41 c-6 23 -15 61 -20 85 l-9 44 101 -7 c56 -4 129 -9 163 -12z m272 -25 l99
-11 16 -86 c9 -47 15 -87 13 -89 -5 -6 -211 20 -220 28 -8 7 -35 120 -36 152
0 20 1 20 128 6z m-335 -170 c67 -5 131 -14 143 -19 15 -6 25 -26 36 -72 9
-34 19 -71 23 -80 5 -12 2 -18 -6 -18 -47 0 -294 31 -299 37 -5 7 -21 56 -46
146 -6 20 -9 20 149 6z m388 -41 l88 -11 21 -71 c12 -39 23 -79 26 -88 6 -22
1 -22 -124 -4 -51 7 -97 17 -101 22 -5 5 -16 36 -25 69 -10 33 -19 68 -22 78
-7 21 13 22 137 5z m-304 -169 l132 -12 30 -89 c19 -58 26 -88 18 -88 -15 0
-291 33 -294 35 -3 2 -63 166 -63 172 0 2 10 1 23 -1 12 -3 81 -10 154 -17z
m372 -42 l84 -12 29 -85 c15 -46 28 -87 28 -90 0 -10 -218 24 -228 35 -5 6
-21 45 -35 88 l-26 77 32 -1 c18 0 70 -6 116 -12z m-305 -165 l138 -17 33 -87
c39 -104 53 -96 -138 -71 l-130 17 -28 64 c-38 84 -45 112 -28 111 8 0 76 -8
153 -17z m363 -48 c54 -8 98 -16 99 -17 9 -9 71 -177 66 -177 -4 0 -57 7 -118
16 l-112 17 -35 89 c-41 103 -49 96 100 72z m-289 -163 c79 -11 145 -21 146
-23 9 -15 75 -172 73 -174 -1 -1 -63 6 -137 16 -74 11 -141 19 -148 20 -11 0
-92 156 -92 175 0 7 -1 7 158 -14z m374 -52 c47 -6 90 -15 95 -18 10 -7 85
-173 80 -177 -3 -4 -170 21 -213 31 -19 4 -46 55 -92 174 -4 10 1 13 19 8 13
-3 63 -11 111 -18z m-267 -164 l130 -17 42 -89 c49 -104 62 -97 -127 -71
l-125 17 -49 94 c-46 89 -47 93 -25 88 13 -3 83 -13 154 -22z m356 -52 l107
-16 43 -88 c23 -49 41 -90 38 -93 -3 -4 -64 5 -197 29 -29 5 -37 15 -77 95
-28 56 -40 90 -33 90 7 0 61 -7 119 -17z m-288 -158 c184 -27 162 -15 212
-115 28 -55 40 -90 33 -90 -53 1 -274 41 -283 52 -7 7 -32 48 -55 91 -48 88
-55 84 93 62z m493 -80 c12 -4 107 -175 100 -182 -3 -4 -227 34 -231 39 -7 8
-95 175 -95 180 0 5 199 -27 226 -37z m-338 -144 c68 -11 125 -21 126 -23 1
-1 28 -45 59 -96 39 -64 51 -92 39 -88 -9 3 -69 13 -132 22 -63 9 -124 22
-135 29 -11 7 -43 49 -72 94 -61 95 -70 90 115 62z m347 -56 c44 -8 89 -17
101 -20 12 -3 44 -42 82 -100 42 -65 56 -95 44 -91 -9 2 -64 12 -121 22 l-104
18 -52 80 c-28 45 -55 87 -59 94 -10 16 10 16 109 -3z"/>
<path d="M10185 1953 c-279 -531 -400 -721 -577 -908 -147 -156 -311 -272
-543 -385 -356 -174 -687 -263 -1034 -278 -460 -20 -853 32 -1846 244 -601
129 -952 201 -1175 243 -1701 317 -3577 541 -4532 541 -185 0 -228 -3 -228
-13 0 -11 64 -15 333 -20 949 -18 2461 -193 4027 -468 424 -74 776 -144 1475
-293 944 -201 1231 -248 1626 -265 387 -17 681 20 989 126 571 195 888 426
1166 848 122 185 441 774 427 788 -3 4 -9 7 -13 7 -4 0 -47 -75 -95 -167z"/>
</g>
</svg>
