<?xml version="1.0" standalone="no"?>
<!DOCTYPE svg PUBLIC "-//W3C//DTD SVG 20010904//EN"
 "http://www.w3.org/TR/2001/REC-SVG-20010904/DTD/svg10.dtd">
<svg version="1.0" xmlns="http://www.w3.org/2000/svg"
 width="1280.000000pt" height="998.000000pt" viewBox="0 0 1280.000000 998.000000"
 preserveAspectRatio="xMidYMid meet">
<metadata>
Created by potrace 1.15, written by Peter Selinger 2001-2017
</metadata>
<g transform="translate(0.000000,998.000000) scale(0.100000,-0.100000)"
fill="#673ab7" stroke="none">
<path d="M7415 9974 c-11 -2 -45 -9 -75 -15 -69 -14 -127 -45 -375 -203 -343
-218 -348 -223 -401 -361 -14 -38 -42 -94 -60 -122 -47 -72 -162 -186 -290
-284 -106 -82 -138 -118 -149 -171 -4 -15 -10 -30 -15 -33 -5 -3 -111 -37
-237 -75 -290 -89 -418 -136 -569 -210 -246 -119 -464 -288 -728 -561 -344
-355 -602 -673 -927 -1143 -79 -114 -211 -290 -293 -390 -203 -247 -238 -303
-272 -423 -2 -7 -31 16 -66 51 -35 35 -79 71 -98 82 -52 27 -145 24 -260 -10
-168 -49 -219 -32 -423 147 -171 149 -260 185 -432 174 -173 -11 -252 -51
-332 -169 -24 -35 -41 -49 -70 -57 -121 -34 -282 18 -444 141 -106 81 -119 88
-164 88 -59 0 -140 -51 -306 -193 -441 -377 -504 -485 -359 -610 42 -36 68
-48 319 -146 85 -34 184 -80 219 -103 68 -44 142 -127 142 -158 0 -45 61 -252
93 -315 53 -105 418 -543 511 -613 136 -104 214 -130 418 -138 139 -5 158 -4
212 15 112 40 138 34 336 -80 224 -128 466 -249 555 -276 82 -26 155 -38 325
-53 153 -14 209 -29 323 -87 153 -78 231 -72 395 30 48 30 132 78 187 107 55
29 117 66 139 83 83 66 141 165 181 309 19 70 38 82 124 80 83 -2 110 17 75
52 -11 11 -35 16 -84 16 l-68 0 21 56 c19 53 20 60 6 127 -8 40 -20 72 -28 75
-10 4 -11 -4 -5 -39 22 -112 2 -196 -62 -264 -20 -22 -36 -53 -44 -87 -22 -92
-75 -194 -128 -246 -29 -28 -90 -69 -153 -101 -57 -30 -144 -79 -193 -109
-101 -63 -164 -85 -215 -76 -20 3 -76 26 -126 50 -134 65 -163 73 -334 89
-162 16 -257 30 -294 44 -39 15 201 66 310 66 50 0 95 -4 99 -8 5 -4 3 -17 -4
-27 -16 -25 -15 -30 3 -30 19 0 38 36 30 60 -16 50 -170 48 -375 -5 -52 -14
-108 -25 -124 -25 -25 0 -27 3 -22 25 9 35 -15 85 -59 124 -47 41 -136 82
-385 176 -255 97 -280 107 -280 114 0 3 15 13 33 22 33 16 66 68 67 106 0 30
-26 53 -61 53 -38 0 -173 -45 -205 -68 -33 -24 -30 -48 21 -126 25 -39 42 -73
38 -77 -5 -3 -31 -14 -59 -23 -44 -14 -68 -15 -192 -6 -78 6 -161 18 -184 26
-42 14 -178 91 -178 99 0 16 37 95 56 122 13 17 57 52 97 77 58 36 83 46 116
46 27 0 53 8 71 20 42 30 176 255 195 325 18 71 19 88 3 83 -7 -3 -19 -34 -29
-70 -11 -44 -38 -100 -84 -174 -91 -146 -95 -151 -159 -156 -42 -3 -70 -15
-130 -52 -82 -51 -115 -87 -142 -154 l-17 -43 -35 33 c-45 43 -363 424 -402
482 -41 60 -74 150 -101 276 -12 58 -32 121 -44 140 -28 45 -100 111 -153 141
-23 13 -42 26 -42 30 0 3 18 6 40 7 55 4 81 15 145 62 73 54 94 99 151 322 61
238 62 252 30 317 -15 28 -24 51 -21 51 3 0 29 -13 58 -29 80 -45 178 -71 267
-71 124 0 162 20 227 117 56 85 153 118 323 111 84 -3 105 -8 161 -35 37 -19
102 -66 154 -114 151 -137 258 -199 344 -199 21 0 85 13 142 30 115 33 176 37
218 15 16 -8 74 -62 129 -121 l100 -106 26 18 c19 12 25 22 20 33 -14 30 -16
100 -4 135 18 56 84 150 220 316 156 191 215 270 360 480 297 431 608 807 955
1155 316 316 555 467 950 603 143 49 458 143 463 138 11 -11 3 -94 -11 -123
-24 -46 -44 -136 -66 -296 -20 -146 -40 -229 -86 -357 -59 -167 -79 -205 -163
-308 -105 -130 -121 -158 -129 -221 -10 -85 -1 -89 171 -83 l144 5 4 -111 c5
-168 -42 -152 474 -162 505 -11 662 -27 942 -101 174 -45 252 -82 287 -135 14
-22 13 -28 -23 -101 -71 -141 -129 -355 -147 -538 -4 -38 -11 -74 -15 -80 -15
-19 -61 -178 -85 -298 -45 -222 -52 -403 -23 -544 10 -50 28 -67 43 -43 19 31
25 -4 25 -150 0 -89 7 -223 16 -298 20 -170 14 -644 -10 -817 -41 -296 -61
-788 -52 -1310 8 -501 -4 -798 -43 -1090 -44 -327 -64 -570 -58 -715 8 -220
-21 -656 -47 -699 -4 -5 -22 -15 -42 -21 -40 -14 -88 -5 -339 62 -342 91 -585
171 -880 291 -213 86 -373 138 -545 178 -168 38 -239 88 -281 195 -19 51 -23
82 -27 235 l-4 176 32 6 c37 8 58 -2 171 -79 169 -115 265 -150 445 -164 109
-8 128 -12 224 -54 143 -61 211 -77 312 -74 108 4 99 21 -12 24 -101 3 -147
15 -300 79 -107 44 -124 48 -235 56 -177 12 -240 37 -440 170 -97 64 -115 73
-152 71 -26 -1 -45 4 -50 11 -4 7 -35 24 -68 37 -388 153 -480 257 -527 590
-9 67 -13 217 -13 505 1 511 10 576 140 1005 62 205 112 413 131 549 27 196 7
332 -88 587 -73 197 -131 291 -278 449 -159 172 -600 544 -688 582 -52 22 -70
9 -107 -72 -18 -40 -39 -75 -47 -78 -30 -11 -83 27 -207 148 -132 128 -163
146 -177 103 -6 -19 11 -39 110 -135 64 -62 140 -129 169 -148 93 -63 156 -42
205 67 l27 61 70 -53 c272 -205 537 -443 662 -594 101 -122 146 -201 203 -360
79 -221 85 -251 84 -421 -1 -175 -21 -281 -111 -590 -139 -478 -150 -533 -164
-870 -15 -350 -1 -698 37 -879 8 -39 30 -103 50 -142 73 -145 183 -235 409
-330 l115 -49 0 -122 c0 -294 51 -423 197 -500 34 -18 119 -46 204 -67 187
-45 316 -89 537 -180 298 -123 785 -273 1102 -341 107 -22 109 -22 126 -4 34
37 182 20 205 -24 11 -20 16 -20 238 -14 417 13 676 58 1086 192 77 25 194 57
260 71 340 72 441 102 605 181 109 53 121 61 245 183 71 71 160 154 197 187
79 69 171 169 288 313 139 171 191 250 276 419 108 216 135 305 139 444 2 87
6 112 20 127 26 29 37 25 68 -25 38 -60 100 -90 170 -82 80 8 155 41 273 119
122 80 297 247 356 338 19 30 119 216 221 413 103 196 205 385 228 420 23 34
83 105 133 157 106 110 122 141 237 435 127 329 156 388 279 572 117 174 117
176 56 372 -57 182 -86 320 -86 414 0 96 -16 198 -42 277 -11 36 -121 263
-243 505 -123 242 -296 593 -385 780 -246 514 -315 650 -395 770 -186 279
-544 652 -742 771 -86 51 -242 113 -553 218 -157 53 -332 115 -390 138 -228
89 -417 202 -490 293 -19 23 -84 90 -144 146 -60 57 -191 194 -291 304 -100
110 -202 218 -226 241 -107 97 -276 188 -417 223 -50 13 -132 22 -232 26 -85
3 -240 13 -345 20 -181 14 -316 17 -360 9z m345 -74 c58 -5 200 -14 315 -20
233 -11 286 -21 412 -80 154 -72 218 -126 431 -359 107 -119 257 -277 333
-351 148 -145 215 -236 267 -363 34 -82 119 -370 212 -727 34 -129 89 -318
122 -420 93 -289 91 -310 -30 -310 -93 0 -377 42 -622 91 -288 58 -330 54
-440 -46 -19 -18 -73 -59 -120 -92 -47 -34 -148 -112 -225 -173 -155 -124
-230 -166 -314 -175 -76 -8 -91 -16 -198 -97 -76 -58 -93 -76 -93 -97 0 -15
-4 -31 -9 -36 -16 -17 -60 -130 -86 -222 -40 -137 -53 -242 -75 -608 -30 -487
-36 -832 -19 -1002 22 -218 17 -696 -9 -903 -42 -331 -53 -620 -56 -1480 -3
-637 -4 -683 -25 -815 -52 -339 -62 -459 -71 -870 -6 -255 -15 -439 -24 -508
-22 -157 -16 -147 -79 -126 -28 10 -69 18 -89 19 -21 0 -38 1 -38 3 0 1 7 52
16 112 10 73 18 244 24 505 9 407 21 565 71 885 21 133 22 176 25 845 3 756
18 1159 54 1440 30 234 37 611 16 820 -11 107 -16 224 -14 335 l3 169 63 36
c56 31 62 38 58 60 -46 208 -45 465 1 670 9 41 16 94 15 117 -4 70 18 215 34
227 8 6 19 38 24 70 13 83 25 116 86 239 36 71 60 107 71 107 9 0 57 31 107
68 112 85 118 88 186 95 90 10 179 64 447 270 348 267 320 250 411 255 62 3
118 -4 282 -36 425 -84 656 -109 668 -73 4 11 -2 13 -28 8 -39 -8 -311 30
-561 78 -101 20 -227 41 -280 47 -155 19 -138 28 -509 -257 -295 -226 -335
-251 -418 -261 -80 -10 -108 -23 -203 -94 -51 -39 -94 -68 -96 -66 -7 7 212
435 263 514 37 57 97 124 186 210 198 193 307 335 421 552 144 272 193 598
127 843 -23 86 -36 114 -96 202 -50 73 -68 89 -119 111 -47 19 -245 33 -245
17 0 -12 56 -23 121 -23 66 0 141 -25 170 -57 52 -56 90 -122 81 -139 -6 -10
0 -44 16 -97 33 -112 42 -322 18 -450 -33 -174 -98 -333 -207 -509 -88 -143
-161 -231 -320 -388 -181 -179 -220 -235 -341 -479 -46 -93 -86 -170 -89 -170
-4 -1 -14 19 -23 44 -30 78 -114 195 -194 269 -162 151 -192 187 -310 364
-209 316 -301 535 -364 867 -20 105 -23 153 -23 380 0 143 4 290 8 326 l8 66
122 48 c204 79 287 138 337 235 40 78 15 84 -28 6 -53 -93 -117 -136 -335
-222 -59 -23 -116 -40 -126 -37 -31 8 -39 -22 -52 -203 -34 -485 47 -894 253
-1269 27 -49 101 -167 164 -262 103 -154 127 -183 240 -290 70 -65 143 -143
164 -173 40 -59 94 -160 85 -160 -3 0 -25 15 -49 34 -96 73 -369 148 -697 191
-149 20 -565 37 -797 33 l-183 -3 7 130 c6 116 5 133 -10 148 -14 14 -21 15
-39 5 -27 -14 -247 -24 -247 -11 0 5 30 45 66 89 99 118 129 168 175 289 72
191 93 275 124 503 9 62 27 145 42 185 17 48 29 109 35 181 5 60 14 119 21
131 7 13 68 68 137 123 204 163 275 247 335 392 42 101 90 162 162 208 27 16
147 93 268 169 194 123 263 159 340 176 38 9 271 7 375 -3z m1901 -1144 c135
-70 245 -114 575 -226 501 -171 576 -205 725 -329 191 -158 453 -448 589 -651
84 -126 117 -191 360 -700 122 -256 288 -595 370 -755 206 -403 249 -491 276
-563 27 -70 28 -76 15 -67 -22 13 -21 -18 0 -42 20 -20 25 -37 27 -102 l4 -78
-109 -31 c-59 -17 -198 -54 -308 -82 -408 -104 -609 -183 -580 -230 5 -8 14
-5 29 8 59 54 229 112 641 217 143 37 275 73 292 80 31 13 33 13 37 -8 27
-155 52 -264 86 -368 22 -70 40 -143 40 -162 0 -28 -19 -65 -92 -174 -107
-162 -178 -306 -278 -568 -110 -289 -127 -321 -227 -422 -48 -49 -110 -124
-139 -168 -44 -69 -165 -293 -323 -602 -43 -84 -58 -103 -47 -59 3 13 15 127
26 252 11 126 24 256 30 288 5 32 7 63 4 68 -21 33 -37 -60 -64 -378 -11 -126
-27 -257 -36 -289 -15 -61 -46 -105 -72 -105 -7 0 -12 -6 -9 -12 2 -7 10 -12
16 -11 27 7 4 -24 -91 -120 -113 -113 -277 -230 -372 -266 -74 -27 -135 -27
-170 0 -23 18 -56 67 -56 84 0 6 41 0 84 -12 17 -5 17 -4 -2 23 -13 19 -23 61
-31 123 -10 83 -10 100 5 142 l18 49 -37 74 c-21 41 -44 79 -51 86 -8 6 -53
18 -100 27 -122 22 -136 38 -136 153 0 102 -19 140 -70 140 -35 0 -93 -48
-120 -99 l-19 -36 -55 118 c-31 64 -56 121 -56 127 0 16 -20 22 -26 7 -7 -19
108 -262 128 -269 20 -8 30 0 57 44 22 37 75 88 91 88 5 0 16 -7 24 -16 12
-12 16 -37 16 -105 0 -87 1 -90 33 -124 27 -30 44 -38 107 -50 108 -22 114
-26 151 -100 l32 -66 -17 -49 c-14 -40 -16 -58 -7 -107 6 -32 12 -77 15 -101
4 -40 3 -42 -17 -36 -12 4 -22 7 -23 8 -1 0 -5 9 -10 18 -8 15 -39 -6 -209
-142 -110 -87 -200 -158 -201 -157 -1 1 2 27 8 57 14 74 3 176 -26 252 -13 35
-54 125 -90 201 -98 202 -142 347 -165 540 -7 62 -5 71 15 98 35 48 47 118 42
245 -3 62 -2 116 2 121 4 4 14 38 23 75 22 91 52 133 151 206 117 86 196 196
245 337 28 82 64 320 56 371 l-6 42 53 12 c85 21 184 65 296 132 170 102 221
158 256 277 23 78 39 97 101 120 125 47 910 287 1023 312 30 8 52 18 52 26 0
7 -3 13 -6 13 -54 0 -1046 -305 -1126 -346 -32 -17 -47 -42 -78 -138 -29 -88
-88 -150 -220 -231 -117 -72 -192 -106 -292 -134 -74 -21 -79 -21 -104 -5 -33
22 -44 52 -44 116 0 44 2 49 18 43 40 -18 119 -35 159 -35 111 0 294 63 349
121 34 35 24 51 -14 21 -86 -71 -248 -118 -367 -109 -88 6 -135 28 -135 61 0
34 -51 52 -68 25 -25 -39 -108 -15 -160 47 -18 21 -37 44 -42 51 -16 20 9 822
36 1192 13 175 14 206 2 218 -19 18 -47 7 -53 -21 -15 -74 -38 -543 -50 -996
-3 -129 -10 -300 -16 -379 -11 -164 -77 -767 -113 -1038 -24 -176 -25 -185
-10 -325 27 -267 20 -364 -33 -411 -19 -16 -19 -21 -7 -125 26 -216 65 -338
185 -591 83 -174 99 -224 99 -312 0 -124 -39 -240 -138 -410 -142 -245 -233
-349 -305 -349 -17 0 -82 10 -144 22 -119 23 -144 21 -151 -16 -5 -23 57 -101
116 -149 26 -20 71 -44 100 -53 47 -14 57 -14 105 0 34 10 69 30 96 55 58 54
43 74 -16 21 -84 -74 -167 -75 -264 -4 -44 32 -109 107 -109 126 0 13 38 10
152 -14 134 -27 167 -20 242 55 64 64 100 116 197 284 l76 132 169 134 c93 74
171 133 173 131 9 -8 0 -121 -15 -176 -32 -125 -130 -334 -229 -488 -72 -113
-245 -321 -360 -435 -401 -395 -382 -378 -506 -439 -137 -66 -290 -114 -521
-161 -95 -19 -249 -60 -343 -90 -304 -99 -560 -154 -818 -175 -148 -12 -417
-14 -417 -2 0 4 7 47 14 97 24 146 36 373 36 630 -1 269 8 382 61 760 31 225
39 442 38 1085 -2 625 11 977 46 1235 37 272 44 698 16 900 -13 92 -14 492 -1
725 40 735 50 812 133 1029 36 95 38 97 166 193 88 66 98 71 160 78 113 12
161 40 377 212 71 57 161 126 199 153 39 27 98 73 133 102 83 71 107 72 377
17 248 -51 496 -86 610 -88 115 -1 144 10 172 70 21 43 13 90 -52 290 -43 133
-65 212 -211 746 -71 262 -113 396 -143 458 -10 22 -18 40 -17 40 2 0 49 -24
107 -54z m-3751 -1345 c0 -16 -11 -19 -82 -24 -144 -12 -168 -10 -168 12 0 22
22 25 178 29 64 2 72 0 72 -17z m970 -276 c253 -29 518 -86 651 -140 63 -25
184 -107 193 -130 3 -8 -1 -26 -9 -41 l-13 -26 -15 28 c-40 76 -125 127 -291
173 -302 85 -527 111 -1026 120 -368 6 -385 7 -388 25 -4 19 6 19 379 13 240
-4 435 -12 519 -22z m755 -466 c-54 -106 -86 -212 -85 -277 1 -31 -2 -108 -6
-169 l-7 -113 -35 0 -35 0 7 72 c15 162 66 352 133 501 28 61 39 75 49 66 11
-9 7 -24 -21 -80z m-6843 -329 c71 -47 158 -178 158 -236 0 -46 -96 -416 -119
-462 -26 -52 -113 -117 -176 -133 -70 -18 -136 -6 -296 54 -236 89 -289 123
-289 186 0 68 51 128 280 330 208 184 286 247 334 271 53 26 54 26 108 -10z
m6734 -287 c-48 -226 -53 -563 -10 -704 3 -12 -17 -29 -76 -64 -45 -26 -84
-45 -87 -41 -3 3 -11 44 -16 91 -18 143 13 407 74 625 35 123 33 120 80 120
40 0 41 -1 35 -27z m2882 -1356 c23 -9 55 -17 70 -17 26 0 27 -2 29 -63 2 -82
15 -113 58 -138 31 -19 35 -26 35 -62 0 -66 -38 -280 -60 -339 -44 -118 -117
-215 -215 -285 -75 -54 -114 -94 -138 -138 l-22 -40 -3 30 c-2 17 8 113 22
215 14 102 41 329 61 505 19 176 38 339 41 362 l6 43 37 -28 c20 -16 55 -36
79 -45z m-8228 -227 c0 -35 -28 -77 -59 -90 -17 -7 -36 -18 -42 -26 -24 -29
-6 -38 371 -182 85 -33 186 -74 223 -92 81 -40 137 -97 137 -140 0 -17 -3 -30
-6 -30 -13 0 -312 157 -449 236 -172 99 -209 114 -276 114 -27 0 -49 4 -49 9
0 5 -18 36 -40 69 -22 33 -40 66 -40 74 0 24 129 76 193 77 31 1 37 -2 37 -19z"/>
<path d="M7502 9850 c-31 -19 -104 -120 -118 -162 -8 -27 6 -37 20 -14 86 142
117 173 161 162 30 -8 31 -22 5 -56 -23 -30 -25 -40 -6 -40 15 0 39 32 50 66
16 50 -56 79 -112 44z"/>
<path d="M8064 9690 c-39 -16 -99 -98 -176 -241 -91 -169 -95 -179 -77 -179 8
0 50 69 94 152 85 161 153 248 194 248 12 0 33 -12 48 -26 31 -31 27 -69 -13
-121 -29 -38 -27 -51 4 -32 56 35 73 133 31 174 -27 26 -74 38 -105 25z"/>
<path d="M8560 9581 c0 -5 14 -11 31 -15 43 -8 93 -64 119 -133 24 -62 60
-235 60 -283 0 -21 5 -30 16 -30 13 0 14 9 9 58 -22 185 -77 340 -139 387 -32
24 -96 35 -96 16z"/>
<path d="M8360 9517 c-14 -7 -55 -52 -92 -101 -37 -49 -92 -115 -124 -147 -31
-31 -54 -63 -52 -70 7 -20 101 73 183 181 102 135 102 135 167 88 28 -20 34 1
7 26 -32 31 -58 38 -89 23z"/>
<path d="M9070 9181 c0 -5 18 -40 40 -77 54 -92 96 -195 111 -272 10 -55 9
-245 -3 -326 -2 -10 2 -21 9 -23 18 -6 28 75 28 217 0 103 -4 138 -23 200 -35
110 -129 290 -152 290 -6 0 -10 -4 -10 -9z"/>
<path d="M6453 9001 c-151 -110 -250 -340 -283 -661 -18 -170 -46 -260 -119
-382 -16 -26 -19 -38 -10 -43 12 -8 15 -5 58 70 50 85 78 189 100 365 11 91
28 192 36 225 38 146 112 289 191 368 47 47 76 62 111 55 28 -5 28 -73 -2
-245 -29 -172 -30 -186 -13 -181 14 5 66 293 67 368 2 91 -58 118 -136 61z"/>
<path d="M6663 8694 c5 -268 14 -350 58 -496 28 -96 128 -308 145 -308 19 0
19 0 -31 101 -25 49 -59 129 -75 177 -54 163 -63 227 -69 511 -5 210 -9 265
-20 269 -11 4 -12 -39 -8 -254z"/>
<path d="M8821 8257 c-8 -10 -9 -17 -1 -22 31 -19 -6 -197 -71 -337 -37 -81
-41 -95 -36 -146 7 -74 50 -225 65 -230 18 -6 14 24 -18 137 -34 117 -32 138
20 241 61 120 98 314 68 353 -12 17 -16 17 -27 4z"/>
<path d="M6258 7614 c-18 -18 -1 -21 130 -28 372 -18 679 -103 875 -242 48
-35 67 -42 67 -24 0 27 -206 143 -335 188 -92 32 -258 70 -380 86 -138 19
-348 30 -357 20z"/>
<path d="M10576 8109 c-3 -17 -6 -55 -6 -84 0 -29 -9 -120 -19 -201 -21 -158
-31 -289 -56 -734 -14 -243 -28 -433 -51 -677 -5 -53 -4 -73 5 -73 6 0 13 6
16 13 9 29 37 393 60 788 21 361 50 717 60 727 1 1 5 -29 9 -68 13 -126 42
-164 74 -97 29 61 55 297 32 297 -12 0 -17 -25 -24 -117 -7 -85 -26 -173 -38
-173 -4 0 -8 6 -8 13 0 6 -5 52 -10 101 -5 49 -10 140 -11 203 -1 83 -5 113
-14 113 -7 0 -15 -14 -19 -31z"/>
<path d="M10939 7793 c0 -5 0 -60 1 -123 1 -136 -17 -262 -95 -660 -60 -305
-89 -486 -79 -501 11 -19 22 2 29 58 10 83 41 264 76 438 92 461 115 651 93
764 -6 27 -23 44 -25 24z"/>
<path d="M11229 7523 c-294 -650 -354 -893 -404 -1638 -17 -244 -63 -598 -95
-728 -11 -44 -33 -104 -50 -135 -25 -46 -30 -67 -30 -124 0 -72 11 -108 34
-108 13 0 105 89 144 140 11 14 55 99 99 190 108 222 176 310 241 310 26 0
107 -61 124 -93 14 -27 -7 -42 -68 -52 -50 -7 -57 -32 -8 -27 131 13 143 71
32 160 -46 38 -58 43 -90 39 -77 -10 -135 -82 -245 -307 -83 -170 -157 -281
-210 -315 l-23 -15 0 79 c0 44 4 83 10 86 14 9 48 90 66 158 20 78 80 497 88
612 22 330 28 410 37 495 13 130 26 213 55 363 49 251 102 406 268 786 42 96
76 178 76 183 0 4 -5 8 -10 8 -6 0 -25 -30 -41 -67z"/>
<path d="M11583 7218 c2 -40 26 -167 52 -283 26 -115 53 -248 61 -295 39 -237
1 -440 -172 -915 -42 -114 -70 -203 -65 -208 13 -13 20 4 99 224 82 228 133
390 158 509 22 102 24 325 5 415 -7 33 -34 161 -61 285 -27 124 -52 251 -55
283 -11 85 -29 72 -22 -15z"/>
<path d="M9654 6930 c14 -151 69 -434 137 -698 161 -630 174 -706 167 -999 -3
-134 -1 -183 8 -183 26 0 32 299 10 480 -23 178 -28 202 -176 775 -42 163 -79
343 -100 495 -28 193 -30 200 -42 200 -7 0 -9 -22 -4 -70z"/>
<path d="M9518 5713 c-47 -54 -85 -189 -95 -336 -5 -83 -4 -99 8 -95 10 3 16
30 20 94 10 167 60 319 104 319 64 0 131 -308 179 -825 12 -128 46 -592 46
-632 0 -5 7 -8 16 -8 13 0 15 8 10 38 -3 20 -8 93 -11 162 -23 461 -85 959
-145 1161 -35 117 -91 169 -132 122z"/>
<path d="M12215 5446 c-318 -80 -773 -234 -783 -265 -6 -17 19 -13 88 15 194
79 461 163 721 228 147 36 198 57 157 63 -7 1 -89 -17 -183 -41z"/>
<path d="M8005 4970 c-34 -66 -43 -331 -19 -523 10 -77 30 -53 24 29 -17 231
0 494 31 494 30 0 82 -188 163 -590 92 -460 119 -808 81 -1050 -21 -134 -21
-132 -9 -137 24 -8 54 213 54 397 0 235 -44 543 -140 990 -28 129 -60 264 -72
300 -38 117 -81 151 -113 90z"/>
<path d="M12326 4931 c-55 -68 -140 -147 -230 -211 -40 -29 -60 -60 -39 -60 3
0 40 26 82 57 81 61 161 138 226 217 l40 49 25 -39 c14 -22 53 -57 90 -81 70
-45 150 -111 150 -123 0 -4 -37 -11 -82 -15 -95 -8 -145 -27 -207 -79 -50 -42
-77 -51 -131 -42 -43 7 -54 -6 -21 -24 47 -25 94 -12 169 44 74 56 130 76 212
76 53 0 90 16 90 38 0 25 -72 91 -157 142 -49 30 -78 55 -93 82 -33 59 -58 52
-124 -31z"/>
<path d="M12075 4893 c-137 -31 -725 -270 -725 -294 0 -17 26 -9 170 55 265
117 521 209 556 200 11 -3 28 2 39 10 17 14 18 17 5 26 -8 5 -17 9 -20 9 -3
-1 -14 -3 -25 -6z"/>
<path d="M10146 4638 c-3 -7 -6 -57 -8 -110 l-4 -97 -51 -74 c-32 -45 -76
-132 -114 -223 -60 -145 -62 -153 -72 -276 -5 -70 -7 -134 -4 -142 16 -40 25
-6 29 112 5 122 7 132 51 244 58 149 95 222 140 281 20 26 41 64 47 85 13 48
13 199 0 207 -6 3 -12 0 -14 -7z"/>
<path d="M12496 4563 c-4 -5 -60 -10 -124 -13 l-116 -5 -23 -34 c-37 -54 -31
-107 24 -224 25 -55 49 -114 52 -130 4 -17 13 -33 20 -35 24 -8 6 63 -39 157
-52 108 -63 155 -45 197 7 17 19 35 26 40 8 4 59 9 114 9 96 2 165 17 165 36
0 11 -44 12 -54 2z"/>
<path d="M11727 4393 c-11 -20 29 -126 97 -256 91 -173 106 -223 106 -342 0
-172 -37 -237 -173 -305 -90 -45 -103 -55 -89 -64 14 -8 163 67 204 103 54 47
79 117 85 236 8 151 -2 184 -145 457 -27 54 -53 116 -57 138 -6 37 -18 50 -28
33z"/>
<path d="M11825 4359 c-4 -6 -1 -17 6 -23 8 -7 53 -49 100 -93 125 -116 258
-218 270 -206 7 7 -8 24 -43 50 -61 46 -132 107 -246 211 -51 46 -83 69 -87
61z"/>
<path d="M11043 4315 c-59 -16 -175 -72 -213 -103 -32 -26 -17 -42 18 -18 76
49 194 97 254 102 55 5 69 2 110 -20 48 -26 72 -22 40 7 -27 25 -88 47 -124
46 -18 0 -56 -7 -85 -14z"/>
<path d="M10396 3685 c-22 -23 -12 -86 12 -71 5 3 7 18 4 32 -5 27 -5 27 44
22 77 -8 104 -23 104 -55 0 -16 -9 -43 -20 -60 -22 -37 -44 -41 -129 -21 -43
10 -53 9 -75 -6 -21 -13 -58 -70 -84 -128 -2 -5 3 -8 12 -8 9 0 30 25 47 56
18 31 38 58 45 61 8 3 44 -1 80 -8 79 -16 106 -5 137 54 29 56 17 104 -30 123
-60 25 -126 29 -147 9z"/>
<path d="M11020 3610 c-64 -30 -80 -48 -80 -89 0 -45 21 -85 120 -225 111
-157 132 -206 138 -332 5 -117 -5 -176 -74 -406 -24 -81 -44 -150 -44 -153 0
-3 6 -5 13 -5 9 0 28 51 55 143 76 260 77 264 76 392 0 143 -15 192 -102 318
-168 247 -173 257 -147 294 24 34 95 56 163 51 43 -3 83 -16 146 -46 96 -46
106 -49 106 -29 0 7 -44 33 -97 57 -121 54 -201 63 -273 30z"/>
<path d="M10582 3487 c-12 -13 -22 -26 -22 -30 0 -14 29 -7 38 9 13 24 41 11
92 -41 52 -53 49 -71 -16 -94 -34 -11 -51 -11 -132 5 -87 16 -96 17 -145 1
-69 -22 -152 -76 -138 -90 7 -7 23 -2 50 17 80 56 141 66 244 41 114 -27 223
19 202 85 -8 26 -115 120 -135 120 -9 0 -26 -10 -38 -23z"/>
<path d="M10100 2059 c-19 -17 -95 -74 -168 -126 -136 -97 -176 -140 -188
-203 -7 -32 -6 -34 9 -21 9 7 17 19 17 25 0 32 62 94 173 172 148 106 218 164
211 175 -8 14 -16 10 -54 -22z"/>
<path d="M9235 1620 c-3 -5 15 -19 40 -31 27 -13 68 -46 97 -79 43 -49 83 -80
103 -80 14 0 2 30 -14 35 -10 3 -38 28 -61 57 -42 49 -121 108 -146 108 -7 0
-16 -4 -19 -10z"/>
<path d="M9673 837 c-137 -113 -163 -132 -233 -170 -134 -74 -217 -92 -511
-108 -266 -14 -388 -4 -574 47 -346 95 -636 146 -730 128 -58 -10 -39 -24 33
-24 135 -1 400 -50 663 -124 174 -49 229 -56 441 -56 231 0 420 15 516 41 120
32 239 99 357 199 33 28 72 60 86 70 l26 19 -5 -26 c-6 -33 12 -23 34 19 16
30 13 58 -5 58 -6 0 -50 -33 -98 -73z"/>
<path d="M675 6313 c-16 -9 -64 -46 -105 -83 -41 -36 -142 -121 -225 -187
-145 -116 -201 -176 -229 -245 -7 -18 -10 -42 -7 -54 13 -44 71 -95 144 -125
219 -91 323 -112 410 -85 106 32 156 95 189 235 11 48 33 135 49 194 41 151
39 169 -20 254 -72 102 -138 133 -206 96z m95 -39 c3 -11 27 -53 54 -92 l49
-72 -31 -107 c-17 -60 -40 -152 -52 -206 -35 -156 -84 -205 -210 -206 -62 -1
-129 18 -277 77 -56 23 -108 39 -116 37 -17 -7 -57 31 -57 54 0 10 18 45 39
78 29 45 72 87 168 164 70 56 173 141 228 189 55 48 109 92 120 98 31 18 78
11 85 -14z"/>
<path d="M5255 7898 c-2 -7 -27 -78 -55 -157 -91 -254 -109 -366 -75 -462 17
-48 64 -102 107 -125 46 -24 39 0 -14 46 -62 53 -80 94 -80 180 0 84 21 166
88 353 30 81 54 154 54 162 0 18 -19 20 -25 3z"/>
<path d="M4355 7218 c0 -98 -6 -174 -19 -240 -25 -133 -19 -211 20 -274 24
-39 39 -52 78 -66 27 -9 61 -29 76 -43 21 -20 30 -23 36 -14 9 16 -61 79 -88
79 -32 0 -56 18 -82 63 -37 64 -39 94 -17 228 11 68 23 158 27 200 8 92 -3
209 -19 209 -9 0 -12 -40 -12 -142z"/>
<path d="M3872 7057 c-34 -40 -81 -197 -101 -337 -24 -157 -104 -428 -157
-530 -31 -60 -61 -97 -70 -87 -14 14 -17 136 -4 235 9 80 40 196 75 285 13 33
-20 18 -67 -30 -58 -60 -82 -109 -113 -226 -42 -163 -115 -721 -96 -740 15
-15 17 -6 46 247 42 367 82 552 138 649 32 54 53 63 32 15 -45 -108 -68 -419
-34 -454 24 -24 53 -10 88 42 68 104 145 342 187 582 35 199 80 342 104 327 6
-4 10 -39 10 -80 0 -40 3 -80 6 -89 8 -20 50 -21 191 -4 57 6 106 8 110 4 5
-4 -7 -21 -25 -36 -40 -33 -26 -51 16 -21 48 34 57 48 41 67 -14 17 -9 17
-274 1 l-30 -2 -6 80 c-3 44 -9 88 -14 98 -8 20 -38 23 -53 4z"/>
<path d="M5302 6798 c-50 -50 51 -299 243 -598 175 -274 199 -350 199 -605 0
-169 -4 -205 -85 -880 -13 -108 -22 -246 -23 -345 -2 -244 8 -269 154 -373 59
-43 104 -104 131 -177 12 -34 26 -59 31 -58 13 5 12 15 -12 80 -26 71 -72 132
-130 175 -146 105 -145 103 -144 353 1 159 8 250 38 495 62 513 69 585 69 745
-1 243 -31 332 -207 608 -143 224 -238 425 -248 522 -3 35 1 38 35 25 28 -11
21 20 -8 33 -31 15 -28 15 -43 0z"/>
<path d="M4717 6343 c4 -27 7 -280 7 -563 l-2 -515 -25 -70 c-14 -38 -37 -101
-52 -140 -38 -101 -48 -285 -15 -285 6 0 10 39 10 93 0 77 5 106 31 177 16 47
41 118 54 158 l25 73 2 507 c2 519 -2 612 -29 612 -12 0 -13 -9 -6 -47z"/>
<path d="M1530 6258 c0 -12 11 -41 25 -63 47 -77 58 -110 63 -197 4 -70 8 -88
20 -88 13 0 14 13 9 83 -7 93 -36 198 -69 247 -29 42 -48 49 -48 18z"/>
<path d="M1962 6168 c-8 -8 -12 -58 -12 -157 0 -81 -4 -175 -9 -211 -14 -99
-18 -295 -6 -298 6 -1 11 23 12 55 2 32 10 130 18 218 9 88 16 210 18 270 l2
110 25 -3 c14 -2 54 -17 89 -34 l63 -30 -7 -42 c-10 -66 -11 -71 0 -74 15 -5
39 81 31 111 -4 19 -24 35 -77 61 -73 37 -126 45 -147 24z"/>
<path d="M5840 6163 c0 -4 16 -53 36 -108 135 -376 220 -874 258 -1505 4 -52
13 -207 21 -345 33 -537 68 -817 118 -923 17 -36 24 -43 45 -40 16 2 33 14 43
33 20 34 69 216 69 258 0 47 -18 29 -30 -30 -21 -98 -59 -220 -74 -232 -45
-38 -98 260 -131 744 -8 121 -22 333 -30 470 -37 604 -91 990 -189 1345 -43
157 -107 332 -123 338 -7 2 -13 0 -13 -5z"/>
<path d="M1354 6103 c40 -132 50 -187 50 -268 1 -155 -50 -246 -183 -325 -79
-47 -118 -84 -101 -95 6 -4 24 4 38 17 15 14 55 41 88 62 107 63 158 136 184
261 14 65 8 133 -20 245 -29 115 -31 120 -47 120 -9 0 -12 -6 -9 -17z"/>
<path d="M4342 6100 c-46 -19 -37 -61 15 -75 41 -10 53 13 14 26 -27 10 -30
14 -17 21 35 20 140 20 216 0 84 -22 118 -13 54 14 -45 20 -245 30 -282 14z"/>
<path d="M2336 5894 c-3 -9 -6 -31 -6 -49 0 -19 -16 -115 -35 -215 -19 -100
-35 -196 -35 -214 0 -34 15 -56 37 -56 24 0 159 143 212 224 81 125 91 193 32
214 -16 6 -35 20 -41 32 -8 16 -15 19 -22 12 -16 -16 16 -60 47 -68 18 -4 25
-13 25 -30 0 -60 -79 -184 -184 -289 l-71 -70 -3 37 c-2 20 13 117 32 217 35
177 45 271 27 271 -5 0 -12 -7 -15 -16z"/>
<path d="M3815 5670 c-3 -6 0 -12 7 -14 7 -3 45 -14 83 -26 145 -44 185 -82
341 -315 134 -201 160 -233 173 -220 7 7 -2 25 -26 55 -20 25 -82 115 -138
200 -140 213 -195 262 -349 309 -78 24 -83 25 -91 11z"/>
<path d="M2646 5593 c-9 -33 -44 -227 -61 -343 -18 -116 -24 -342 -15 -503 5
-87 4 -89 -22 -112 -19 -16 -51 -27 -103 -36 -70 -11 -95 -22 -82 -36 8 -8
149 18 178 33 54 27 54 27 55 308 1 266 11 367 59 594 8 40 15 82 15 93 0 24
-17 25 -24 2z"/>
<path d="M4860 5493 c-6 -32 -22 -92 -36 -133 -37 -114 -32 -145 26 -184 54
-36 103 -11 131 69 9 24 17 31 31 27 22 -5 23 7 4 34 -18 24 -30 14 -65 -58
-28 -57 -49 -68 -88 -47 -43 23 -45 41 -18 126 29 93 55 210 47 218 -14 13
-21 1 -32 -52z"/>
<path d="M2976 5391 c-7 -11 -23 -199 -31 -365 -5 -104 -4 -127 7 -124 10 4
16 55 25 202 7 109 14 206 15 215 4 15 30 -118 44 -220 9 -72 -11 -150 -80
-308 -93 -210 -100 -239 -93 -390 8 -178 26 -301 44 -301 12 0 14 8 9 33 -18
107 -36 318 -30 367 9 69 38 153 103 298 28 62 56 132 62 155 20 77 9 216 -32
400 -10 43 -29 61 -43 38z"/>
<path d="M1515 5268 c-91 -127 -174 -217 -225 -243 -19 -10 -79 -26 -133 -36
-124 -22 -191 -53 -195 -91 -5 -38 38 -57 237 -107 300 -75 355 -60 480 133
78 120 70 138 -42 107 -82 -23 -113 -26 -122 -10 -4 5 0 18 9 28 19 21 21 44
4 39 -6 -2 -20 -16 -31 -30 -15 -20 -17 -30 -8 -46 15 -29 56 -32 136 -12 38
10 72 16 74 14 5 -5 -78 -132 -113 -172 -43 -50 -75 -62 -160 -62 -54 0 -117
11 -228 39 -177 45 -210 58 -206 80 4 21 80 48 184 66 46 8 101 23 123 34 53
27 125 99 196 196 32 44 74 100 92 124 29 39 35 61 15 61 -4 0 -43 -51 -87
-112z"/>
<path d="M3286 5292 c-3 -5 12 -33 33 -63 22 -30 82 -137 135 -239 54 -102
109 -198 124 -214 34 -36 80 -56 130 -56 l39 0 7 -102 c3 -57 22 -200 40 -318
48 -301 48 -302 36 -295 -5 3 -10 12 -10 19 0 20 -36 61 -43 50 -10 -16 47
-118 67 -122 18 -4 19 2 13 89 -3 52 -20 175 -37 274 -39 223 -46 398 -26 660
13 168 11 227 -7 198 -3 -5 -11 -76 -17 -158 -6 -83 -13 -177 -16 -210 l-5
-61 -55 6 c-78 9 -106 41 -209 242 -117 227 -183 326 -199 300z"/>
<path d="M2279 5165 c-35 -19 -84 -81 -154 -195 -32 -52 -68 -107 -81 -123
-13 -15 -37 -53 -54 -85 -17 -32 -51 -81 -75 -109 -43 -50 -55 -73 -36 -73 16
0 92 93 128 158 20 35 46 76 58 90 12 15 48 70 80 122 71 118 117 176 158 196
29 15 33 15 64 -1 40 -22 57 -11 24 16 -27 22 -75 24 -112 4z"/>
<path d="M4787 5009 c-40 -21 -70 -71 -83 -138 -11 -53 11 -34 37 31 20 53 31
66 67 86 23 13 40 28 37 33 -8 12 -14 11 -58 -12z"/>
<path d="M4237 4963 c-2 -4 -28 -84 -57 -178 -54 -173 -65 -234 -43 -242 14
-5 83 65 83 85 0 21 -18 13 -44 -20 -14 -18 -26 -28 -26 -23 0 6 25 90 56 189
36 116 52 182 46 188 -5 5 -12 6 -15 1z"/>
<path d="M3294 4926 c-17 -8 -34 -21 -38 -31 -3 -9 -6 -71 -6 -137 0 -149 -22
-305 -58 -406 -15 -42 -61 -132 -101 -200 -41 -67 -71 -126 -67 -129 11 -11
31 16 101 132 112 187 142 302 152 568 6 167 6 169 30 178 13 5 28 9 33 9 16
0 22 -59 29 -285 8 -258 9 -261 88 -349 25 -28 50 -61 57 -75 20 -39 36 -124
36 -191 0 -49 3 -60 16 -60 15 0 16 11 9 92 -9 118 -33 180 -95 250 -74 83
-80 103 -80 275 -1 147 -13 323 -26 356 -7 20 -37 21 -80 3z"/>
<path d="M2875 4868 c-25 -73 -48 -125 -72 -165 -51 -83 -69 -165 -58 -268 4
-36 12 -64 17 -63 5 2 10 53 12 113 l2 110 57 110 c59 112 79 175 58 175 -6 0
-14 -6 -16 -12z"/>
<path d="M4780 4610 c0 -6 39 -57 88 -114 48 -56 120 -141 160 -189 79 -94
115 -119 254 -179 63 -27 119 -43 185 -52 116 -16 131 -28 201 -169 198 -398
491 -1328 545 -1730 13 -98 33 -118 29 -29 -7 159 -117 588 -267 1037 -202
608 -334 891 -425 908 -14 3 -59 9 -100 15 -86 10 -248 76 -313 126 -22 17
-105 109 -186 205 -138 165 -171 198 -171 171z"/>
<path d="M4234 4348 c-16 -12 -55 -46 -87 -75 -33 -30 -92 -76 -132 -103 -102
-69 -120 -96 -134 -200 -6 -47 -21 -113 -32 -148 -21 -62 -21 -80 0 -67 16 9
50 130 60 214 6 46 17 84 29 100 10 14 59 55 109 91 50 36 119 91 153 123 35
31 67 57 71 57 5 0 16 -28 26 -62 10 -34 25 -64 32 -66 15 -5 13 6 -15 106
-17 59 -33 66 -80 30z"/>
<path d="M5133 3838 c-19 -24 -300 -623 -321 -683 -11 -33 -25 -87 -32 -120
-7 -33 -39 -120 -72 -194 -71 -162 -86 -206 -132 -386 -43 -167 -63 -333 -50
-425 8 -60 11 -65 34 -65 l25 0 6 155 c6 141 11 172 53 335 35 134 65 220 115
335 38 85 77 191 86 235 24 107 59 190 215 515 133 277 140 300 98 308 -8 2
-19 -3 -25 -10z"/>
<path d="M5440 3573 c0 -50 50 -473 76 -648 77 -512 160 -755 258 -755 60 0
130 82 168 195 19 59 23 91 23 200 0 139 -24 255 -51 255 -17 0 -18 8 6 -85
48 -189 6 -428 -90 -509 -59 -49 -98 -28 -145 78 -71 161 -152 608 -203 1115
-11 118 -21 176 -29 179 -9 2 -13 -6 -13 -25z"/>
<path d="M7026 2436 c-87 -88 -169 -180 -183 -203 -17 -30 -27 -67 -33 -130
-14 -135 -68 -289 -175 -503 -92 -183 -117 -355 -54 -375 23 -8 79 18 109 50
31 33 7 43 -30 11 -58 -48 -90 -43 -90 15 0 57 44 191 105 319 111 234 165
398 165 507 1 70 33 118 170 252 154 150 216 225 183 220 -5 -1 -79 -74 -167
-163z"/>
<path d="M6335 1458 c4 -222 9 -406 12 -410 2 -5 9 -8 15 -8 7 0 8 115 4 368
-7 388 -11 452 -28 452 -7 0 -8 -128 -3 -402z"/>
<path d="M7021 1575 c-74 -78 -86 -110 -84 -230 1 -91 25 -290 37 -302 17 -18
21 16 10 89 -40 250 -30 328 52 418 51 54 65 80 45 80 -4 0 -31 -25 -60 -55z"/>
<path d="M6585 845 c-33 -14 -61 -25 -62 -25 -2 0 -3 -7 -3 -15 0 -21 13 -19
70 10 27 14 65 25 85 25 37 0 46 -11 60 -73 8 -41 39 -67 80 -67 20 0 82 16
138 35 119 41 123 41 130 15 7 -29 27 -25 27 5 0 47 -37 49 -153 9 -66 -22
-116 -34 -142 -32 -39 3 -40 4 -58 58 -10 30 -25 61 -34 68 -25 18 -72 14
-138 -13z"/>
</g>
</svg>
