<?xml version="1.0" standalone="no"?>
<!DOCTYPE svg PUBLIC "-//W3C//DTD SVG 20010904//EN"
 "http://www.w3.org/TR/2001/REC-SVG-20010904/DTD/svg10.dtd">
<svg version="1.0" xmlns="http://www.w3.org/2000/svg"
 width="1280.000000pt" height="1116.000000pt" viewBox="0 0 1280.000000 1116.000000"
 preserveAspectRatio="xMidYMid meet">
<metadata>
Created by potrace 1.15, written by Peter Selinger 2001-2017
</metadata>
<g transform="translate(0.000000,1116.000000) scale(0.100000,-0.100000)"
fill="#e91e63" stroke="none">
<path d="M4550 11149 c-63 -4 -218 -17 -345 -28 -439 -40 -502 -43 -950 -50
l-450 -7 -100 -38 c-137 -53 -323 -142 -555 -265 -238 -126 -338 -174 -545
-258 -371 -152 -535 -254 -1185 -744 -193 -145 -324 -251 -338 -272 -13 -20
-36 -64 -50 -99 -22 -54 -26 -78 -26 -168 0 -126 18 -199 80 -325 86 -175 162
-267 604 -730 327 -343 398 -420 539 -584 304 -353 531 -699 640 -972 30 -77
76 -240 171 -604 230 -886 438 -1406 765 -1910 166 -255 426 -608 736 -995
693 -866 1373 -1559 1829 -1865 131 -88 395 -230 656 -354 51 -23 107 -56 126
-71 51 -42 92 -130 122 -260 45 -194 88 -305 157 -406 39 -57 129 -144 149
-144 19 0 50 30 50 48 0 6 -29 43 -64 82 -103 114 -135 184 -196 426 -21 83
-51 177 -66 209 -39 78 -116 146 -228 199 -50 24 -138 66 -196 94 -156 74
-152 68 -79 129 l61 51 51 -30 c28 -16 121 -62 207 -102 183 -85 239 -121 278
-179 40 -61 49 -85 78 -215 51 -227 115 -364 224 -474 36 -38 71 -68 78 -68
14 0 52 36 52 50 0 5 -27 39 -60 76 -103 113 -155 228 -204 449 -56 251 -102
300 -413 451 -117 56 -213 105 -213 107 0 2 26 27 58 55 l59 51 134 -67 c74
-37 176 -87 227 -111 169 -80 212 -139 261 -359 50 -219 109 -345 217 -462 44
-46 63 -60 85 -60 24 0 49 22 49 44 0 3 -23 31 -51 63 -111 125 -161 232 -209
445 -38 169 -72 240 -150 312 -59 54 -85 69 -322 179 -176 83 -170 74 -98 137
l60 52 62 -35 c35 -19 128 -64 208 -101 271 -124 290 -148 364 -459 43 -179
108 -308 209 -412 58 -60 97 -72 117 -36 16 31 13 37 -54 111 -103 112 -148
209 -196 422 -58 255 -116 324 -370 445 -198 95 -260 125 -260 130 0 4 57 55
95 84 l23 19 226 -110 c312 -151 339 -180 391 -405 44 -194 84 -296 156 -402
44 -64 126 -143 148 -143 20 0 51 30 51 48 0 7 -29 44 -65 83 -91 99 -143 210
-190 404 -20 83 -47 173 -59 200 -48 103 -130 178 -265 241 -243 114 -311 148
-309 155 2 5 29 31 62 58 l59 50 41 -26 c22 -15 111 -59 196 -98 282 -129 322
-171 375 -401 56 -240 112 -359 220 -471 38 -40 76 -73 83 -73 14 0 52 36 52
50 0 5 -27 39 -60 76 -104 114 -147 208 -201 434 -57 242 -118 319 -333 424
-72 36 -160 78 -196 94 -110 50 -110 49 -43 108 l58 51 222 -108 c319 -155
339 -177 404 -435 60 -242 122 -367 233 -473 56 -52 76 -57 104 -23 18 23 16
29 -32 80 -112 121 -167 235 -217 451 -61 267 -121 332 -441 481 -87 40 -165
78 -174 84 -14 11 -8 19 44 64 l60 52 99 -50 c54 -28 150 -75 214 -104 131
-62 208 -124 252 -204 15 -28 40 -107 57 -182 17 -73 45 -171 64 -216 82 -200
236 -359 276 -285 16 31 13 37 -41 93 -104 106 -159 222 -208 432 -66 284
-129 349 -501 515 -52 23 -103 49 -114 56 -17 13 -16 15 18 46 20 17 47 40 60
50 l24 19 224 -109 c306 -149 343 -188 393 -409 49 -217 102 -337 199 -453 73
-87 109 -105 137 -70 10 13 19 27 19 32 0 5 -30 41 -66 80 -98 108 -149 218
-194 424 -12 56 -39 135 -61 181 -59 126 -109 165 -359 286 -113 55 -207 102
-209 104 -3 2 15 21 39 42 82 70 68 70 193 9 61 -30 161 -78 220 -107 179 -87
237 -160 282 -358 40 -177 88 -299 156 -398 40 -58 130 -144 150 -144 17 0 49
35 49 52 0 4 -30 40 -66 80 -92 102 -142 210 -192 413 -71 288 -127 348 -472
505 -74 34 -141 67 -148 74 -10 10 -1 22 47 62 l59 50 219 -107 c311 -152 345
-189 403 -432 53 -226 113 -350 220 -460 52 -53 71 -66 86 -61 20 7 44 32 44
46 0 4 -27 37 -60 73 -103 114 -141 197 -201 434 -67 267 -116 321 -426 472
-112 54 -203 101 -203 103 0 2 26 27 59 55 l58 51 89 -45 c49 -25 141 -69 204
-99 221 -103 271 -164 330 -401 60 -238 115 -351 228 -467 51 -53 93 -64 112
-29 14 27 16 23 -41 88 -111 125 -153 214 -210 442 -72 287 -125 339 -541 530
-49 22 -88 43 -87 48 0 4 29 31 63 60 l63 51 189 -93 c208 -102 277 -148 333
-222 46 -62 63 -107 96 -252 44 -199 127 -365 230 -460 57 -53 94 -54 109 -4
6 18 -4 35 -53 86 -106 115 -151 209 -200 423 -34 144 -71 229 -132 298 -57
65 -127 110 -319 206 -91 45 -167 84 -169 86 -8 7 64 59 78 56 34 -7 245 -118
419 -220 207 -121 194 -107 231 -277 27 -123 54 -202 96 -286 59 -117 165
-239 209 -239 14 0 46 36 46 52 0 4 -28 39 -63 77 -94 102 -151 220 -191 394
-24 105 -26 104 67 53 45 -24 144 -72 220 -106 77 -33 146 -65 155 -70 10 -5
69 -21 132 -35 150 -35 305 -97 414 -165 48 -30 146 -106 219 -169 261 -225
395 -318 527 -361 81 -27 115 -19 181 44 57 55 63 69 40 97 -24 29 -64 19
-107 -27 -18 -19 -42 -34 -54 -34 -27 0 -140 56 -227 113 -69 44 -141 102
-288 232 -211 186 -398 290 -630 350 -38 10 -71 19 -73 21 -6 4 48 104 56 104
17 0 162 -43 227 -67 174 -65 267 -125 486 -314 251 -217 450 -339 550 -339
43 0 53 5 108 53 61 52 74 80 49 105 -22 22 -58 13 -102 -28 -24 -22 -49 -40
-57 -40 -55 0 -287 147 -429 272 -232 203 -297 251 -440 323 -77 39 -296 115
-330 115 -25 0 -25 1 6 61 25 50 26 51 62 44 71 -13 246 -76 326 -116 110 -57
179 -105 304 -213 189 -164 256 -216 347 -273 157 -99 253 -130 308 -102 35
18 117 102 117 120 0 15 -37 57 -46 52 -2 -2 -17 -9 -32 -17 -15 -8 -38 -26
-51 -40 -14 -14 -35 -26 -47 -26 -64 0 -248 113 -403 247 -339 292 -443 356
-703 433 -56 17 -103 32 -105 34 -3 2 7 27 21 54 l26 51 92 -26 c244 -66 381
-143 608 -343 289 -254 509 -382 603 -350 37 12 137 103 137 124 0 21 -28 46
-51 46 -11 0 -39 -18 -63 -40 -24 -22 -52 -40 -62 -40 -58 0 -259 124 -408
251 -234 200 -283 239 -356 283 -101 61 -238 120 -360 154 l-98 27 25 50 c14
28 27 51 28 53 6 6 189 -47 255 -74 158 -64 245 -118 395 -246 54 -46 134
-114 179 -152 195 -166 391 -264 482 -242 40 10 136 110 127 133 -17 47 -62
44 -118 -8 -43 -40 -45 -41 -82 -29 -106 34 -249 130 -433 290 -73 63 -166
141 -209 173 -120 90 -304 178 -466 222 -33 9 -66 18 -73 20 -9 3 -6 18 13 56
26 50 27 51 63 44 68 -13 226 -67 307 -105 109 -52 182 -102 299 -201 296
-254 346 -290 487 -361 92 -46 153 -57 191 -37 14 8 46 33 72 56 39 34 47 47
44 70 -3 24 -8 28 -39 31 -30 3 -42 -3 -77 -37 -36 -36 -44 -39 -71 -31 -96
27 -282 150 -446 295 -249 220 -399 310 -630 380 -65 20 -121 38 -123 39 -2 2
8 27 22 54 l26 51 92 -25 c264 -72 370 -136 715 -433 197 -169 410 -284 493
-266 37 8 140 106 140 133 0 22 -26 42 -55 42 -8 0 -36 -19 -60 -41 -55 -51
-71 -49 -189 15 -107 59 -186 117 -346 256 -72 63 -169 142 -213 174 -109 78
-274 157 -413 197 -63 18 -114 37 -114 41 0 13 39 86 49 92 19 12 232 -57 346
-113 140 -69 186 -102 396 -283 240 -206 407 -308 519 -316 53 -4 57 -3 112
45 63 54 74 73 58 103 -18 34 -62 26 -112 -20 -48 -46 -55 -46 -145 -4 -97 46
-226 139 -385 276 -226 196 -313 254 -480 322 -48 19 -123 44 -165 56 -43 12
-83 23 -90 25 -8 3 -4 19 14 52 15 26 28 50 30 52 5 7 175 -41 259 -74 164
-64 247 -120 485 -325 261 -226 458 -337 557 -316 26 6 142 105 142 121 0 3
-5 15 -10 26 -18 33 -67 25 -116 -21 -38 -35 -46 -38 -74 -30 -84 24 -257 135
-384 244 -248 217 -331 279 -462 344 -61 31 -230 91 -311 112 l-42 11 26 53
26 54 86 -23 c253 -68 394 -149 646 -371 144 -126 230 -190 340 -253 103 -59
182 -86 225 -76 42 9 140 101 140 130 0 56 -56 56 -119 0 -21 -19 -46 -35 -54
-35 -29 0 -125 48 -215 106 -93 61 -132 91 -282 223 -52 46 -129 110 -171 141
-128 96 -336 192 -496 230 -29 6 -53 14 -53 16 0 3 11 27 25 54 29 57 15 56
165 13 196 -56 344 -141 539 -309 302 -262 480 -374 595 -374 39 0 51 6 105
53 61 52 74 80 49 105 -22 22 -58 13 -102 -28 -24 -22 -49 -40 -55 -40 -24 0
-118 45 -201 96 -86 54 -144 99 -353 279 -190 163 -353 253 -565 312 -53 15
-99 28 -101 30 -8 6 42 103 53 103 25 0 199 -52 267 -80 166 -69 229 -111 462
-312 275 -236 473 -349 570 -324 14 3 51 30 83 60 54 51 57 56 46 80 -18 40
-62 35 -113 -11 -49 -44 -67 -44 -149 -3 -103 52 -235 148 -400 290 -188 162
-261 213 -392 275 -83 39 -235 93 -311 109 l-27 6 25 50 c14 28 32 50 41 50
56 0 247 -65 358 -121 114 -58 171 -100 356 -259 287 -247 495 -364 586 -330
32 13 116 86 126 112 4 10 0 26 -11 39 -24 29 -64 19 -106 -27 -17 -19 -41
-34 -52 -34 -56 0 -245 112 -374 222 -48 40 -131 111 -185 157 -184 157 -329
237 -549 302 -60 18 -111 34 -113 35 -2 1 9 25 25 52 33 60 26 60 206 1 206
-67 306 -128 537 -329 184 -160 265 -219 391 -284 117 -60 182 -72 224 -42 49
35 105 95 105 112 0 56 -56 57 -114 4 -24 -22 -51 -40 -60 -40 -31 0 -208 100
-299 169 -51 38 -139 111 -196 162 -155 136 -253 205 -376 264 -104 50 -288
115 -327 115 -23 0 -23 1 7 61 25 49 26 50 63 43 73 -13 240 -73 328 -117 116
-59 184 -108 344 -247 159 -139 247 -206 343 -262 137 -80 218 -103 270 -77
35 18 117 102 117 119 0 53 -68 54 -121 1 -46 -44 -57 -44 -156 4 -116 57
-207 125 -432 323 -119 103 -211 167 -326 225 -91 46 -289 117 -325 117 -31 0
-32 16 -6 69 l26 50 92 -26 c236 -64 371 -141 621 -356 262 -225 446 -338 552
-341 48 -1 54 2 113 54 65 58 73 77 44 103 -28 26 -48 21 -96 -23 -24 -23 -53
-40 -66 -40 -33 0 -201 92 -287 156 -40 30 -122 97 -181 149 -269 235 -403
313 -663 385 l-87 24 26 53 c30 60 17 59 177 11 213 -64 328 -132 561 -333
267 -230 454 -345 562 -345 51 0 55 2 112 58 33 32 60 63 60 69 0 20 -30 43
-56 43 -15 0 -42 -16 -69 -41 -53 -49 -62 -49 -180 16 -114 62 -185 114 -335
245 -73 63 -167 141 -209 173 -104 78 -266 159 -408 202 -65 20 -124 38 -131
41 -17 5 33 104 52 104 26 0 213 -60 295 -94 105 -44 250 -141 371 -248 228
-201 368 -300 500 -354 95 -38 127 -34 199 29 46 39 61 59 61 78 0 53 -58 52
-116 -1 -39 -36 -45 -38 -76 -30 -96 28 -240 121 -397 256 -327 283 -423 342
-681 420 -63 19 -116 37 -118 38 -2 2 8 27 22 54 l26 51 92 -26 c124 -33 263
-91 357 -148 74 -45 123 -84 357 -284 200 -171 411 -284 494 -266 35 8 140
103 140 127 0 9 -7 24 -16 33 -23 23 -61 12 -104 -31 -20 -19 -45 -34 -55 -34
-29 0 -136 53 -229 113 -44 29 -152 115 -239 190 -86 75 -185 156 -220 181
-123 88 -297 167 -459 211 -38 10 -68 20 -68 22 0 2 11 26 25 52 l24 49 43 -9
c161 -36 377 -133 500 -226 42 -32 126 -102 187 -155 144 -126 235 -194 346
-257 99 -57 139 -71 202 -71 36 0 50 7 95 47 63 55 71 67 63 93 -14 45 -93 29
-129 -24 -20 -31 -40 -32 -102 -6 -121 52 -237 135 -465 334 -63 54 -146 120
-184 146 -175 118 -392 201 -617 235 -334 51 -971 355 -1755 838 -403 249
-507 290 -982 392 -719 155 -1051 333 -1301 700 -82 120 -196 247 -275 305
-27 20 -95 63 -150 94 -137 79 -230 150 -266 203 -86 124 -115 272 -139 688
-29 518 -44 615 -127 780 -106 212 -298 379 -607 530 -431 211 -667 257 -1146
224z m490 -100 c171 -20 356 -83 615 -209 177 -86 278 -153 384 -255 119 -114
187 -219 230 -356 32 -102 41 -193 71 -689 19 -312 47 -464 108 -594 55 -114
127 -178 353 -312 166 -98 265 -193 391 -374 259 -374 600 -563 1297 -715 523
-115 619 -152 996 -386 459 -286 941 -546 1277 -690 164 -70 381 -144 451
-155 26 -3 46 -9 45 -13 -44 -89 -508 -1011 -528 -1046 -15 -27 -267 -527
-561 -1110 -294 -583 -574 -1139 -624 -1236 l-89 -177 -49 19 c-165 65 -365
169 -672 349 -365 213 -449 252 -665 311 -337 92 -583 202 -1105 494 -446 249
-470 267 -976 719 -234 209 -380 310 -526 361 -183 64 -267 115 -381 228 -189
185 -323 480 -382 837 -33 199 -56 270 -118 370 -109 174 -275 306 -762 605
-571 350 -1265 830 -1825 1260 -115 89 -347 260 -514 381 -518 375 -670 503
-767 650 -68 104 -184 213 -273 257 l-69 34 242 180 c526 393 678 485 1041
634 177 73 225 96 695 336 129 66 291 142 360 169 l125 49 375 1 c402 2 556
10 995 50 458 42 634 47 835 23z m-4657 -1550 c27 -12 26 -13 -126 -125 -166
-123 -176 -124 -138 -23 23 61 70 122 115 151 34 21 99 20 149 -3z m104 -68
c27 -21 68 -61 91 -89 l43 -51 -98 -72 c-54 -40 -157 -117 -230 -170 l-131
-98 -21 49 c-20 47 -34 103 -45 183 l-5 38 167 124 c92 68 170 124 174 125 3
0 28 -17 55 -39z m278 -330 c31 -29 55 -54 53 -55 -7 -5 -464 -340 -475 -348
-13 -10 -85 80 -141 177 l-30 54 230 170 230 170 39 -58 c21 -31 63 -81 94
-110z m197 -166 c66 -53 198 -153 293 -222 l173 -126 -41 -32 c-23 -17 -153
-114 -290 -214 -136 -100 -245 -187 -241 -192 7 -12 -8 -23 312 214 l282 209
158 -115 c86 -63 241 -179 342 -257 532 -410 1253 -906 1835 -1265 132 -81
279 -174 326 -206 214 -144 357 -284 419 -413 38 -79 44 -104 90 -356 12 -63
41 -175 65 -248 79 -238 185 -422 325 -563 116 -117 218 -180 397 -244 173
-62 292 -146 604 -426 238 -214 340 -301 436 -371 l82 -60 -57 -52 c-31 -29
-76 -70 -99 -90 -41 -37 -53 -56 -34 -56 5 0 53 40 107 90 55 49 102 90 105
90 10 0 174 -101 177 -109 2 -7 -177 -167 -410 -366 -56 -47 -69 -65 -48 -65
10 0 324 267 427 363 l63 59 67 -38 c38 -21 80 -45 95 -54 l28 -17 -183 -160
c-100 -88 -270 -235 -377 -327 -107 -92 -196 -171 -198 -177 -14 -38 104 59
575 473 112 98 205 178 207 178 2 0 45 -23 96 -52 89 -49 92 -52 74 -67 -11
-9 -110 -95 -219 -191 -110 -97 -335 -292 -500 -434 -165 -142 -301 -263 -303
-267 -16 -41 132 83 788 656 l275 240 87 -45 c47 -25 89 -48 92 -51 3 -3 -291
-264 -653 -580 -567 -493 -700 -615 -652 -597 5 2 304 261 665 576 361 315
662 575 668 577 7 3 57 -15 111 -39 l97 -44 -809 -703 c-700 -609 -849 -744
-802 -727 5 1 368 316 807 698 439 382 805 701 815 708 15 11 28 9 76 -11 32
-14 76 -30 98 -37 22 -7 43 -14 47 -17 4 -2 -425 -381 -954 -841 -529 -460
-963 -843 -966 -849 -2 -7 0 -13 5 -13 4 0 422 361 928 801 506 441 943 821
970 845 l50 43 124 -33 124 -32 -1232 -1062 -1232 -1062 -42 22 c-410 209
-1106 879 -1849 1780 -252 305 -555 701 -755 988 -398 570 -608 1064 -864
2029 -27 102 -47 186 -46 187 1 2 48 13 102 25 221 47 439 123 558 192 54 32
107 75 107 88 0 18 -23 8 -61 -26 -95 -85 -345 -176 -695 -250 -19 -4 -24 5
-48 98 -14 56 -26 105 -26 110 0 4 19 7 43 7 61 0 213 26 291 50 65 21 138 71
124 86 -5 4 -16 0 -25 -8 -52 -46 -204 -89 -363 -103 l-76 -7 -34 104 c-62
185 -193 433 -342 646 -32 45 -58 87 -58 92 0 5 65 57 145 115 80 59 145 111
145 117 0 17 -26 2 -165 -102 -74 -55 -140 -100 -145 -100 -5 0 -30 28 -56 63
-72 93 -231 285 -288 345 -27 29 -47 54 -45 56 2 2 112 83 244 180 132 97 242
181 243 186 9 26 -36 -4 -260 -170 l-243 -179 -39 42 c-22 23 -150 158 -285
301 -135 142 -247 261 -248 265 -1 3 114 92 257 196 143 105 260 193 260 198
1 20 -42 -8 -282 -184 l-260 -192 -77 84 c-148 161 -147 158 -125 173 10 8
120 88 244 180 123 91 226 166 228 166 2 0 58 -43 124 -95z"/>
<path d="M4219 10813 c-81 -84 -124 -137 -149 -185 -19 -37 -31 -70 -26 -75 5
-4 10 -3 13 3 18 52 97 157 186 250 59 61 107 114 107 118 0 19 -28 -5 -131
-111z"/>
<path d="M3935 10777 c-178 -140 -305 -256 -340 -310 -37 -58 -3 -36 83 54 50
52 174 159 276 239 102 80 186 148 186 153 1 21 -41 -6 -205 -136z"/>
<path d="M3825 10862 c-38 -26 -125 -88 -192 -137 -67 -50 -168 -119 -224
-155 -106 -67 -289 -230 -289 -258 0 -8 35 19 79 61 86 82 190 161 289 221 35
21 112 75 170 119 59 44 144 104 190 134 45 30 82 56 82 59 0 15 -45 -3 -105
-44z"/>
<path d="M3375 10839 c-98 -54 -159 -95 -383 -251 -37 -26 -110 -66 -162 -89
-209 -92 -489 -276 -604 -398 -45 -48 -22 -49 31 -2 179 157 336 260 553 364
96 45 191 101 285 167 176 123 232 158 322 203 39 20 74 41 77 46 17 27 -22
14 -119 -40z"/>
<path d="M3655 10883 c-58 -30 -131 -78 -280 -184 -82 -59 -191 -127 -241
-152 -168 -84 -474 -312 -474 -352 0 -24 13 -18 55 26 100 102 257 214 442
313 65 35 183 110 263 167 80 57 178 122 218 144 68 38 87 55 60 55 -7 -1 -26
-8 -43 -17z"/>
<path d="M3165 10834 c-60 -30 -213 -124 -340 -209 -176 -117 -252 -162 -325
-190 -237 -92 -520 -267 -708 -437 -48 -42 -64 -68 -44 -68 4 0 24 16 43 36
53 56 243 196 375 275 124 76 248 137 372 184 44 16 126 63 205 117 236 160
300 201 425 266 67 35 120 68 116 73 -6 11 10 17 -119 -47z"/>
<path d="M2930 10816 c-142 -71 -223 -121 -442 -269 -174 -119 -219 -143 -338
-182 -226 -75 -615 -310 -830 -503 -57 -51 -45 -68 12 -18 249 213 598 422
848 506 115 39 130 47 397 226 134 90 263 167 352 210 77 38 140 75 140 82 1
6 -2 12 -6 12 -5 0 -64 -29 -133 -64z"/>
<path d="M2760 10830 c-149 -68 -269 -138 -515 -300 -132 -87 -254 -165 -272
-174 -18 -9 -90 -35 -160 -58 -199 -65 -515 -231 -727 -383 -111 -79 -266
-205 -266 -217 0 -19 25 -5 83 45 257 222 679 463 957 546 107 33 163 64 389
215 219 147 347 222 507 298 57 26 104 53 104 58 0 15 -7 13 -100 -30z"/>
<path d="M4961 10606 c-123 -123 -219 -226 -214 -229 5 -3 112 97 239 224 126
126 222 229 214 229 -8 0 -116 -101 -239 -224z"/>
<path d="M5224 10608 c-232 -355 -291 -448 -360 -568 -40 -69 -70 -129 -67
-133 8 -14 25 10 95 133 53 94 175 285 442 692 11 17 13 28 7 33 -6 3 -57 -66
-117 -157z"/>
<path d="M5463 10687 c-29 -36 -454 -880 -523 -1037 -91 -207 -96 -220 -83
-220 11 0 37 53 125 255 59 137 290 595 459 912 27 50 45 94 40 97 -5 3 -13 0
-18 -7z"/>
<path d="M5537 10493 c-36 -76 -114 -253 -172 -393 -59 -140 -136 -320 -172
-400 -79 -175 -88 -197 -168 -421 -35 -97 -77 -204 -94 -237 -32 -64 -37 -82
-22 -82 14 0 76 136 125 275 75 211 95 262 166 420 37 83 111 256 165 385 54
129 131 307 172 395 83 177 90 195 76 195 -5 0 -39 -62 -76 -137z"/>
<path d="M5688 10443 c-70 -148 -147 -343 -253 -640 -46 -127 -122 -327 -168
-445 -47 -117 -113 -303 -147 -413 -64 -206 -114 -338 -149 -396 -22 -35 -27
-59 -13 -59 11 0 69 108 97 185 14 37 58 167 96 288 39 122 106 309 149 416
43 108 113 293 155 411 97 270 193 515 256 649 50 107 55 121 40 121 -4 0 -33
-53 -63 -117z"/>
<path d="M5832 10383 c-82 -173 -133 -312 -278 -753 -75 -228 -167 -497 -205
-597 -37 -101 -72 -197 -78 -215 -5 -18 -41 -142 -80 -276 -73 -251 -111 -358
-162 -451 -31 -59 -35 -71 -19 -71 11 0 78 129 111 213 12 29 56 174 99 322
43 149 116 374 163 500 46 127 115 325 152 440 150 471 225 674 324 889 42 92
47 106 33 106 -5 0 -32 -48 -60 -107z"/>
<path d="M5984 10343 c-107 -231 -210 -528 -353 -1014 -95 -324 -114 -382
-209 -659 -33 -96 -79 -245 -102 -330 -125 -467 -167 -594 -236 -713 -36 -62
-42 -81 -21 -75 21 7 111 198 149 318 38 117 44 137 124 435 25 94 90 303 144
465 55 162 140 435 190 605 132 449 252 791 339 962 33 66 37 83 21 83 -6 0
-27 -35 -46 -77z"/>
<path d="M6032 9978 c-28 -62 -70 -160 -92 -218 -68 -169 -436 -1287 -496
-1504 -75 -274 -124 -409 -179 -496 -17 -28 -23 -46 -17 -52 12 -12 68 85 112
196 18 43 67 203 110 355 43 152 108 360 144 462 35 103 104 310 152 460 122
385 201 599 298 812 38 81 42 97 27 97 -5 0 -31 -51 -59 -112z"/>
<path d="M6116 9767 c-65 -140 -143 -348 -259 -692 -58 -170 -121 -357 -141
-414 -20 -57 -57 -174 -82 -260 -73 -251 -104 -340 -150 -435 -24 -49 -44 -93
-44 -97 0 -22 17 -5 43 41 48 85 85 185 152 409 73 246 340 1038 408 1211 24
63 65 162 91 219 51 116 50 111 35 111 -5 0 -30 -42 -53 -93z"/>
<path d="M3492 9343 c-41 -42 -146 -167 -234 -278 -357 -449 -448 -557 -605
-714 -90 -90 -162 -166 -159 -169 8 -8 138 102 209 177 110 117 242 275 485
580 129 161 272 333 318 381 46 48 84 90 84 94 0 20 -32 -3 -98 -71z"/>
<path d="M6087 9313 c-44 -104 -94 -250 -287 -852 -54 -165 -108 -314 -131
-358 -22 -42 -37 -78 -34 -82 22 -21 100 154 178 399 221 697 271 839 326 949
25 48 25 51 7 51 -7 0 -33 -46 -59 -107z"/>
<path d="M3194 9338 c-70 -59 -178 -176 -389 -423 -287 -336 -418 -471 -540
-559 -11 -8 -17 -18 -13 -22 28 -27 274 216 563 556 115 135 262 298 327 363
65 65 118 120 118 122 0 13 -19 1 -66 -37z"/>
<path d="M2865 9303 c-52 -38 -195 -180 -515 -508 -102 -105 -220 -217 -263
-249 -42 -31 -75 -62 -72 -67 17 -26 209 144 444 392 205 217 328 338 414 406
52 42 69 63 50 63 -5 0 -30 -17 -58 -37z"/>
<path d="M2540 9268 c-70 -49 -179 -140 -296 -246 -259 -234 -379 -334 -445
-367 -16 -9 -29 -20 -29 -25 0 -46 168 83 520 400 74 67 174 151 223 187 77
58 102 84 80 83 -5 -1 -28 -15 -53 -32z"/>
<path d="M2135 9177 c-66 -46 -190 -132 -275 -191 -85 -59 -184 -124 -220
-143 -99 -54 -116 -66 -102 -71 22 -7 181 86 360 211 97 68 221 154 275 191
53 37 95 72 92 77 -4 5 -7 9 -8 9 -1 0 -56 -38 -122 -83z"/>
<path d="M1845 9167 c-137 -87 -273 -151 -412 -192 -89 -26 -133 -44 -133 -53
0 -9 6 -12 15 -8 9 3 64 19 123 36 118 34 284 112 406 189 91 58 101 67 89 74
-5 3 -45 -17 -88 -46z"/>
<path d="M6160 9096 c-27 -61 -55 -144 -185 -547 -31 -96 -78 -219 -104 -272
-27 -54 -45 -100 -41 -102 11 -7 23 11 62 90 45 90 80 187 167 465 39 124 89
270 111 324 45 112 43 106 30 106 -6 0 -24 -29 -40 -64z"/>
<path d="M3548 8983 c-35 -38 -170 -201 -300 -363 -241 -302 -385 -470 -476
-552 -46 -41 -64 -68 -46 -68 12 0 110 94 193 184 46 50 199 235 339 411 141
176 284 349 319 383 35 35 63 66 63 68 0 2 -6 4 -13 4 -8 0 -43 -30 -79 -67z"/>
<path d="M3588 8608 c-35 -40 -155 -188 -267 -329 -111 -142 -243 -300 -292
-352 -49 -53 -86 -98 -81 -101 9 -6 128 113 214 214 30 36 138 171 240 300
102 129 207 255 232 280 48 48 55 60 32 60 -8 0 -43 -33 -78 -72z"/>
<path d="M3654 8257 c-27 -30 -133 -161 -237 -293 -103 -131 -201 -256 -217
-276 -51 -61 -16 -52 37 10 28 31 132 163 232 292 101 129 198 251 217 270 19
20 34 39 34 43 0 18 -22 3 -66 -46z"/>
<path d="M7063 8081 c-64 -58 -106 -128 -159 -263 -55 -145 -137 -274 -311
-496 -307 -388 -977 -1156 -1440 -1648 -73 -78 -133 -147 -133 -153 0 -19 19
-2 125 109 539 567 1367 1528 1619 1880 91 127 111 163 147 261 50 138 90 210
151 274 55 56 68 76 51 75 -5 -1 -27 -18 -50 -39z"/>
<path d="M3578 7718 c-190 -258 -181 -245 -169 -252 8 -5 335 428 348 461 3 7
1 13 -5 13 -6 0 -84 -100 -174 -222z"/>
<path d="M6646 7729 c-43 -34 -92 -115 -136 -223 -49 -122 -146 -257 -390
-541 -290 -337 -754 -846 -1012 -1111 -76 -77 -138 -144 -138 -147 0 -28 54
22 237 216 621 659 1095 1199 1245 1419 23 34 57 98 75 143 55 129 73 161 119
206 24 24 44 47 44 51 0 14 -16 9 -44 -13z"/>
<path d="M3727 7488 c-64 -95 -103 -186 -88 -201 7 -7 12 -4 17 9 19 57 57
129 98 189 25 37 46 71 46 76 0 24 -23 1 -73 -73z"/>
<path d="M6813 7498 c-94 -99 -148 -180 -228 -342 -79 -163 -145 -256 -360
-517 -264 -320 -779 -901 -984 -1111 -52 -53 -72 -81 -65 -88 24 -24 956 1028
1240 1400 119 155 141 190 190 303 51 119 129 237 219 335 36 39 65 73 65 76
0 17 -22 0 -77 -56z"/>
<path d="M6213 7358 c-17 -18 -54 -78 -82 -133 -78 -156 -270 -374 -877 -999
-175 -181 -320 -332 -322 -337 -13 -32 45 21 267 247 425 433 748 781 867 935
23 31 66 102 94 157 28 56 62 110 76 121 23 18 32 41 16 41 -4 0 -22 -15 -39
-32z"/>
<path d="M8953 7098 c-52 -105 -83 -229 -108 -425 -5 -35 -12 -53 -20 -53 -24
0 -28 -21 -10 -59 16 -36 15 -48 -5 -229 -11 -105 -26 -217 -32 -247 l-11 -56
-34 60 c-24 43 -40 61 -54 61 -37 0 -33 -31 16 -123 l48 -90 -18 -56 c-9 -31
-24 -68 -31 -83 l-14 -27 -54 102 c-39 76 -58 103 -74 105 -43 6 -36 -27 28
-153 l64 -123 -28 -42 c-34 -51 -24 -67 13 -22 l28 33 47 -106 c50 -115 50
-114 -1 -181 -12 -17 -23 -36 -23 -42 0 -24 19 -11 47 33 15 25 31 45 34 45 3
0 25 -49 48 -109 48 -120 48 -118 -10 -192 -29 -36 -37 -59 -21 -59 7 0 35 35
76 94 11 17 17 6 55 -96 l43 -116 -26 -43 c-15 -24 -36 -56 -48 -70 -11 -15
-18 -33 -16 -40 3 -9 25 13 54 53 45 63 49 66 57 45 5 -12 24 -65 42 -117 l34
-95 -22 -35 c-11 -19 -33 -51 -49 -71 -26 -35 -36 -59 -22 -59 7 0 40 40 76
94 31 46 22 59 79 -104 l33 -96 -45 -63 c-24 -35 -48 -70 -54 -77 -5 -7 -6
-17 -1 -21 8 -9 56 45 83 95 10 17 20 32 23 32 3 0 23 -53 45 -119 l38 -118
-21 -35 c-12 -19 -37 -54 -56 -78 -19 -24 -32 -48 -29 -53 7 -12 36 17 79 79
l38 55 38 -125 39 -125 -39 -59 c-22 -32 -47 -64 -56 -71 -9 -7 -13 -18 -10
-23 8 -12 58 35 86 80 11 17 23 30 27 28 4 -3 22 -59 41 -124 l33 -120 -31
-43 c-16 -24 -39 -53 -51 -63 -24 -22 -27 -36 -7 -36 13 0 58 51 83 94 9 17
13 18 17 6 11 -29 56 -230 56 -249 0 -11 -18 -41 -40 -66 -22 -26 -37 -51 -33
-58 4 -6 21 5 44 31 35 40 37 41 43 19 3 -12 6 -41 6 -63 0 -48 22 -74 48 -57
19 12 19 76 1 171 -10 51 -9 54 28 115 l38 62 7 -40 c4 -22 7 -59 7 -81 1 -49
23 -74 49 -57 20 12 19 82 -3 197 l-12 69 57 120 c52 109 59 118 69 98 7 -11
18 -21 25 -21 28 0 35 25 28 98 -7 59 -5 80 11 119 67 170 104 277 143 418 57
204 98 322 195 565 189 476 426 959 605 1237 30 46 54 88 54 93 0 24 -19 4
-72 -78 -87 -134 -151 -248 -265 -477 -250 -498 -429 -946 -558 -1394 -20 -69
-57 -179 -82 -244 l-47 -120 -34 139 -34 139 41 120 c22 66 61 194 85 285 134
496 463 1256 709 1638 33 51 56 96 52 100 -27 26 -283 -438 -445 -807 -164
-376 -271 -667 -345 -945 -34 -125 -92 -311 -103 -330 -3 -5 -23 51 -44 125
l-38 134 19 60 c11 33 38 131 61 219 129 504 422 1210 646 1559 43 66 52 87
37 87 -18 0 -142 -211 -237 -405 -204 -413 -373 -858 -471 -1240 -20 -77 -43
-162 -52 -189 l-16 -49 -42 130 -42 130 54 214 c125 500 378 1134 575 1437 42
64 44 100 3 48 -40 -50 -153 -257 -220 -403 -175 -384 -311 -771 -390 -1108
-14 -60 -28 -117 -31 -125 -3 -8 -25 45 -49 117 l-43 133 24 110 c102 472 336
1078 531 1377 8 13 10 24 4 27 -14 9 -94 -121 -171 -279 -147 -300 -317 -791
-385 -1108 -10 -43 -19 -76 -21 -74 -2 2 -24 60 -48 129 l-45 126 24 104 c92
410 261 881 394 1102 54 89 65 137 19 75 -116 -152 -293 -605 -399 -1019 -27
-107 -51 -199 -52 -204 -2 -5 -24 48 -50 118 l-47 126 16 78 c72 353 197 729
308 922 30 52 52 99 49 104 -9 14 -38 -30 -97 -144 -96 -188 -185 -453 -261
-774 -28 -121 -34 -137 -43 -116 -5 14 -28 71 -50 126 l-41 102 25 123 c59
294 117 477 205 657 34 68 58 126 55 129 -9 10 -30 -23 -81 -124 -72 -145
-133 -336 -189 -596 l-32 -148 -53 122 c-60 138 -59 123 -14 349 30 153 92
343 139 428 20 35 33 67 29 70 -17 18 -85 -115 -131 -256 -29 -89 -45 -159
-91 -397 -5 -27 -11 -20 -64 88 l-59 117 16 112 c20 149 48 257 90 347 35 77
39 91 26 91 -5 0 -22 -28 -39 -62z m-7 -960 c-22 -165 -57 -348 -68 -348 -4 0
-8 5 -8 10 0 6 -19 52 -43 103 l-43 92 12 60 c11 49 52 366 55 416 0 8 25 -36
56 -98 l55 -112 -16 -123z m120 -124 c17 -49 17 -56 0 -160 -20 -126 -65 -314
-75 -314 -4 0 -26 47 -50 105 l-43 104 21 88 c11 48 27 138 36 198 28 202 22
190 60 105 18 -41 41 -98 51 -126z m114 -449 c-12 -60 -35 -153 -52 -205 -35
-108 -31 -110 -88 42 l-33 87 31 118 c17 65 38 163 48 217 l17 99 50 -124 49
-124 -22 -110z m-372 230 c23 -52 42 -101 42 -108 0 -7 -12 -42 -26 -78 -26
-65 -44 -94 -44 -71 0 7 -20 55 -44 107 l-44 95 18 37 c9 21 23 55 31 76 7 20
15 37 19 37 3 0 24 -43 48 -95z m112 -261 l41 -101 -32 -77 c-18 -42 -35 -73
-39 -69 -4 4 -25 53 -48 109 l-41 101 32 75 c18 42 35 73 38 70 4 -4 26 -53
49 -108z m350 -47 c42 -116 43 -119 30 -175 -13 -58 -57 -202 -87 -280 l-16
-43 -43 116 -44 116 39 129 c22 71 45 161 52 200 7 38 16 66 20 62 4 -4 26
-60 49 -125z m-250 -207 l43 -110 -33 -75 c-18 -41 -34 -75 -36 -75 -5 0 -84
210 -84 224 0 14 58 146 64 146 1 0 22 -49 46 -110z m357 -92 l42 -121 -26
-81 c-48 -155 -96 -269 -105 -253 -4 9 -24 61 -43 116 l-35 100 55 165 c30 90
55 175 55 187 0 38 13 13 57 -113z m-246 -205 l29 -83 -31 -70 c-18 -38 -34
-70 -38 -70 -7 0 -81 208 -81 226 0 7 14 42 32 80 l32 68 14 -34 c8 -19 27
-72 43 -117z m361 -288 c-32 -91 -92 -238 -101 -247 -4 -5 -24 45 -46 111
l-38 118 56 151 c32 82 57 157 57 164 0 8 3 18 8 22 4 4 25 -50 48 -121 l41
-128 -25 -70z m-245 -51 c6 -38 -54 -167 -67 -143 -4 8 -24 60 -44 117 l-36
103 37 72 36 72 34 -95 c19 -52 37 -109 40 -126z m329 -61 l37 -122 -43 -108
c-59 -147 -87 -206 -93 -196 -2 4 -21 61 -41 125 l-37 118 40 92 c21 51 50
123 62 160 13 37 27 64 30 60 4 -4 24 -62 45 -129z m-262 -127 l35 -109 -36
-71 -36 -71 -41 122 -40 122 34 71 c21 44 37 66 41 58 4 -7 23 -62 43 -122z
m354 -193 l30 -111 -47 -109 c-26 -59 -56 -125 -67 -145 l-19 -38 -37 123 -36
122 66 157 c52 121 68 152 73 135 4 -12 20 -72 37 -134z m-264 -85 l37 -118
-37 -67 -38 -67 -40 122 -40 122 34 69 c19 39 38 67 41 63 4 -4 23 -60 43
-124z m340 -227 l27 -134 -64 -131 -63 -131 -33 132 -33 133 63 140 c34 77 66
137 70 133 4 -5 19 -68 33 -142z m-254 -61 l32 -114 -33 -68 c-19 -37 -36 -68
-39 -68 -3 0 -20 57 -39 126 l-35 127 35 63 c18 35 37 60 40 56 4 -4 21 -59
39 -122z m77 -291 l31 -132 -35 -64 c-19 -35 -36 -63 -38 -61 -1 2 -17 60 -35
131 l-32 127 34 65 c18 36 36 65 39 65 3 0 19 -59 36 -131z"/>
<path d="M5755 6939 c-73 -104 -351 -379 -835 -826 -48 -44 -50 -70 -3 -33 55
43 432 399 619 585 200 199 326 355 286 355 -6 0 -36 -37 -67 -81z"/>
<path d="M6585 6938 c-137 -148 -270 -331 -318 -439 -31 -69 -113 -180 -292
-394 -170 -204 -477 -550 -583 -657 -51 -52 -73 -81 -66 -88 11 -11 82 63 368
384 364 408 519 604 606 766 69 127 133 218 266 371 52 60 94 111 94 114 0 16
-25 -2 -75 -57z"/>
<path d="M5113 6462 c-150 -108 -273 -201 -273 -205 -1 -5 0 -11 3 -13 2 -2
127 85 277 193 243 176 302 224 273 222 -4 0 -130 -89 -280 -197z"/>
<path d="M6293 6308 c-157 -189 -287 -359 -334 -438 -45 -76 -162 -220 -332
-409 -145 -161 -159 -178 -148 -185 20 -13 420 451 496 575 54 88 190 265 335
439 122 145 126 150 108 150 -8 0 -64 -60 -125 -132z"/>
<path d="M5911 5561 c-150 -183 -275 -339 -278 -347 -17 -46 41 19 273 303
294 359 287 350 282 365 -2 6 -127 -138 -277 -321z"/>
<path d="M3800 6595 c-10 -13 -5 -26 37 -88 28 -39 66 -103 85 -142 43 -85
128 -307 128 -333 0 -17 -70 -77 -99 -84 -8 -2 -27 42 -52 117 l-39 119 47 48
c54 55 51 78 -4 27 -21 -19 -41 -38 -45 -44 -9 -12 -10 -10 -37 55 -29 70
-105 203 -143 253 -31 38 -64 48 -74 22 -4 -9 13 -45 41 -86 52 -77 130 -228
140 -271 6 -24 0 -31 -69 -77 -42 -29 -82 -54 -89 -57 -9 -3 -20 11 -32 43
-10 26 -33 77 -50 113 l-33 66 39 32 c21 18 39 37 39 43 0 18 -24 9 -56 -22
l-31 -30 -50 73 c-38 57 -54 73 -73 73 -40 0 -35 -27 20 -105 27 -41 50 -77
50 -81 0 -11 -145 -101 -270 -167 -180 -94 -502 -226 -765 -312 -102 -33 -123
-44 -108 -53 9 -5 291 88 439 146 243 94 489 213 621 299 42 27 82 52 88 54
12 5 30 -29 77 -141 27 -66 28 -70 11 -83 -10 -8 -121 -65 -248 -128 -220
-108 -532 -240 -755 -319 -104 -37 -129 -49 -118 -60 7 -7 254 82 463 168 260
106 561 249 662 314 21 14 22 13 57 -98 19 -62 34 -114 33 -115 -1 -1 -78 -40
-172 -87 -237 -118 -564 -259 -862 -371 -40 -15 -73 -32 -73 -37 0 -15 16 -11
168 47 276 106 784 333 943 421 4 2 16 -36 28 -84 12 -48 24 -95 27 -104 7
-24 -405 -219 -896 -424 -264 -110 -254 -105 -242 -117 7 -7 17 -6 31 2 12 6
104 45 204 86 312 129 573 247 796 358 62 31 114 55 116 54 2 -4 45 -202 45
-210 0 -10 -324 -172 -560 -280 -102 -47 -252 -116 -333 -153 -147 -68 -198
-97 -186 -110 4 -3 22 3 40 14 19 11 135 65 259 121 255 115 661 309 732 348
26 15 49 24 52 21 3 -3 13 -43 21 -90 9 -46 18 -92 21 -102 5 -15 -51 -45
-343 -187 -574 -280 -658 -323 -661 -343 -3 -15 4 -13 46 13 27 16 220 111
428 210 208 100 412 199 452 221 41 21 77 39 81 39 4 0 15 -48 24 -107 14 -86
15 -109 5 -119 -7 -6 -168 -92 -358 -189 -381 -196 -528 -279 -537 -301 -10
-27 7 -28 35 -2 15 14 77 53 137 86 170 93 737 383 741 380 1 -2 11 -54 22
-116 14 -80 16 -114 8 -121 -6 -4 -72 -43 -146 -86 -470 -270 -644 -384 -626
-413 4 -7 20 1 45 26 21 20 82 64 136 97 159 99 600 353 604 349 4 -4 42 -217
38 -219 -1 -1 -90 -55 -197 -120 -335 -203 -460 -295 -460 -336 0 -11 5 -19
10 -19 6 0 10 6 10 14 0 18 72 78 185 153 153 102 454 283 458 275 7 -12 40
-212 36 -215 -2 -2 -60 -39 -129 -82 -254 -159 -410 -283 -410 -326 0 -25 17
-24 25 1 13 42 160 155 404 309 62 40 115 70 117 68 2 -2 13 -46 23 -98 18
-85 19 -95 4 -104 -281 -180 -402 -274 -418 -325 -9 -29 4 -40 19 -16 26 45
85 102 163 157 91 64 240 159 252 159 4 0 18 -44 30 -97 13 -54 25 -102 27
-108 2 -5 -26 -30 -63 -55 -138 -93 -264 -233 -234 -263 7 -7 15 3 27 31 18
48 101 128 207 203 39 27 71 48 73 46 1 -1 18 -48 37 -105 l34 -102 -62 -50
c-106 -84 -185 -185 -185 -235 0 -28 21 -11 35 27 17 50 74 117 156 183 l68
55 22 -42 c33 -64 61 -98 81 -98 25 0 34 28 18 54 -8 11 -27 44 -42 72 l-28
52 91 57 c73 46 93 55 100 44 5 -8 9 -18 9 -23 0 -6 18 -40 40 -78 29 -48 47
-68 61 -68 29 0 35 29 14 64 -34 59 -77 147 -73 152 3 2 29 17 58 33 l53 29
48 -96 c58 -118 82 -147 109 -132 25 13 25 25 0 60 -25 35 -90 170 -90 187 0
7 14 20 30 28 17 9 28 20 25 25 -4 6 -18 4 -36 -5 -34 -18 -31 -22 -68 101
-28 93 -27 101 12 120 43 22 58 35 52 44 -3 5 -25 -3 -50 -17 -34 -19 -46 -21
-49 -11 -6 16 -46 194 -46 201 0 2 25 20 55 38 30 18 55 37 55 41 0 15 -25 8
-62 -17 -20 -14 -41 -25 -46 -25 -5 0 -17 42 -27 93 -9 50 -18 97 -20 104 -2
7 23 31 55 54 54 38 73 59 52 59 -4 0 -31 -16 -60 -35 -36 -25 -54 -32 -56
-23 -7 21 -37 210 -34 212 29 16 118 89 118 96 0 17 -11 12 -67 -31 -30 -22
-56 -39 -57 -37 -10 11 -37 221 -30 227 5 4 35 26 66 50 32 24 55 48 52 53 -4
5 -13 4 -24 -4 -10 -7 -38 -28 -63 -45 l-45 -33 -12 73 c-7 39 -15 89 -20 109
-8 37 -7 38 61 93 38 31 67 61 63 66 -6 10 -17 3 -93 -59 -23 -19 -41 -32 -41
-30 0 2 -9 50 -20 108 -11 58 -20 108 -20 111 0 3 19 20 43 37 68 51 99 81 92
92 -4 6 -29 -8 -58 -33 -92 -76 -82 -78 -101 21 -9 48 -19 96 -22 108 -4 16
11 34 70 83 71 58 89 81 67 81 -6 0 -38 -25 -73 -55 -34 -30 -65 -55 -68 -55
-3 0 -17 47 -32 105 l-25 105 51 39 c64 49 122 109 114 117 -4 3 -42 -24 -85
-60 -43 -36 -80 -66 -83 -66 -3 0 -18 46 -33 102 l-29 102 28 20 c104 76 190
166 158 166 -4 0 -34 -26 -69 -58 -34 -32 -75 -68 -92 -80 l-30 -21 -47 127
c-77 204 -194 412 -237 420 -9 2 -22 -4 -29 -13z m45 -566 c20 -62 34 -117 32
-123 -5 -12 -176 -111 -181 -105 -2 2 -19 53 -37 113 -31 104 -32 110 -15 120
10 6 48 32 84 58 37 25 70 47 74 47 4 1 23 -49 43 -110z m248 -137 c15 -53 27
-100 27 -103 0 -9 -111 -81 -116 -76 -8 7 -55 190 -52 199 3 8 98 76 108 77 3
1 18 -43 33 -97z m-173 -121 c11 -46 19 -89 16 -96 -5 -13 -174 -110 -180
-104 -4 5 -48 185 -48 196 0 14 177 109 184 98 3 -6 16 -48 28 -94z m235 -121
c13 -57 21 -106 16 -110 -66 -44 -112 -72 -115 -69 -5 7 -48 211 -44 213 19
16 113 75 115 73 1 -2 14 -50 28 -107z m-179 -112 c27 -119 35 -104 -84 -170
-40 -22 -76 -37 -79 -34 -3 3 -16 51 -28 106 l-22 101 71 39 c39 22 80 46 91
54 11 8 22 13 24 10 2 -2 14 -50 27 -106z m229 -125 c10 -54 18 -101 19 -105
0 -4 -26 -26 -59 -48 l-60 -40 -22 108 c-11 59 -19 109 -17 111 13 14 101 70
110 70 6 1 19 -43 29 -96z m-179 -119 l21 -105 -21 -14 c-67 -42 -166 -93
-170 -87 -11 20 -37 205 -30 212 10 10 166 99 174 100 3 0 15 -48 26 -106z
m227 -135 c10 -52 17 -98 17 -102 0 -14 -111 -80 -119 -71 -9 11 -44 205 -37
211 18 18 112 70 117 65 3 -4 13 -50 22 -103z m-179 -123 c9 -54 16 -99 14
-101 -2 -1 -44 -24 -95 -52 l-92 -51 -6 31 c-25 142 -32 192 -27 195 4 1 45
25 92 52 58 34 87 45 91 37 4 -7 14 -56 23 -111z m216 -83 c6 -38 14 -88 17
-113 l5 -45 -60 -37 -60 -37 -12 72 c-7 40 -16 90 -20 112 -5 22 -8 40 -7 41
88 58 113 74 118 74 4 0 12 -30 19 -67z m-177 -145 c10 -57 17 -108 17 -115 0
-10 -180 -128 -185 -121 -3 5 -35 206 -35 222 0 12 159 113 181 115 3 1 13
-45 22 -101z m226 -151 l18 -106 -61 -41 -61 -40 -12 63 c-6 34 -15 85 -18
113 l-7 51 58 36 c32 20 60 34 62 33 1 -2 11 -51 21 -109z m-185 -92 c24 -136
28 -126 -74 -188 -74 -46 -90 -52 -94 -39 -3 10 -12 59 -21 111 -13 77 -14 96
-3 102 7 5 49 30 93 57 44 27 81 49 82 48 1 -1 9 -42 17 -91z m225 -140 c7
-44 15 -90 18 -101 4 -18 -6 -28 -53 -58 -32 -20 -61 -36 -64 -36 -8 0 -43
210 -37 216 19 19 113 72 118 66 3 -4 11 -43 18 -87z m-180 -126 c11 -57 18
-106 16 -109 -7 -11 -177 -112 -181 -107 -2 2 -13 51 -24 108 -16 81 -17 105
-7 111 6 4 48 29 92 56 44 27 81 48 83 47 1 -1 11 -49 21 -106z m227 -134 l21
-106 -60 -35 c-33 -19 -61 -34 -62 -32 -1 2 -10 39 -19 83 -9 44 -19 90 -21
102 -4 17 6 28 53 57 31 19 59 36 62 36 3 0 15 -47 26 -105z m-181 -106 c19
-100 19 -102 -1 -116 -29 -22 -165 -96 -168 -92 -2 2 -11 46 -21 97 -12 62
-14 97 -8 103 12 12 166 108 173 109 3 0 14 -46 25 -101z m234 -143 c12 -54
21 -99 19 -101 -30 -21 -118 -64 -121 -58 -7 13 -49 204 -45 207 20 18 114 64
119 58 3 -4 16 -51 28 -106z m-183 -97 c13 -56 23 -103 22 -104 -18 -15 -170
-105 -177 -105 -7 0 -44 134 -53 193 -2 14 20 32 87 71 50 29 92 52 94 50 1
-1 14 -49 27 -105z m237 -117 c14 -49 29 -95 32 -104 4 -10 -11 -24 -55 -47
l-60 -32 -9 23 c-14 38 -51 164 -51 176 0 9 91 67 111 71 3 0 17 -39 32 -87z
m-173 -113 c17 -56 30 -103 28 -104 -2 -2 -42 -29 -88 -59 -98 -64 -89 -68
-130 66 l-28 87 92 56 c50 30 92 55 93 55 1 0 16 -45 33 -101z"/>
<path d="M3160 6389 c-143 -127 -509 -287 -887 -389 -75 -20 -108 -40 -67 -40
65 0 508 154 690 239 149 71 324 190 324 222 0 16 -15 9 -60 -32z"/>
</g>
</svg>
