<?xml version="1.0" standalone="no"?>
<!DOCTYPE svg PUBLIC "-//W3C//DTD SVG 20010904//EN"
 "http://www.w3.org/TR/2001/REC-SVG-20010904/DTD/svg10.dtd">
<svg version="1.0" xmlns="http://www.w3.org/2000/svg"
 width="1280.000000pt" height="985.000000pt" viewBox="0 0 1280.000000 985.000000"
 preserveAspectRatio="xMidYMid meet">
<metadata>
Created by potrace 1.15, written by Peter Selinger 2001-2017
</metadata>
<g transform="translate(0.000000,985.000000) scale(0.100000,-0.100000)"
fill="#4caf50" stroke="none">
<path d="M7135 8721 c-80 -29 -133 -58 -240 -134 -121 -87 -203 -161 -270
-244 -28 -35 -61 -70 -72 -78 -12 -9 -48 -52 -79 -98 -31 -45 -86 -111 -122
-146 -91 -91 -104 -124 -113 -301 -4 -80 -10 -203 -14 -275 -7 -126 -7 -132
18 -188 14 -31 44 -82 66 -114 35 -47 41 -64 41 -105 0 -51 20 -110 47 -140
10 -11 13 -22 7 -27 -5 -4 -78 -55 -163 -112 -85 -57 -168 -117 -184 -132 -17
-15 -38 -32 -48 -37 -9 -5 -29 -31 -44 -57 -22 -40 -26 -58 -23 -108 l3 -60
-75 -27 c-55 -20 -86 -26 -117 -22 -55 7 -256 -56 -293 -92 -27 -25 -69 -41
-275 -106 -75 -23 -156 -42 -192 -44 -49 -2 -79 -12 -141 -43 -43 -23 -85 -41
-93 -41 -8 0 -33 -7 -57 -15 -24 -9 -109 -27 -190 -41 -110 -19 -162 -34 -212
-58 -217 -108 -291 -169 -345 -281 -31 -63 -36 -87 -44 -189 -6 -64 -13 -120
-16 -126 -3 -5 -20 -3 -40 6 -48 20 -73 18 -151 -12 -82 -31 -985 -214 -1056
-214 -39 0 -61 -7 -106 -36 -70 -44 -107 -78 -137 -124 -47 -75 -107 -304
-121 -465 -6 -66 -12 -86 -34 -115 -33 -41 -56 -118 -66 -210 -4 -40 -15 -81
-30 -107 -25 -43 -30 -92 -17 -167 4 -28 14 -43 34 -55 32 -18 74 -107 84
-180 3 -24 11 -52 19 -62 23 -34 87 -78 142 -98 88 -33 326 -72 482 -78 78 -3
142 -9 142 -13 0 -22 -396 -330 -425 -330 -8 0 -17 5 -20 10 -14 23 -106 59
-205 81 -123 26 -318 31 -415 10 -299 -65 -573 -251 -742 -502 -119 -177 -193
-418 -193 -632 0 -135 61 -361 130 -484 183 -324 480 -504 876 -530 212 -14
468 62 686 202 41 27 117 93 173 150 118 120 215 273 261 411 l29 87 153 -7
c84 -4 159 -9 168 -13 18 -7 37 -42 70 -133 62 -173 204 -352 359 -454 105
-70 160 -97 275 -134 378 -125 792 -18 1070 274 155 163 215 261 276 449 24
77 52 146 61 152 19 14 81 16 195 7 l75 -7 16 -46 c9 -25 23 -75 32 -110 9
-35 35 -101 57 -147 157 -318 480 -537 828 -563 293 -21 567 76 784 278 61 56
182 224 220 304 36 77 80 217 91 292 4 24 13 49 20 55 14 12 84 25 182 35 84
8 79 13 108 -115 10 -41 30 -109 46 -150 34 -89 146 -266 210 -330 123 -125
351 -262 504 -301 98 -26 284 -35 381 -20 149 23 338 102 436 183 55 45 168
163 203 213 l21 28 181 -110 181 -110 84 7 c140 14 838 108 994 135 50 9 74
39 74 93 0 49 -5 74 -47 212 -48 164 -170 441 -218 498 -13 15 -29 43 -37 62
-38 91 -316 422 -570 680 -131 133 -256 199 -548 288 -168 51 -193 55 -475 87
-291 33 -291 33 -310 51 -38 38 -11 165 75 349 49 105 54 124 90 299 16 82 41
173 55 202 65 136 78 327 36 509 -41 177 -86 253 -286 475 -101 113 -126 151
-137 207 -9 52 3 248 27 418 7 55 19 141 25 190 9 71 16 95 35 115 13 14 34
45 47 70 22 42 23 56 23 225 0 99 -6 241 -14 315 -12 122 -12 140 3 183 28 84
15 357 -24 458 -11 30 -40 87 -64 128 -35 58 -42 77 -32 85 22 19 71 88 134
189 73 115 183 273 212 302 11 12 20 24 20 29 0 4 12 21 28 36 63 65 102 131
131 221 23 73 14 88 -76 133 -104 52 -177 26 -287 -102 -84 -98 -154 -210
-191 -304 -15 -37 -30 -68 -34 -68 -11 0 -54 31 -101 75 -61 55 -142 100 -215
119 -33 8 -98 24 -144 36 -58 14 -99 31 -131 55 -97 71 -293 152 -420 174 -30
5 -86 18 -125 29 -91 26 -189 39 -354 47 -81 3 -148 12 -168 20 -64 27 -217
65 -258 64 -22 0 -63 -8 -90 -18z m-916 -5152 c214 -20 426 -62 541 -108 155
-62 223 -101 234 -134 8 -20 6 -31 -5 -42 -28 -29 -1249 -275 -1363 -275 -64
0 -237 39 -286 65 -31 17 -205 308 -196 330 7 18 4 17 126 40 125 22 310 69
385 96 103 37 343 49 564 28z m3639 -513 c147 -38 209 -85 259 -194 23 -48 24
-59 16 -140 -6 -70 -11 -87 -25 -90 -13 -2 -25 14 -46 60 -45 97 -146 214
-256 296 -53 40 -96 77 -96 82 0 16 50 11 148 -14z m-1794 -306 c10 -25 16
-70 16 -118 0 -68 14 -152 35 -219 7 -22 4 -23 -36 -23 -44 1 -124 19 -146 33
-6 4 -24 44 -38 90 -15 45 -45 115 -67 155 -22 41 -38 75 -36 76 2 2 39 9 82
16 44 6 89 16 100 20 12 5 33 9 47 9 22 1 30 -6 43 -39z m-4881 -60 c60 -20
127 -75 127 -104 0 -6 -33 -25 -73 -42 l-72 -32 -17 22 c-30 36 -78 133 -78
155 0 27 30 28 113 1z m-1323 -222 c0 -27 -12 -45 -61 -96 -34 -34 -64 -61
-66 -58 -9 9 27 74 71 129 26 31 49 57 52 57 2 0 4 -15 4 -32z"/>
</g>
</svg>
