<?xml version="1.0" standalone="no"?>
<!DOCTYPE svg PUBLIC "-//W3C//DTD SVG 20010904//EN"
 "http://www.w3.org/TR/2001/REC-SVG-20010904/DTD/svg10.dtd">
<svg version="1.0" xmlns="http://www.w3.org/2000/svg"
 width="814.000000pt" height="1280.000000pt" viewBox="0 0 814.000000 1280.000000"
 preserveAspectRatio="xMidYMid meet">
<metadata>
Created by potrace 1.15, written by Peter Selinger 2001-2017
</metadata>
<g transform="translate(0.000000,1280.000000) scale(0.100000,-0.100000)"
fill="#4caf50" stroke="none">
<path d="M3365 12793 c-225 -21 -424 -89 -591 -204 -65 -45 -231 -205 -266
-257 -15 -22 -16 -22 -54 -6 -106 45 -281 -8 -496 -149 -56 -37 -77 -45 -130
-49 -85 -7 -141 -37 -178 -95 -16 -25 -31 -49 -32 -54 -2 -4 -34 -13 -73 -19
-96 -15 -228 -68 -287 -114 -14 -12 -45 -32 -67 -45 -22 -13 -45 -37 -52 -53
-14 -35 -15 -35 -174 -93 -134 -49 -221 -89 -286 -132 -27 -18 -51 -25 -86
-25 -67 1 -93 -18 -93 -69 0 -22 7 -55 14 -74 13 -31 19 -35 52 -35 25 0 48 9
74 30 27 21 68 38 136 55 106 27 191 63 278 119 31 20 62 36 70 36 7 0 21 -21
31 -47 21 -57 58 -111 94 -138 20 -16 42 -20 98 -20 66 0 74 3 110 32 21 18
102 66 180 108 134 71 147 76 215 79 160 7 254 90 262 230 3 65 13 79 52 74
19 -2 34 -13 47 -35 18 -31 18 -32 -12 -135 -123 -423 -104 -654 95 -1217 66
-184 141 -354 224 -505 l60 -110 -35 -350 c-40 -396 -80 -756 -124 -1116 -88
-721 -113 -1033 -115 -1430 -1 -251 3 -322 22 -477 31 -250 70 -494 81 -507 5
-6 5 -34 -2 -68 -9 -53 -12 -57 -44 -63 -35 -6 -47 -25 -60 -88 -6 -31 19 -67
47 -67 22 0 29 -26 19 -65 -7 -26 -34 -45 -201 -142 -188 -108 -196 -112 -277
-122 -97 -12 -129 -30 -200 -106 -100 -110 -190 -269 -212 -374 -6 -31 -18
-78 -25 -105 -8 -27 -14 -70 -14 -95 l0 -46 -70 -37 c-235 -127 -574 -461
-765 -752 -265 -403 -512 -1070 -564 -1521 -32 -273 -41 -597 -21 -796 40
-399 155 -736 355 -1034 217 -325 427 -464 765 -505 240 -29 454 13 690 136
154 80 264 167 461 364 246 246 367 414 533 740 223 438 344 889 387 1440 6
80 12 146 14 148 1 2 22 -10 46 -26 125 -83 306 -101 461 -46 35 12 44 12 57
1 9 -8 52 -20 96 -26 107 -16 115 -19 115 -42 0 -11 7 -22 15 -25 8 -4 15 -15
15 -25 0 -27 70 -28 70 -1 1 37 22 50 70 42 36 -6 57 -19 104 -63 32 -31 90
-73 130 -93 62 -33 81 -38 156 -42 69 -3 95 0 139 17 48 18 56 19 82 6 49 -26
112 -19 216 26 96 41 112 41 113 3 0 -6 27 -92 60 -191 73 -220 83 -264 109
-464 23 -173 50 -274 87 -332 14 -21 22 -42 19 -46 -9 -15 27 -48 105 -95 80
-49 115 -56 149 -28 44 35 47 142 5 142 -8 0 -54 20 -103 44 -94 48 -96 50
-126 151 -19 62 -18 95 0 119 22 29 18 53 -10 78 -27 23 -33 48 -12 48 7 0 21
6 31 13 17 13 17 16 -4 88 -12 41 -47 148 -77 238 l-54 164 21 21 c27 30 25
68 -5 104 -20 24 -25 41 -25 84 l0 55 163 68 c311 131 642 279 1037 464 l195
92 24 -33 c14 -18 63 -71 110 -118 67 -66 105 -95 171 -128 158 -79 246 -78
413 5 168 84 295 235 424 502 180 373 256 777 257 1366 0 302 -15 449 -64 640
-55 214 -135 361 -267 492 -101 100 -197 147 -303 148 -157 0 -289 -63 -436
-210 -223 -223 -349 -494 -438 -945 -24 -124 -47 -242 -51 -263 -7 -42 -15
-45 -91 -23 -115 34 -258 58 -305 53 -61 -7 -150 -49 -191 -90 -75 -75 -104
-139 -213 -470 -91 -275 -111 -326 -136 -348 -33 -29 -29 -27 -280 -99 -228
-64 -371 -115 -655 -234 -127 -53 -236 -96 -243 -96 -6 0 -11 5 -11 10 0 6
-25 243 -55 528 -87 828 -154 1503 -200 2047 -19 215 -37 329 -71 437 -45 142
-300 735 -573 1332 l-91 199 0 126 c-1 147 15 228 44 223 21 -4 45 24 46 55 0
16 7 22 28 25 21 2 28 9 30 30 3 22 -4 32 -36 53 -39 25 -40 28 -30 62 8 29 6
38 -8 55 -12 13 -17 32 -15 57 2 31 -2 39 -22 48 -23 11 -24 15 -17 50 24 106
300 1386 300 1389 0 2 6 4 13 4 8 0 22 9 31 19 17 19 17 22 0 73 -31 91 -37
86 95 85 109 -1 122 1 226 36 213 73 390 183 564 352 143 139 265 276 516 585
110 135 228 273 263 307 173 170 417 196 790 87 l132 -39 -2 -34 c-1 -22 4
-37 15 -46 9 -7 17 -24 17 -39 0 -63 87 -100 129 -55 l20 22 -2 -29 c-2 -23 3
-30 20 -32 16 -2 30 10 60 52 21 30 42 55 46 56 5 0 16 -9 25 -20 30 -34 340
-146 627 -225 155 -42 422 -102 555 -125 109 -18 112 -19 105 -39 -3 -11 1
-24 11 -32 14 -12 19 -10 37 11 34 42 86 162 101 235 34 164 30 241 -10 180
-20 -31 -29 -31 -73 -1 -101 69 -1021 343 -1221 364 l-65 7 3 68 c3 57 1 67
-13 67 -9 0 -23 -16 -32 -37 -8 -21 -16 -39 -18 -41 -2 -2 -40 8 -85 22 -99
32 -143 33 -161 6 -14 -20 -15 -20 -139 10 -194 46 -329 63 -450 57 l-105 -6
-435 174 c-870 347 -1156 434 -1569 475 -97 9 -288 11 -376 3z m396 -73 c374
-37 675 -129 1496 -457 189 -76 340 -140 335 -143 -4 -4 -32 -14 -63 -23 -30
-9 -97 -42 -147 -73 -75 -45 -99 -55 -129 -52 -36 3 -37 4 -48 58 -13 65 -24
86 -60 120 l-27 25 -301 6 c-166 4 -717 7 -1223 8 -918 1 -921 1 -948 -20 -14
-11 -26 -16 -26 -10 0 5 -16 30 -35 55 -19 26 -35 50 -35 55 0 20 135 164 211
224 160 128 357 205 589 230 77 8 314 6 411 -3z m-1348 -451 c20 -5 37 -12 37
-14 0 -1 -19 -34 -43 -72 l-42 -70 -45 21 c-37 17 -64 20 -145 20 -55 -1 -112
-6 -127 -12 -47 -19 -31 -5 36 33 101 57 209 96 281 104 6 0 27 -4 48 -10z
m133 -119 l31 -50 -21 -45 c-20 -44 -22 -45 -64 -42 -35 2 -47 7 -59 28 -15
25 -14 29 23 92 22 37 44 67 49 67 6 0 24 -23 41 -50z m95 -549 c23 -23 45
-41 49 -41 23 0 17 -394 -9 -580 l-7 -55 -17 55 c-13 43 -127 755 -127 794 0
5 16 -23 35 -62 20 -38 54 -88 76 -111z m-351 -287 c12 -105 30 -233 40 -285
34 -168 143 -347 259 -429 37 -26 50 -41 50 -60 1 -46 -46 -521 -52 -526 -7
-8 -128 240 -175 361 -58 146 -137 386 -166 500 -71 275 -72 494 -4 730 l12
40 7 -70 c5 -38 18 -156 29 -261z m2232 223 c180 -7 329 -15 332 -18 2 -2
-103 -128 -234 -279 -259 -299 -315 -351 -465 -425 -132 -65 -228 -88 -340
-79 l-90 7 -53 48 c-83 76 -130 87 -426 95 -188 5 -249 4 -260 -5 -8 -7 -20
-37 -26 -68 l-12 -55 -44 5 c-48 5 -153 54 -161 74 -3 7 2 96 11 198 9 101 16
262 16 356 l0 172 713 -7 c391 -3 859 -12 1039 -19z m-1712 -1043 c30 -7 83
-14 117 -14 61 0 63 -1 77 -32 30 -66 34 -68 139 -68 l95 0 11 -30 c5 -16 17
-30 25 -30 8 0 19 -8 24 -17 13 -26 62 -238 62 -271 0 -23 -192 -899 -206
-942 -4 -11 -10 -7 -22 14 -9 16 -80 131 -156 255 -77 124 -181 295 -233 380
l-94 153 26 292 c32 353 29 340 58 331 12 -4 47 -13 77 -21z m132 -1209 c58
-93 123 -204 145 -245 39 -72 40 -77 29 -120 -8 -34 -15 -44 -28 -42 -11 2
-24 -11 -37 -37 -14 -26 -29 -41 -43 -43 -18 -2 -24 -11 -26 -35 -2 -20 1 -33
8 -33 6 0 8 -4 5 -10 -3 -5 -18 -10 -33 -10 -43 0 -72 -26 -72 -65 0 -19 5
-37 10 -40 6 -3 10 -16 10 -27 0 -12 7 -29 15 -38 14 -15 1 -85 -120 -676 -75
-362 -140 -679 -145 -704 -5 -25 -41 -200 -80 -390 -39 -190 -82 -401 -96
-470 -32 -158 -35 -166 -45 -105 -99 603 -91 1033 37 2102 60 510 108 943 134
1208 11 121 23 231 26 243 5 25 -6 42 306 -463z m344 -1919 c-22 -273 -103
-1016 -111 -1024 -8 -8 -134 132 -141 157 -4 15 31 209 95 515 56 270 105 500
108 510 5 16 10 11 30 -29 23 -44 25 -56 19 -129z m320 -569 c151 -336 152
-342 199 -676 34 -235 83 -625 80 -629 -1 -1 -47 57 -103 130 -121 160 -213
271 -401 482 -77 88 -141 164 -141 170 0 6 11 106 25 221 13 116 36 325 50
465 13 140 28 280 31 310 l6 55 85 -170 c47 -93 123 -254 169 -358z m-491
-961 c-4 -12 -9 -34 -12 -49 -3 -16 -11 -31 -19 -34 -7 -2 -16 -29 -20 -59 -5
-44 -10 -54 -25 -54 -12 0 -19 -7 -19 -19 0 -11 -7 -26 -15 -35 -22 -22 -18
-43 11 -62 26 -17 27 -39 8 -106 -4 -13 -53 -30 -95 -33 -12 0 -118 155 -114
168 2 6 6 24 9 38 5 24 9 26 38 20 57 -12 66 -5 74 56 6 51 4 58 -15 74 -12
10 -26 19 -32 21 -14 5 27 212 49 248 l15 24 84 -89 c67 -71 83 -93 78 -109z
m282 -287 c109 -122 218 -249 242 -282 54 -77 114 -203 135 -282 8 -33 52
-386 96 -785 45 -399 85 -756 90 -795 5 -38 8 -71 6 -72 -1 -2 -101 -38 -222
-82 l-219 -79 -3 -50 -3 -50 43 -15 43 -15 -54 -1 c-70 -1 -129 27 -197 93
-61 60 -81 108 -118 286 -34 160 -52 281 -66 451 l-12 136 33 159 c32 149 34
171 34 359 0 130 -5 225 -14 270 -25 131 -69 250 -121 329 -28 42 -50 80 -50
85 0 15 76 69 108 76 46 10 61 40 69 132 l6 79 -33 28 c-25 21 -30 30 -20 36
9 5 11 20 7 44 -7 46 3 177 14 170 4 -2 97 -104 206 -225z m4055 96 c6 -7 -11
-58 -34 -100 l-16 -30 -7 40 c-4 22 -11 47 -16 56 -5 9 -3 21 3 27 12 12 60
16 70 7z m-88 -67 c39 -56 35 -70 -89 -291 -96 -170 -120 -205 -131 -196 -27
22 -18 122 20 212 51 123 155 297 177 297 4 0 15 -10 23 -22z m146 -35 c25
-66 70 -255 70 -294 0 -15 -7 -33 -16 -40 -9 -7 -21 -25 -26 -39 -9 -22 -17
-5 -69 150 -32 96 -58 177 -59 181 0 11 60 99 69 99 5 0 19 -26 31 -57z
m-4370 -92 c0 -16 -7 -34 -15 -41 -13 -10 -15 -9 -15 11 0 37 11 69 21 63 5
-3 9 -18 9 -33z m4334 -187 l68 -207 -103 -103 -104 -104 -82 104 c-46 57 -83
107 -83 111 0 13 222 405 229 405 4 0 37 -93 75 -206z m-5082 -191 c10 -11 48
-84 84 -164 37 -79 80 -159 95 -177 16 -18 32 -44 35 -57 7 -29 -3 -92 -16
-100 -5 -3 -49 17 -97 45 -129 75 -288 120 -476 136 -59 5 -74 9 -63 18 7 6
30 38 52 71 57 89 188 217 259 253 59 29 61 29 85 12 14 -10 33 -26 42 -37z
m4688 -133 l-31 -55 6 48 c7 53 31 153 43 177 4 8 8 -14 10 -50 2 -58 -1 -72
-28 -120z m489 143 c-10 -11 -14 -11 -20 -1 -14 21 -10 26 11 21 16 -4 18 -8
9 -20z m-429 -34 c-14 -26 -18 -24 -12 6 2 14 8 22 13 19 5 -3 5 -14 -1 -25z
m445 -16 l-8 -38 -9 28 c-7 20 -6 32 2 43 18 21 23 10 15 -33z m-353 -75 c99
-124 96 -114 57 -154 -24 -25 -41 -34 -66 -34 -26 0 -33 -4 -33 -20 0 -40 -29
-19 -49 35 -26 70 -28 179 -4 230 9 19 18 35 19 35 1 0 35 -42 76 -92z m340
-67 c-4 -112 -43 -190 -98 -191 -18 0 -86 73 -118 129 -6 9 21 43 90 112 l99
100 15 -33 c10 -22 13 -60 12 -117z m38 62 c0 -28 -3 -34 -10 -23 -13 20 -13
60 0 60 6 0 10 -17 10 -37z m-504 -71 c-4 -3 -12 0 -18 6 -9 9 -8 18 2 39 l14
28 4 -33 c2 -19 1 -37 -2 -40z m496 -54 c-18 -18 -22 -6 -15 38 l7 39 9 -33
c7 -23 7 -36 -1 -44z m-213 -65 l43 -53 -42 0 c-40 0 -42 1 -36 25 6 23 4 25
-27 25 -47 0 -51 9 -20 42 15 15 30 25 33 21 3 -5 26 -32 49 -60z m-217 -240
c-2 -38 -7 -97 -10 -133 l-7 -65 -26 45 c-14 25 -29 65 -32 90 -5 37 -1 52 21
87 42 66 59 58 54 -24z m318 23 c15 -20 11 -26 -92 -137 l-88 -93 0 40 c0 33
7 46 39 78 22 21 50 43 63 50 16 8 24 22 26 44 4 35 30 44 52 18z m-4645 -121
c-11 -51 -22 -82 -27 -77 -6 6 0 42 13 91 12 45 24 79 27 76 3 -2 -3 -43 -13
-90z m-25 79 c0 -3 -7 -31 -16 -61 l-16 -55 -25 25 c-30 30 -26 68 9 85 26 12
48 15 48 6z m4260 -26 c0 -18 -2 -20 -9 -8 -6 8 -7 18 -5 22 9 14 14 9 14 -14z
m-13 -33 c18 -31 23 -56 23 -111 0 -66 -2 -73 -26 -89 -20 -13 -25 -23 -22
-46 3 -16 -1 -30 -7 -33 -13 -4 -25 122 -25 257 0 59 2 68 17 65 10 -2 28 -21
40 -43z m83 -147 c0 -4 -8 -12 -19 -17 -16 -9 -19 -6 -25 27 -11 71 -7 80 19
37 14 -22 25 -43 25 -47z m150 9 c0 -2 -9 -12 -20 -22 -19 -18 -20 -17 -20 3
0 15 6 22 20 22 11 0 20 -2 20 -3z m-130 -140 c0 -2 -11 -14 -25 -27 -19 -18
-25 -20 -25 -8 0 8 10 20 23 26 26 13 27 13 27 9z m-70 -56 c0 -21 -46 -81
-61 -81 -5 0 -9 17 -9 38 0 32 4 40 28 49 39 16 42 15 42 -6z m390 -45 c-31
-91 -73 -178 -81 -169 -4 4 0 43 11 86 14 61 25 86 51 113 18 18 34 32 36 30
2 -1 -6 -28 -17 -60z m-85 -83 c-10 -53 -16 -59 -31 -32 -11 21 -10 27 8 47
29 30 31 28 23 -15z m-33 -52 c19 -34 10 -94 -22 -147 -30 -48 -116 -124 -141
-124 -28 0 -69 37 -69 63 0 16 196 237 210 237 3 0 12 -13 22 -29z m-5508
-103 c-3 -18 -7 -42 -9 -52 -2 -11 1 -26 7 -34 7 -8 17 -94 24 -205 l13 -191
-97 -203 c-53 -111 -102 -203 -108 -203 -5 0 -24 15 -41 33 l-31 32 39 118
c21 65 42 136 45 157 6 34 3 40 -22 56 -16 10 -30 18 -31 19 -1 0 22 106 50
234 l52 233 45 19 c64 26 70 24 64 -13z m129 -84 c23 -13 50 -24 60 -24 9 0
17 -4 17 -9 0 -4 -33 -78 -74 -162 -58 -120 -75 -147 -76 -124 0 17 -5 89 -10
160 -5 72 -7 145 -4 163 7 37 16 37 87 -4z m157 -48 c0 -19 9 -45 21 -61 23
-28 17 -28 128 -13 20 2 29 -7 57 -57 19 -33 41 -83 50 -111 16 -49 16 -56
-11 -200 -15 -82 -28 -150 -28 -151 -9 -8 -410 -153 -414 -149 -3 3 -10 90
-16 195 l-11 190 78 163 c108 228 146 278 146 194z m305 -447 c8 -46 15 -89
15 -95 0 -6 -18 -18 -40 -27 -22 -8 -40 -12 -40 -9 0 16 44 221 47 218 2 -2
10 -41 18 -87z m-540 -165 l7 -149 -75 -28 c-72 -28 -76 -28 -101 -12 -15 10
-25 21 -24 25 2 4 41 86 88 182 67 139 86 171 91 153 4 -12 10 -89 14 -171z
m-698 96 c0 -17 10 -45 23 -62 23 -31 23 -31 6 -101 -9 -38 -33 -112 -54 -164
l-37 -95 -65 6 c-35 4 -66 8 -67 10 -11 11 175 436 190 436 2 0 4 -14 4 -30z
m1214 -127 c-10 -27 -36 -91 -56 -143 -21 -52 -41 -99 -45 -103 -4 -4 1 29 11
75 9 46 23 109 29 141 9 44 17 60 33 67 44 18 48 12 28 -37z m-71 13 c0 -28
-74 -384 -86 -412 -21 -52 -20 -51 -50 -23 -20 19 -36 24 -77 24 -29 0 -62 -3
-73 -8 -17 -6 -31 1 -67 35 l-46 43 -3 98 -3 98 195 74 c195 73 210 79 210 71z
m-705 -136 c26 -27 27 -31 15 -61 -9 -21 -27 -37 -54 -50 -23 -10 -42 -14 -44
-9 -4 12 39 150 47 150 4 0 20 -13 36 -30z m277 -102 c2 -46 3 -84 3 -85 -1
-1 -34 24 -74 57 -61 50 -70 61 -55 66 11 4 39 15 64 25 25 10 48 18 52 18 3
1 8 -36 10 -81z m-207 42 c3 -5 4 -10 1 -10 -2 0 -12 -3 -20 -6 -12 -5 -15 -2
-10 10 7 18 20 21 29 6z m142 -113 l71 -57 7 -84 c5 -69 4 -90 -10 -117 -10
-19 -18 -35 -20 -36 -1 -2 -55 12 -121 31 -65 19 -138 39 -161 45 l-43 12 0
49 c0 38 10 69 42 135 39 77 46 86 83 98 35 12 42 12 60 -2 11 -9 53 -42 92
-74z m-258 -15 c-12 -29 -25 -52 -28 -52 -10 0 -30 60 -25 74 4 11 63 36 72
31 1 -1 -7 -25 -19 -53z m-471 -6 c10 -11 -21 -46 -41 -46 -12 0 -31 -7 -41
-15 -20 -15 -66 -21 -66 -9 0 4 5 25 12 47 l12 39 60 -6 c32 -3 61 -8 64 -10z
m1272 -19 c0 -23 -17 -47 -32 -47 -12 0 -9 45 4 58 18 18 28 14 28 -11z m-407
-119 c-15 -15 -28 -28 -30 -28 -2 0 -3 23 -3 50 l0 51 30 -23 30 -22 -27 -28z
m-982 -119 l43 -71 38 5 39 5 -2 -43 c-2 -24 2 -49 8 -57 6 -7 14 -24 18 -38
4 -14 19 -40 32 -58 14 -18 23 -35 22 -36 -10 -9 -261 12 -271 22 -7 7 -19 12
-29 12 -11 0 -15 7 -13 23 2 12 8 58 14 102 10 75 27 164 35 193 8 24 23 11
66 -59z m552 -226 c14 -48 25 -88 24 -89 -1 -2 -48 0 -104 3 l-103 6 45 39
c25 22 57 60 71 84 14 24 29 44 33 44 4 0 19 -39 34 -87z m160 46 c146 -36
150 -41 89 -109 l-38 -43 -79 9 -78 9 -23 67 c-39 117 -38 111 -17 104 10 -3
75 -19 146 -37z m134 -145 c-3 -3 -15 -4 -26 -2 -21 3 -21 4 -4 27 l17 25 9
-22 c6 -12 8 -25 4 -28z m-738 8 l84 -7 -154 -182 c-118 -139 -156 -178 -161
-165 -8 21 -10 305 -2 326 3 9 17 16 30 16 13 0 24 5 24 10 0 11 51 11 179 2z
m353 -19 l127 -6 25 -75 25 -74 -202 -249 c-181 -224 -202 -247 -206 -222 -1
15 0 164 4 331 l7 302 47 0 c25 0 103 -3 173 -7z m3898 3 c0 -2 -7 -7 -16 -10
-8 -3 -12 -2 -9 4 6 10 25 14 25 6z m-4145 -348 l-8 -342 -54 -68 c-45 -56
-139 -138 -158 -138 -8 0 -63 190 -80 274 -9 44 -20 113 -25 154 l-10 74 48
57 c27 31 101 118 166 194 64 75 119 137 123 137 3 0 2 -154 -2 -342z m528
320 c-5 -7 -27 -35 -48 -62 l-39 -48 -17 48 c-27 75 -27 74 47 74 52 0 64 -3
57 -12z m115 -7 c32 -72 78 -118 129 -130 l30 -6 -97 -239 c-54 -131 -100
-235 -102 -230 -5 8 -113 341 -143 440 l-12 41 58 71 c57 69 59 71 96 65 21
-3 39 -9 41 -12z m3512 15 c0 -2 -7 -7 -16 -10 -8 -3 -12 -2 -9 4 6 10 25 14
25 6z m-3044 -112 c-40 -106 -112 -264 -120 -264 -3 0 -33 55 -67 121 l-60
121 23 16 c13 9 35 28 51 43 l27 27 0 -24 c0 -14 6 -27 14 -30 18 -7 71 20 88
44 15 22 72 54 76 43 1 -4 -13 -48 -32 -97z m3039 86 c-3 -5 -12 -10 -18 -10
-7 0 -6 4 3 10 19 12 23 12 15 0z m10 -20 c-3 -5 -12 -10 -18 -10 -7 0 -6 4 3
10 19 12 23 12 15 0z m2 -26 c-3 -3 -12 -4 -19 -1 -8 3 -5 6 6 6 11 1 17 -2
13 -5z m3 -18 c0 -2 -7 -7 -16 -10 -8 -3 -12 -2 -9 4 6 10 25 14 25 6z m10
-46 c-8 -5 -19 -10 -25 -10 -5 0 -3 5 5 10 8 5 20 10 25 10 6 0 3 -5 -5 -10z
m-3266 -148 l66 -133 -30 -59 c-67 -133 -221 -370 -240 -370 -4 0 -10 9 -13
20 -3 11 -11 19 -18 18 -7 -2 -21 26 -36 70 l-23 73 96 237 c53 130 100 247
105 260 5 13 13 22 19 20 5 -2 38 -63 74 -136z m-395 -134 l80 -246 -75 -189
c-42 -103 -82 -195 -90 -204 -8 -8 -14 -21 -14 -27 0 -11 -89 -65 -129 -77
l-24 -7 7 73 c4 41 11 79 15 84 5 6 11 47 14 91 5 70 4 84 -12 98 -28 25 -86
21 -109 -8 -21 -27 -38 -151 -23 -170 12 -16 -9 -187 -24 -192 -7 -3 -31 0
-54 6 l-41 11 0 73 c0 50 -4 75 -12 79 -10 3 -12 45 -8 178 l5 174 204 253
c112 139 205 251 207 250 2 -2 39 -114 83 -250z m-535 -619 c-12 -13 -14 -28
-9 -58 4 -23 3 -41 -2 -41 -14 0 -99 92 -128 139 l-27 43 36 37 c20 20 36 46
36 57 0 12 24 51 53 87 l52 67 3 -156 c2 -133 0 -160 -14 -175z m646 278 c6
-21 13 -48 15 -60 1 -12 6 -35 10 -50 6 -24 2 -34 -26 -64 -40 -42 -150 -125
-157 -119 -2 3 26 82 64 176 37 93 71 167 75 163 3 -5 12 -25 19 -46z"/>
</g>
</svg>
